<svg width="100%" height="904" viewBox="0 0 2000 904" fill="none" xmlns="http://www.w3.org/2000/svg">
    <mask id="mask0_1679_39324" style="mask-type:alpha" maskUnits="userSpaceOnUse" x="0" y="0" width="1251" height="904">
        <rect x="0.5" y="0.5" width="1250" height="903" fill="black" stroke="#BCBCBC"/>
    </mask>
    <g mask="url(#mask0_1679_39324)">
        <path d="M176.617 153.25H1036.92L1033.3 663.39H176.617V153.25Z" stroke="#343434"/>
        <rect x="144.203" y="131.477" width="923.815" height="549.106" stroke="#343434"/>
        <rect x="101.383" y="107.406" width="1008.31" height="599.533" stroke="#343434"/>
        <rect x="50.4531" y="77.6094" width="1110.17" height="657.982" stroke="#343434"/>
        <rect x="-10.8906" y="42.082" width="1232.86" height="733.621" stroke="#343434"/>
        <rect x="-86.125" y="-3.75781" width="1385.64" height="823.013" stroke="#343434"/>
        <rect x="-183.359" y="-58.7695" width="1578.94" height="935.327" stroke="#343434"/>
        <path d="M-83.1583 -116L273.341 154.469L270.257 663.278L-44.3832 901.697M119.398 -116L366.517 154.469V663.278L144.862 901.697M310.38 -116L462.587 154.469L460.284 663.278L329.478 901.697M507.728 -116L559.235 154.469V663.278L514.094 908M705.076 -116L657.041 154.469V663.278L698.71 901.697M900.687 -116L750.217 154.469V663.278L887.955 908M1099.77 -116L844.55 154.469V663.841L1076.04 908M1287.86 -116L939.462 154.469V663.841L1249.08 901.697M1488.1 -116L1037.27 154.469L1033.18 663.278L1451.06 908M-274.719 -116L176.654 153.533V663.278L-232.471 908" stroke="#343434"/>
        <path d="M-492.32 -102.25L176.695 211.196H1033.8L1708.6 -101.677M-492.32 44.445L176.695 267.926H1033.8L1708.6 44.445M-492.32 190.567L176.695 330.959H1033.8L1730.01 190.567M-492.32 344.138L176.695 385.396H1033.8L1743.32 330.959M-492.32 484.53L176.695 447.856H1033.8L1730.01 484.53M-492.32 627.214L176.695 500.002H1033.8L1730.01 627.214M-492.32 772.763L176.695 552.147H1033.8L1708.6 772.763M-492.32 902.84L176.695 611.742H1033.8L1693.55 902.84" stroke="#343434"/>
    </g>
</svg>
