<svg width="1252" height="186" viewBox="0 0 1252 186" fill="#111111" xmlns="http://www.w3.org/2000/svg">
    <path d="M28.6409 31.1681C27.6792 30.5347 26.6346 30.598 25.6876 30.4324C11.507 27.9329 1.11929 16.5317 0.0502537 2.251C-0.105952 0.141294 -0.0180959 0.0292326 2.11509 0.0292326C21.47 0.0292326 40.8249 0.0389784 60.1798 0C61.4734 0 61.8981 0.311818 61.8688 1.68093C61.6199 15.3136 50.6318 27.9573 36.8514 30.3788C35.6799 30.5834 34.4986 30.7734 33.3221 31.0853C36.993 31.6261 40.5906 32.3715 43.9295 33.9891C54.0781 38.9102 60.0383 46.9641 61.7321 58.0973C62.3228 61.9756 62.2252 61.9854 58.3884 61.9902C39.5362 61.9902 20.6841 61.9951 1.83199 62C0.0502655 62 -0.0913176 61.8489 0.0404813 60.1193C1.13392 45.7996 10.9261 34.6469 24.9456 31.7625C26.122 31.5189 27.3229 31.3825 28.6311 31.1778L28.6409 31.1681Z" />
    <path d="M92.1028 31.1681C91.1257 30.5347 90.0642 30.598 89.1019 30.4324C74.6926 27.9329 64.1373 16.5317 63.0511 2.251C62.8923 0.141294 62.9816 0.0292326 65.1492 0.0292326C84.8163 0.0292326 104.483 0.0389784 124.15 0C125.465 0 125.896 0.311818 125.867 1.68093C125.614 15.3136 114.448 27.9573 100.446 30.3788C99.2554 30.5834 98.055 30.7734 96.8596 31.0853C100.59 31.6261 104.245 32.3715 107.638 33.9891C117.95 38.9102 124.007 46.9641 125.728 58.0973C126.328 61.9756 126.229 61.9854 122.33 61.9902C103.174 61.9902 84.0177 61.9951 64.8615 62C63.0511 62 62.9072 61.8489 63.0411 60.1193C64.1522 45.7996 74.1023 34.6469 88.348 31.7625C89.5434 31.5189 90.7636 31.3825 92.0929 31.1778L92.1028 31.1681Z" fill=""/>
    <path d="M155.103 31.1681C154.126 30.5347 153.064 30.598 152.102 30.4324C137.693 27.9329 127.137 16.5317 126.051 2.251C125.892 0.141294 125.982 0.0292326 128.149 0.0292326C147.816 0.0292326 167.483 0.0389784 187.15 0C188.465 0 188.896 0.311818 188.867 1.68093C188.614 15.3136 177.448 27.9573 163.446 30.3788C162.255 30.5834 161.055 30.7734 159.86 31.0853C163.59 31.6261 167.245 32.3715 170.638 33.9891C180.95 38.9102 187.007 46.9641 188.728 58.0973C189.328 61.9756 189.229 61.9854 185.33 61.9902C166.174 61.9902 147.018 61.9951 127.862 62C126.051 62 125.907 61.8489 126.041 60.1193C127.152 45.7996 137.102 34.6469 151.348 31.7625C152.543 31.5189 153.764 31.3825 155.093 31.1778L155.103 31.1681Z" fill=""/>
    <path d="M217.641 31.1681C216.679 30.5347 215.635 30.598 214.688 30.4324C200.507 27.9329 190.119 16.5317 189.05 2.251C188.894 0.141294 188.982 0.0292326 191.115 0.0292326C210.47 0.0292326 229.825 0.0389784 249.18 0C250.473 0 250.898 0.311818 250.869 1.68093C250.62 15.3136 239.632 27.9573 225.851 30.3788C224.68 30.5834 223.499 30.7734 222.322 31.0853C225.993 31.6261 229.591 32.3715 232.93 33.9891C243.078 38.9102 249.038 46.9641 250.732 58.0973C251.323 61.9756 251.225 61.9854 247.388 61.9902C228.536 61.9902 209.684 61.9951 190.832 62C189.05 62 188.909 61.8489 189.04 60.1193C190.134 45.7996 199.926 34.6469 213.946 31.7625C215.122 31.5189 216.323 31.3825 217.631 31.1778L217.641 31.1681Z" fill=""/>
    <path d="M280.103 31.1681C279.126 30.5347 278.064 30.598 277.102 30.4324C262.693 27.9329 252.137 16.5317 251.051 2.251C250.892 0.141294 250.982 0.0292326 253.149 0.0292326C272.816 0.0292326 292.483 0.0389784 312.15 0C313.465 0 313.896 0.311818 313.867 1.68093C313.614 15.3136 302.448 27.9573 288.446 30.3788C287.255 30.5834 286.055 30.7734 284.86 31.0853C288.59 31.6261 292.245 32.3715 295.638 33.9891C305.95 38.9102 312.007 46.9641 313.728 58.0973C314.328 61.9756 314.229 61.9854 310.33 61.9902C291.174 61.9902 272.018 61.9951 252.862 62C251.051 62 250.907 61.8489 251.041 60.1193C252.152 45.7996 262.102 34.6469 276.348 31.7625C277.543 31.5189 278.764 31.3825 280.093 31.1778L280.103 31.1681Z" fill=""/>
    <path d="M342.641 31.1681C341.679 30.5347 340.635 30.598 339.688 30.4324C325.507 27.9329 315.119 16.5317 314.05 2.251C313.894 0.141294 313.982 0.0292326 316.115 0.0292326C335.47 0.0292326 354.825 0.0389784 374.18 0C375.473 0 375.898 0.311818 375.869 1.68093C375.62 15.3136 364.632 27.9573 350.851 30.3788C349.68 30.5834 348.499 30.7734 347.322 31.0853C350.993 31.6261 354.591 32.3715 357.93 33.9891C368.078 38.9102 374.038 46.9641 375.732 58.0973C376.323 61.9756 376.225 61.9854 372.388 61.9902C353.536 61.9902 334.684 61.9951 315.832 62C314.05 62 313.909 61.8489 314.04 60.1193C315.134 45.7996 324.926 34.6469 338.946 31.7625C340.122 31.5189 341.323 31.3825 342.631 31.1778L342.641 31.1681Z" fill=""/>
    <path d="M404.641 31.1681C403.679 30.5347 402.635 30.598 401.688 30.4324C387.507 27.9329 377.119 16.5317 376.05 2.251C375.894 0.141294 375.982 0.0292326 378.115 0.0292326C397.47 0.0292326 416.825 0.0389784 436.18 0C437.473 0 437.898 0.311818 437.869 1.68093C437.62 15.3136 426.632 27.9573 412.851 30.3788C411.68 30.5834 410.499 30.7734 409.322 31.0853C412.993 31.6261 416.591 32.3715 419.93 33.9891C430.078 38.9102 436.038 46.9641 437.732 58.0973C438.323 61.9756 438.225 61.9854 434.388 61.9902C415.536 61.9902 396.684 61.9951 377.832 62C376.05 62 375.909 61.8489 376.04 60.1193C377.134 45.7996 386.926 34.6469 400.946 31.7625C402.122 31.5189 403.323 31.3825 404.631 31.1778L404.641 31.1681Z" fill=""/>
    <path d="M467.103 31.1681C466.126 30.5347 465.064 30.598 464.102 30.4324C449.693 27.9329 439.137 16.5317 438.051 2.251C437.892 0.141294 437.982 0.0292326 440.149 0.0292326C459.816 0.0292326 479.483 0.0389784 499.15 0C500.465 0 500.896 0.311818 500.867 1.68093C500.614 15.3136 489.448 27.9573 475.446 30.3788C474.255 30.5834 473.055 30.7734 471.86 31.0853C475.59 31.6261 479.245 32.3715 482.638 33.9891C492.95 38.9102 499.007 46.9641 500.728 58.0973C501.328 61.9756 501.229 61.9854 497.33 61.9902C478.174 61.9902 459.018 61.9951 439.862 62C438.051 62 437.907 61.8489 438.041 60.1193C439.152 45.7996 449.102 34.6469 463.348 31.7625C464.543 31.5189 465.764 31.3825 467.093 31.1778L467.103 31.1681Z" fill=""/>
    <path d="M530.103 31.1681C529.126 30.5347 528.064 30.598 527.102 30.4324C512.693 27.9329 502.137 16.5317 501.051 2.251C500.892 0.141294 500.982 0.0292326 503.149 0.0292326C522.816 0.0292326 542.483 0.0389784 562.15 0C563.465 0 563.896 0.311818 563.867 1.68093C563.614 15.3136 552.448 27.9573 538.446 30.3788C537.255 30.5834 536.055 30.7734 534.86 31.0853C538.59 31.6261 542.245 32.3715 545.638 33.9891C555.95 38.9102 562.007 46.9641 563.728 58.0973C564.328 61.9756 564.229 61.9854 560.33 61.9902C541.174 61.9902 522.018 61.9951 502.862 62C501.051 62 500.907 61.8489 501.041 60.1193C502.152 45.7996 512.102 34.6469 526.348 31.7625C527.543 31.5189 528.764 31.3825 530.093 31.1778L530.103 31.1681Z" fill=""/>
    <path d="M593.103 31.1681C592.126 30.5347 591.064 30.598 590.102 30.4324C575.693 27.9329 565.137 16.5317 564.051 2.251C563.892 0.141294 563.982 0.0292326 566.149 0.0292326C585.816 0.0292326 605.483 0.0389784 625.15 0C626.465 0 626.896 0.311818 626.867 1.68093C626.614 15.3136 615.448 27.9573 601.446 30.3788C600.255 30.5834 599.055 30.7734 597.86 31.0853C601.59 31.6261 605.245 32.3715 608.638 33.9891C618.95 38.9102 625.007 46.9641 626.728 58.0973C627.328 61.9756 627.229 61.9854 623.33 61.9902C604.174 61.9902 585.018 61.9951 565.862 62C564.051 62 563.907 61.8489 564.041 60.1193C565.152 45.7996 575.102 34.6469 589.348 31.7625C590.543 31.5189 591.764 31.3825 593.093 31.1778L593.103 31.1681Z" fill=""/>
    <path d="M655.641 31.1681C654.679 30.5347 653.635 30.598 652.688 30.4324C638.507 27.9329 628.119 16.5317 627.05 2.251C626.894 0.141294 626.982 0.0292326 629.115 0.0292326C648.47 0.0292326 667.825 0.0389784 687.18 0C688.473 0 688.898 0.311818 688.869 1.68093C688.62 15.3136 677.632 27.9573 663.851 30.3788C662.68 30.5834 661.499 30.7734 660.322 31.0853C663.993 31.6261 667.591 32.3715 670.93 33.9891C681.078 38.9102 687.038 46.9641 688.732 58.0973C689.323 61.9756 689.225 61.9854 685.388 61.9902C666.536 61.9902 647.684 61.9951 628.832 62C627.05 62 626.909 61.8489 627.04 60.1193C628.134 45.7996 637.926 34.6469 651.946 31.7625C653.122 31.5189 654.323 31.3825 655.631 31.1778L655.641 31.1681Z" fill=""/>
    <path d="M718.103 31.1681C717.126 30.5347 716.064 30.598 715.102 30.4324C700.693 27.9329 690.137 16.5317 689.051 2.251C688.892 0.141294 688.982 0.0292326 691.149 0.0292326C710.816 0.0292326 730.483 0.0389784 750.15 0C751.465 0 751.896 0.311818 751.867 1.68093C751.614 15.3136 740.448 27.9573 726.446 30.3788C725.255 30.5834 724.055 30.7734 722.86 31.0853C726.59 31.6261 730.245 32.3715 733.638 33.9891C743.95 38.9102 750.007 46.9641 751.728 58.0973C752.328 61.9756 752.229 61.9854 748.33 61.9902C729.174 61.9902 710.018 61.9951 690.862 62C689.051 62 688.907 61.8489 689.041 60.1193C690.152 45.7996 700.102 34.6469 714.348 31.7625C715.543 31.5189 716.764 31.3825 718.093 31.1778L718.103 31.1681Z" fill=""/>
    <path d="M781.103 31.1681C780.126 30.5347 779.064 30.598 778.102 30.4324C763.693 27.9329 753.137 16.5317 752.051 2.251C751.892 0.141294 751.982 0.0292326 754.149 0.0292326C773.816 0.0292326 793.483 0.0389784 813.15 0C814.465 0 814.896 0.311818 814.867 1.68093C814.614 15.3136 803.448 27.9573 789.446 30.3788C788.255 30.5834 787.055 30.7734 785.86 31.0853C789.59 31.6261 793.245 32.3715 796.638 33.9891C806.95 38.9102 813.007 46.9641 814.728 58.0973C815.328 61.9756 815.229 61.9854 811.33 61.9902C792.174 61.9902 773.018 61.9951 753.862 62C752.051 62 751.907 61.8489 752.041 60.1193C753.152 45.7996 763.102 34.6469 777.348 31.7625C778.543 31.5189 779.764 31.3825 781.093 31.1778L781.103 31.1681Z" fill=""/>
    <path d="M843.641 31.1681C842.679 30.5347 841.635 30.598 840.688 30.4324C826.507 27.9329 816.119 16.5317 815.05 2.251C814.894 0.141294 814.982 0.0292326 817.115 0.0292326C836.47 0.0292326 855.825 0.0389784 875.18 0C876.473 0 876.898 0.311818 876.869 1.68093C876.62 15.3136 865.632 27.9573 851.851 30.3788C850.68 30.5834 849.499 30.7734 848.322 31.0853C851.993 31.6261 855.591 32.3715 858.93 33.9891C869.078 38.9102 875.038 46.9641 876.732 58.0973C877.323 61.9756 877.225 61.9854 873.388 61.9902C854.536 61.9902 835.684 61.9951 816.832 62C815.05 62 814.909 61.8489 815.04 60.1193C816.134 45.7996 825.926 34.6469 839.946 31.7625C841.122 31.5189 842.323 31.3825 843.631 31.1778L843.641 31.1681Z" fill=""/>
    <path d="M906.103 31.1681C905.126 30.5347 904.064 30.598 903.102 30.4324C888.693 27.9329 878.137 16.5317 877.051 2.251C876.892 0.141294 876.982 0.0292326 879.149 0.0292326C898.816 0.0292326 918.483 0.0389784 938.15 0C939.465 0 939.896 0.311818 939.867 1.68093C939.614 15.3136 928.448 27.9573 914.446 30.3788C913.255 30.5834 912.055 30.7734 910.86 31.0853C914.59 31.6261 918.245 32.3715 921.638 33.9891C931.95 38.9102 938.007 46.9641 939.728 58.0973C940.328 61.9756 940.229 61.9854 936.33 61.9902C917.174 61.9902 898.018 61.9951 878.862 62C877.051 62 876.907 61.8489 877.041 60.1193C878.152 45.7996 888.102 34.6469 902.348 31.7625C903.543 31.5189 904.764 31.3825 906.093 31.1778L906.103 31.1681Z" fill=""/>
    <path d="M968.641 31.1681C967.679 30.5347 966.635 30.598 965.688 30.4324C951.507 27.9329 941.119 16.5317 940.05 2.251C939.894 0.141294 939.982 0.0292326 942.115 0.0292326C961.47 0.0292326 980.825 0.0389784 1000.18 0C1001.47 0 1001.9 0.311818 1001.87 1.68093C1001.62 15.3136 990.632 27.9573 976.851 30.3788C975.68 30.5834 974.499 30.7734 973.322 31.0853C976.993 31.6261 980.591 32.3715 983.93 33.9891C994.078 38.9102 1000.04 46.9641 1001.73 58.0973C1002.32 61.9756 1002.23 61.9854 998.388 61.9902C979.536 61.9902 960.684 61.9951 941.832 62C940.05 62 939.909 61.8489 940.04 60.1193C941.134 45.7996 950.926 34.6469 964.946 31.7625C966.122 31.5189 967.323 31.3825 968.631 31.1778L968.641 31.1681Z" fill=""/>
    <path d="M1030.64 31.1681C1029.68 30.5347 1028.63 30.598 1027.69 30.4324C1013.51 27.9329 1003.12 16.5317 1002.05 2.251C1001.89 0.141294 1001.98 0.0292326 1004.12 0.0292326C1023.47 0.0292326 1042.82 0.0389784 1062.18 0C1063.47 0 1063.9 0.311818 1063.87 1.68093C1063.62 15.3136 1052.63 27.9573 1038.85 30.3788C1037.68 30.5834 1036.5 30.7734 1035.32 31.0853C1038.99 31.6261 1042.59 32.3715 1045.93 33.9891C1056.08 38.9102 1062.04 46.9641 1063.73 58.0973C1064.32 61.9756 1064.23 61.9854 1060.39 61.9902C1041.54 61.9902 1022.68 61.9951 1003.83 62C1002.05 62 1001.91 61.8489 1002.04 60.1193C1003.13 45.7996 1012.93 34.6469 1026.95 31.7625C1028.12 31.5189 1029.32 31.3825 1030.63 31.1778L1030.64 31.1681Z" fill=""/>
    <path d="M1093.1 31.1681C1092.13 30.5347 1091.06 30.598 1090.1 30.4324C1075.69 27.9329 1065.14 16.5317 1064.05 2.251C1063.89 0.141294 1063.98 0.0292326 1066.15 0.0292326C1085.82 0.0292326 1105.48 0.0389784 1125.15 0C1126.46 0 1126.9 0.311818 1126.87 1.68093C1126.61 15.3136 1115.45 27.9573 1101.45 30.3788C1100.26 30.5834 1099.06 30.7734 1097.86 31.0853C1101.59 31.6261 1105.25 32.3715 1108.64 33.9891C1118.95 38.9102 1125.01 46.9641 1126.73 58.0973C1127.33 61.9756 1127.23 61.9854 1123.33 61.9902C1104.17 61.9902 1085.02 61.9951 1065.86 62C1064.05 62 1063.91 61.849 1064.04 60.1193C1065.15 45.7996 1075.1 34.6469 1089.35 31.7625C1090.54 31.5189 1091.76 31.3825 1093.09 31.1778L1093.1 31.1681Z" fill=""/>
    <path d="M1156.1 31.1681C1155.13 30.5347 1154.06 30.598 1153.1 30.4324C1138.69 27.9329 1128.14 16.5317 1127.05 2.251C1126.89 0.141294 1126.98 0.0292326 1129.15 0.0292326C1148.82 0.0292326 1168.48 0.0389784 1188.15 0C1189.46 0 1189.9 0.311818 1189.87 1.68093C1189.61 15.3136 1178.45 27.9573 1164.45 30.3788C1163.26 30.5834 1162.06 30.7734 1160.86 31.0853C1164.59 31.6261 1168.25 32.3715 1171.64 33.9891C1181.95 38.9102 1188.01 46.9641 1189.73 58.0973C1190.33 61.9756 1190.23 61.9854 1186.33 61.9902C1167.17 61.9902 1148.02 61.9951 1128.86 62C1127.05 62 1126.91 61.8489 1127.04 60.1193C1128.15 45.7996 1138.1 34.6469 1152.35 31.7625C1153.54 31.5189 1154.76 31.3825 1156.09 31.1778L1156.1 31.1681Z" fill=""/>
    <path d="M1218.64 31.1681C1217.68 30.5347 1216.63 30.598 1215.69 30.4324C1201.51 27.9329 1191.12 16.5317 1190.05 2.251C1189.89 0.141294 1189.98 0.0292326 1192.12 0.0292326C1211.47 0.0292326 1230.82 0.0389784 1250.18 0C1251.47 0 1251.9 0.311818 1251.87 1.68093C1251.62 15.3136 1240.63 27.9573 1226.85 30.3788C1225.68 30.5834 1224.5 30.7734 1223.32 31.0853C1226.99 31.6261 1230.59 32.3715 1233.93 33.9891C1244.08 38.9102 1250.04 46.9641 1251.73 58.0973C1252.32 61.9756 1252.23 61.9854 1248.39 61.9902C1229.54 61.9902 1210.68 61.9951 1191.83 62C1190.05 62 1189.91 61.8489 1190.04 60.1193C1191.13 45.7996 1200.93 34.6469 1214.95 31.7625C1216.12 31.5189 1217.32 31.3825 1218.63 31.1778L1218.64 31.1681Z" fill=""/>
    <path d="M28.6409 90.1681C27.6792 89.5347 26.6346 89.598 25.6876 89.4324C11.507 86.9329 1.11929 75.5317 0.0502537 61.251C-0.105952 59.1413 -0.0180959 59.0292 2.11509 59.0292C21.47 59.0292 40.8249 59.039 60.1798 59C61.4734 59 61.8981 59.3118 61.8688 60.6809C61.6199 74.3136 50.6318 86.9573 36.8514 89.3788C35.6799 89.5834 34.4986 89.7734 33.3221 90.0853C36.993 90.6261 40.5906 91.3715 43.9295 92.9891C54.0781 97.9102 60.0383 105.964 61.7321 117.097C62.3228 120.976 62.2252 120.985 58.3884 120.99C39.5362 120.99 20.6841 120.995 1.83199 121C0.0502655 121 -0.0913176 120.849 0.0404813 119.119C1.13392 104.8 10.9261 93.6469 24.9456 90.7625C26.122 90.5189 27.3229 90.3825 28.6311 90.1778L28.6409 90.1681Z" fill=""/>
    <path d="M92.1028 90.1681C91.1257 89.5347 90.0642 89.598 89.1019 89.4324C74.6926 86.9329 64.1373 75.5317 63.0511 61.251C62.8923 59.1413 62.9816 59.0292 65.1492 59.0292C84.8163 59.0292 104.483 59.039 124.15 59C125.465 59 125.896 59.3118 125.867 60.6809C125.614 74.3136 114.448 86.9573 100.446 89.3788C99.2554 89.5834 98.055 89.7734 96.8596 90.0853C100.59 90.6261 104.245 91.3715 107.638 92.9891C117.95 97.9102 124.007 105.964 125.728 117.097C126.328 120.976 126.229 120.985 122.33 120.99C103.174 120.99 84.0177 120.995 64.8615 121C63.0511 121 62.9072 120.849 63.0411 119.119C64.1522 104.8 74.1023 93.6469 88.348 90.7625C89.5434 90.5189 90.7636 90.3825 92.0929 90.1778L92.1028 90.1681Z" fill=""/>
    <path d="M155.103 90.1681C154.126 89.5347 153.064 89.598 152.102 89.4324C137.693 86.9329 127.137 75.5317 126.051 61.251C125.892 59.1413 125.982 59.0292 128.149 59.0292C147.816 59.0292 167.483 59.039 187.15 59C188.465 59 188.896 59.3118 188.867 60.6809C188.614 74.3136 177.448 86.9573 163.446 89.3788C162.255 89.5834 161.055 89.7734 159.86 90.0853C163.59 90.6261 167.245 91.3715 170.638 92.9891C180.95 97.9102 187.007 105.964 188.728 117.097C189.328 120.976 189.229 120.985 185.33 120.99C166.174 120.99 147.018 120.995 127.862 121C126.051 121 125.907 120.849 126.041 119.119C127.152 104.8 137.102 93.6469 151.348 90.7625C152.543 90.5189 153.764 90.3825 155.093 90.1778L155.103 90.1681Z" fill=""/>
    <path d="M217.641 90.1681C216.679 89.5347 215.635 89.598 214.688 89.4324C200.507 86.9329 190.119 75.5317 189.05 61.251C188.894 59.1413 188.982 59.0292 191.115 59.0292C210.47 59.0292 229.825 59.039 249.18 59C250.473 59 250.898 59.3118 250.869 60.6809C250.62 74.3136 239.632 86.9573 225.851 89.3788C224.68 89.5834 223.499 89.7734 222.322 90.0853C225.993 90.6261 229.591 91.3715 232.93 92.9891C243.078 97.9102 249.038 105.964 250.732 117.097C251.323 120.976 251.225 120.985 247.388 120.99C228.536 120.99 209.684 120.995 190.832 121C189.05 121 188.909 120.849 189.04 119.119C190.134 104.8 199.926 93.6469 213.946 90.7625C215.122 90.5189 216.323 90.3825 217.631 90.1778L217.641 90.1681Z" fill=""/>
    <path d="M280.103 90.1681C279.126 89.5347 278.064 89.598 277.102 89.4324C262.693 86.9329 252.137 75.5317 251.051 61.251C250.892 59.1413 250.982 59.0292 253.149 59.0292C272.816 59.0292 292.483 59.039 312.15 59C313.465 59 313.896 59.3118 313.867 60.6809C313.614 74.3136 302.448 86.9573 288.446 89.3788C287.255 89.5834 286.055 89.7734 284.86 90.0853C288.59 90.6261 292.245 91.3715 295.638 92.9891C305.95 97.9102 312.007 105.964 313.728 117.097C314.328 120.976 314.229 120.985 310.33 120.99C291.174 120.99 272.018 120.995 252.862 121C251.051 121 250.907 120.849 251.041 119.119C252.152 104.8 262.102 93.6469 276.348 90.7625C277.543 90.5189 278.764 90.3825 280.093 90.1778L280.103 90.1681Z" fill=""/>
    <path d="M342.641 90.1681C341.679 89.5347 340.635 89.598 339.688 89.4324C325.507 86.9329 315.119 75.5317 314.05 61.251C313.894 59.1413 313.982 59.0292 316.115 59.0292C335.47 59.0292 354.825 59.039 374.18 59C375.473 59 375.898 59.3118 375.869 60.6809C375.62 74.3136 364.632 86.9573 350.851 89.3788C349.68 89.5834 348.499 89.7734 347.322 90.0853C350.993 90.6261 354.591 91.3715 357.93 92.9891C368.078 97.9102 374.038 105.964 375.732 117.097C376.323 120.976 376.225 120.985 372.388 120.99C353.536 120.99 334.684 120.995 315.832 121C314.05 121 313.909 120.849 314.04 119.119C315.134 104.8 324.926 93.6469 338.946 90.7625C340.122 90.5189 341.323 90.3825 342.631 90.1778L342.641 90.1681Z" fill=""/>
    <path d="M404.641 90.1681C403.679 89.5347 402.635 89.598 401.688 89.4324C387.507 86.9329 377.119 75.5317 376.05 61.251C375.894 59.1413 375.982 59.0292 378.115 59.0292C397.47 59.0292 416.825 59.039 436.18 59C437.473 59 437.898 59.3118 437.869 60.6809C437.62 74.3136 426.632 86.9573 412.851 89.3788C411.68 89.5834 410.499 89.7734 409.322 90.0853C412.993 90.6261 416.591 91.3715 419.93 92.9891C430.078 97.9102 436.038 105.964 437.732 117.097C438.323 120.976 438.225 120.985 434.388 120.99C415.536 120.99 396.684 120.995 377.832 121C376.05 121 375.909 120.849 376.04 119.119C377.134 104.8 386.926 93.6469 400.946 90.7625C402.122 90.5189 403.323 90.3825 404.631 90.1778L404.641 90.1681Z" fill=""/>
    <path d="M467.103 90.1681C466.126 89.5347 465.064 89.598 464.102 89.4324C449.693 86.9329 439.137 75.5317 438.051 61.251C437.892 59.1413 437.982 59.0292 440.149 59.0292C459.816 59.0292 479.483 59.039 499.15 59C500.465 59 500.896 59.3118 500.867 60.6809C500.614 74.3136 489.448 86.9573 475.446 89.3788C474.255 89.5834 473.055 89.7734 471.86 90.0853C475.59 90.6261 479.245 91.3715 482.638 92.9891C492.95 97.9102 499.007 105.964 500.728 117.097C501.328 120.976 501.229 120.985 497.33 120.99C478.174 120.99 459.018 120.995 439.862 121C438.051 121 437.907 120.849 438.041 119.119C439.152 104.8 449.102 93.6469 463.348 90.7625C464.543 90.5189 465.764 90.3825 467.093 90.1778L467.103 90.1681Z" fill=""/>
    <path d="M530.103 90.1681C529.126 89.5347 528.064 89.598 527.102 89.4324C512.693 86.9329 502.137 75.5317 501.051 61.251C500.892 59.1413 500.982 59.0292 503.149 59.0292C522.816 59.0292 542.483 59.039 562.15 59C563.465 59 563.896 59.3118 563.867 60.6809C563.614 74.3136 552.448 86.9573 538.446 89.3788C537.255 89.5834 536.055 89.7734 534.86 90.0853C538.59 90.6261 542.245 91.3715 545.638 92.9891C555.95 97.9102 562.007 105.964 563.728 117.097C564.328 120.976 564.229 120.985 560.33 120.99C541.174 120.99 522.018 120.995 502.862 121C501.051 121 500.907 120.849 501.041 119.119C502.152 104.8 512.102 93.6469 526.348 90.7625C527.543 90.5189 528.764 90.3825 530.093 90.1778L530.103 90.1681Z" fill=""/>
    <path d="M593.103 90.1681C592.126 89.5347 591.064 89.598 590.102 89.4324C575.693 86.9329 565.137 75.5317 564.051 61.251C563.892 59.1413 563.982 59.0292 566.149 59.0292C585.816 59.0292 605.483 59.039 625.15 59C626.465 59 626.896 59.3118 626.867 60.6809C626.614 74.3136 615.448 86.9573 601.446 89.3788C600.255 89.5834 599.055 89.7734 597.86 90.0853C601.59 90.6261 605.245 91.3715 608.638 92.9891C618.95 97.9102 625.007 105.964 626.728 117.097C627.328 120.976 627.229 120.985 623.33 120.99C604.174 120.99 585.018 120.995 565.862 121C564.051 121 563.907 120.849 564.041 119.119C565.152 104.8 575.102 93.6469 589.348 90.7625C590.543 90.5189 591.764 90.3825 593.093 90.1778L593.103 90.1681Z" fill=""/>
    <path d="M655.641 90.1681C654.679 89.5347 653.635 89.598 652.688 89.4324C638.507 86.9329 628.119 75.5317 627.05 61.251C626.894 59.1413 626.982 59.0292 629.115 59.0292C648.47 59.0292 667.825 59.039 687.18 59C688.473 59 688.898 59.3118 688.869 60.6809C688.62 74.3136 677.632 86.9573 663.851 89.3788C662.68 89.5834 661.499 89.7734 660.322 90.0853C663.993 90.6261 667.591 91.3715 670.93 92.9891C681.078 97.9102 687.038 105.964 688.732 117.097C689.323 120.976 689.225 120.985 685.388 120.99C666.536 120.99 647.684 120.995 628.832 121C627.05 121 626.909 120.849 627.04 119.119C628.134 104.8 637.926 93.6469 651.946 90.7625C653.122 90.5189 654.323 90.3825 655.631 90.1778L655.641 90.1681Z" fill=""/>
    <path d="M718.103 90.1681C717.126 89.5347 716.064 89.598 715.102 89.4324C700.693 86.9329 690.137 75.5317 689.051 61.251C688.892 59.1413 688.982 59.0292 691.149 59.0292C710.816 59.0292 730.483 59.039 750.15 59C751.465 59 751.896 59.3118 751.867 60.6809C751.614 74.3136 740.448 86.9573 726.446 89.3788C725.255 89.5834 724.055 89.7734 722.86 90.0853C726.59 90.6261 730.245 91.3715 733.638 92.9891C743.95 97.9102 750.007 105.964 751.728 117.097C752.328 120.976 752.229 120.985 748.33 120.99C729.174 120.99 710.018 120.995 690.862 121C689.051 121 688.907 120.849 689.041 119.119C690.152 104.8 700.102 93.6469 714.348 90.7625C715.543 90.5189 716.764 90.3825 718.093 90.1778L718.103 90.1681Z" fill=""/>
    <path d="M781.103 90.1681C780.126 89.5347 779.064 89.598 778.102 89.4324C763.693 86.9329 753.137 75.5317 752.051 61.251C751.892 59.1413 751.982 59.0292 754.149 59.0292C773.816 59.0292 793.483 59.039 813.15 59C814.465 59 814.896 59.3118 814.867 60.6809C814.614 74.3136 803.448 86.9573 789.446 89.3788C788.255 89.5834 787.055 89.7734 785.86 90.0853C789.59 90.6261 793.245 91.3715 796.638 92.9891C806.95 97.9102 813.007 105.964 814.728 117.097C815.328 120.976 815.229 120.985 811.33 120.99C792.174 120.99 773.018 120.995 753.862 121C752.051 121 751.907 120.849 752.041 119.119C753.152 104.8 763.102 93.6469 777.348 90.7625C778.543 90.5189 779.764 90.3825 781.093 90.1778L781.103 90.1681Z" fill=""/>
    <path d="M843.641 90.1681C842.679 89.5347 841.635 89.598 840.688 89.4324C826.507 86.9329 816.119 75.5317 815.05 61.251C814.894 59.1413 814.982 59.0292 817.115 59.0292C836.47 59.0292 855.825 59.039 875.18 59C876.473 59 876.898 59.3118 876.869 60.6809C876.62 74.3136 865.632 86.9573 851.851 89.3788C850.68 89.5834 849.499 89.7734 848.322 90.0853C851.993 90.6261 855.591 91.3715 858.93 92.9891C869.078 97.9102 875.038 105.964 876.732 117.097C877.323 120.976 877.225 120.985 873.388 120.99C854.536 120.99 835.684 120.995 816.832 121C815.05 121 814.909 120.849 815.04 119.119C816.134 104.8 825.926 93.6469 839.946 90.7625C841.122 90.5189 842.323 90.3825 843.631 90.1778L843.641 90.1681Z" fill=""/>
    <path d="M906.103 90.1681C905.126 89.5347 904.064 89.598 903.102 89.4324C888.693 86.9329 878.137 75.5317 877.051 61.251C876.892 59.1413 876.982 59.0292 879.149 59.0292C898.816 59.0292 918.483 59.039 938.15 59C939.465 59 939.896 59.3118 939.867 60.6809C939.614 74.3136 928.448 86.9573 914.446 89.3788C913.255 89.5834 912.055 89.7734 910.86 90.0853C914.59 90.6261 918.245 91.3715 921.638 92.9891C931.95 97.9102 938.007 105.964 939.728 117.097C940.328 120.976 940.229 120.985 936.33 120.99C917.174 120.99 898.018 120.995 878.862 121C877.051 121 876.907 120.849 877.041 119.119C878.152 104.8 888.102 93.6469 902.348 90.7625C903.543 90.5189 904.764 90.3825 906.093 90.1778L906.103 90.1681Z" fill=""/>
    <path d="M968.641 90.1681C967.679 89.5347 966.635 89.598 965.688 89.4324C951.507 86.9329 941.119 75.5317 940.05 61.251C939.894 59.1413 939.982 59.0292 942.115 59.0292C961.47 59.0292 980.825 59.039 1000.18 59C1001.47 59 1001.9 59.3118 1001.87 60.6809C1001.62 74.3136 990.632 86.9573 976.851 89.3788C975.68 89.5834 974.499 89.7734 973.322 90.0853C976.993 90.6261 980.591 91.3715 983.93 92.9891C994.078 97.9102 1000.04 105.964 1001.73 117.097C1002.32 120.976 1002.23 120.985 998.388 120.99C979.536 120.99 960.684 120.995 941.832 121C940.05 121 939.909 120.849 940.04 119.119C941.134 104.8 950.926 93.6469 964.946 90.7625C966.122 90.5189 967.323 90.3825 968.631 90.1778L968.641 90.1681Z" fill=""/>
    <path d="M1030.64 90.1681C1029.68 89.5347 1028.63 89.598 1027.69 89.4324C1013.51 86.9329 1003.12 75.5317 1002.05 61.251C1001.89 59.1413 1001.98 59.0292 1004.12 59.0292C1023.47 59.0292 1042.82 59.039 1062.18 59C1063.47 59 1063.9 59.3118 1063.87 60.6809C1063.62 74.3136 1052.63 86.9573 1038.85 89.3788C1037.68 89.5834 1036.5 89.7734 1035.32 90.0853C1038.99 90.6261 1042.59 91.3715 1045.93 92.9891C1056.08 97.9102 1062.04 105.964 1063.73 117.097C1064.32 120.976 1064.23 120.985 1060.39 120.99C1041.54 120.99 1022.68 120.995 1003.83 121C1002.05 121 1001.91 120.849 1002.04 119.119C1003.13 104.8 1012.93 93.6469 1026.95 90.7625C1028.12 90.5189 1029.32 90.3825 1030.63 90.1778L1030.64 90.1681Z" fill=""/>
    <path d="M1093.1 90.1681C1092.13 89.5347 1091.06 89.598 1090.1 89.4324C1075.69 86.9329 1065.14 75.5317 1064.05 61.251C1063.89 59.1413 1063.98 59.0292 1066.15 59.0292C1085.82 59.0292 1105.48 59.039 1125.15 59C1126.46 59 1126.9 59.3118 1126.87 60.6809C1126.61 74.3136 1115.45 86.9573 1101.45 89.3788C1100.26 89.5834 1099.06 89.7734 1097.86 90.0853C1101.59 90.6261 1105.25 91.3715 1108.64 92.9891C1118.95 97.9102 1125.01 105.964 1126.73 117.097C1127.33 120.976 1127.23 120.985 1123.33 120.99C1104.17 120.99 1085.02 120.995 1065.86 121C1064.05 121 1063.91 120.849 1064.04 119.119C1065.15 104.8 1075.1 93.6469 1089.35 90.7625C1090.54 90.5189 1091.76 90.3825 1093.09 90.1778L1093.1 90.1681Z" fill=""/>
    <path d="M1156.1 90.1681C1155.13 89.5347 1154.06 89.598 1153.1 89.4324C1138.69 86.9329 1128.14 75.5317 1127.05 61.251C1126.89 59.1413 1126.98 59.0292 1129.15 59.0292C1148.82 59.0292 1168.48 59.039 1188.15 59C1189.46 59 1189.9 59.3118 1189.87 60.6809C1189.61 74.3136 1178.45 86.9573 1164.45 89.3788C1163.26 89.5834 1162.06 89.7734 1160.86 90.0853C1164.59 90.6261 1168.25 91.3715 1171.64 92.9891C1181.95 97.9102 1188.01 105.964 1189.73 117.097C1190.33 120.976 1190.23 120.985 1186.33 120.99C1167.17 120.99 1148.02 120.995 1128.86 121C1127.05 121 1126.91 120.849 1127.04 119.119C1128.15 104.8 1138.1 93.6469 1152.35 90.7625C1153.54 90.5189 1154.76 90.3825 1156.09 90.1778L1156.1 90.1681Z" fill=""/>
    <path d="M1218.64 90.1681C1217.68 89.5347 1216.63 89.598 1215.69 89.4324C1201.51 86.9329 1191.12 75.5317 1190.05 61.251C1189.89 59.1413 1189.98 59.0292 1192.12 59.0292C1211.47 59.0292 1230.82 59.039 1250.18 59C1251.47 59 1251.9 59.3118 1251.87 60.6809C1251.62 74.3136 1240.63 86.9573 1226.85 89.3788C1225.68 89.5834 1224.5 89.7734 1223.32 90.0853C1226.99 90.6261 1230.59 91.3715 1233.93 92.9891C1244.08 97.9102 1250.04 105.964 1251.73 117.097C1252.32 120.976 1252.23 120.985 1248.39 120.99C1229.54 120.99 1210.68 120.995 1191.83 121C1190.05 121 1189.91 120.849 1190.04 119.119C1191.13 104.8 1200.93 93.6469 1214.95 90.7625C1216.12 90.5189 1217.32 90.3825 1218.63 90.1778L1218.64 90.1681Z" fill=""/>
    <path d="M28.6409 150.168C27.6792 149.535 26.6346 149.598 25.6876 149.432C11.507 146.933 1.11929 135.532 0.0502537 121.251C-0.105952 119.141 -0.0180959 119.029 2.11509 119.029C21.47 119.029 40.8249 119.039 60.1798 119C61.4734 119 61.8981 119.312 61.8688 120.681C61.6199 134.314 50.6318 146.957 36.8514 149.379C35.6799 149.583 34.4986 149.773 33.3221 150.085C36.993 150.626 40.5906 151.372 43.9295 152.989C54.0781 157.91 60.0383 165.964 61.7321 177.097C62.3228 180.976 62.2252 180.985 58.3884 180.99C39.5362 180.99 20.6841 180.995 1.83199 181C0.0502655 181 -0.0913176 180.849 0.0404813 179.119C1.13392 164.8 10.9261 153.647 24.9456 150.763C26.122 150.519 27.3229 150.382 28.6311 150.178L28.6409 150.168Z" fill=""/>
    <path d="M92.1028 150.168C91.1257 149.535 90.0642 149.598 89.1019 149.432C74.6926 146.933 64.1373 135.532 63.0511 121.251C62.8923 119.141 62.9816 119.029 65.1492 119.029C84.8163 119.029 104.483 119.039 124.15 119C125.465 119 125.896 119.312 125.867 120.681C125.614 134.314 114.448 146.957 100.446 149.379C99.2554 149.583 98.055 149.773 96.8596 150.085C100.59 150.626 104.245 151.372 107.638 152.989C117.95 157.91 124.007 165.964 125.728 177.097C126.328 180.976 126.229 180.985 122.33 180.99C103.174 180.99 84.0177 180.995 64.8615 181C63.0511 181 62.9072 180.849 63.0411 179.119C64.1522 164.8 74.1023 153.647 88.348 150.763C89.5434 150.519 90.7636 150.382 92.0929 150.178L92.1028 150.168Z" fill=""/>
    <path d="M155.103 150.168C154.126 149.535 153.064 149.598 152.102 149.432C137.693 146.933 127.137 135.532 126.051 121.251C125.892 119.141 125.982 119.029 128.149 119.029C147.816 119.029 167.483 119.039 187.15 119C188.465 119 188.896 119.312 188.867 120.681C188.614 134.314 177.448 146.957 163.446 149.379C162.255 149.583 161.055 149.773 159.86 150.085C163.59 150.626 167.245 151.372 170.638 152.989C180.95 157.91 187.007 165.964 188.728 177.097C189.328 180.976 189.229 180.985 185.33 180.99C166.174 180.99 147.018 180.995 127.862 181C126.051 181 125.907 180.849 126.041 179.119C127.152 164.8 137.102 153.647 151.348 150.763C152.543 150.519 153.764 150.382 155.093 150.178L155.103 150.168Z" fill=""/>
    <path d="M217.641 150.168C216.679 149.535 215.635 149.598 214.688 149.432C200.507 146.933 190.119 135.532 189.05 121.251C188.894 119.141 188.982 119.029 191.115 119.029C210.47 119.029 229.825 119.039 249.18 119C250.473 119 250.898 119.312 250.869 120.681C250.62 134.314 239.632 146.957 225.851 149.379C224.68 149.583 223.499 149.773 222.322 150.085C225.993 150.626 229.591 151.372 232.93 152.989C243.078 157.91 249.038 165.964 250.732 177.097C251.323 180.976 251.225 180.985 247.388 180.99C228.536 180.99 209.684 180.995 190.832 181C189.05 181 188.909 180.849 189.04 179.119C190.134 164.8 199.926 153.647 213.946 150.763C215.122 150.519 216.323 150.382 217.631 150.178L217.641 150.168Z" fill=""/>
    <path d="M280.103 150.168C279.126 149.535 278.064 149.598 277.102 149.432C262.693 146.933 252.137 135.532 251.051 121.251C250.892 119.141 250.982 119.029 253.149 119.029C272.816 119.029 292.483 119.039 312.15 119C313.465 119 313.896 119.312 313.867 120.681C313.614 134.314 302.448 146.957 288.446 149.379C287.255 149.583 286.055 149.773 284.86 150.085C288.59 150.626 292.245 151.372 295.638 152.989C305.95 157.91 312.007 165.964 313.728 177.097C314.328 180.976 314.229 180.985 310.33 180.99C291.174 180.99 272.018 180.995 252.862 181C251.051 181 250.907 180.849 251.041 179.119C252.152 164.8 262.102 153.647 276.348 150.763C277.543 150.519 278.764 150.382 280.093 150.178L280.103 150.168Z" fill=""/>
    <path d="M342.641 150.168C341.679 149.535 340.635 149.598 339.688 149.432C325.507 146.933 315.119 135.532 314.05 121.251C313.894 119.141 313.982 119.029 316.115 119.029C335.47 119.029 354.825 119.039 374.18 119C375.473 119 375.898 119.312 375.869 120.681C375.62 134.314 364.632 146.957 350.851 149.379C349.68 149.583 348.499 149.773 347.322 150.085C350.993 150.626 354.591 151.372 357.93 152.989C368.078 157.91 374.038 165.964 375.732 177.097C376.323 180.976 376.225 180.985 372.388 180.99C353.536 180.99 334.684 180.995 315.832 181C314.05 181 313.909 180.849 314.04 179.119C315.134 164.8 324.926 153.647 338.946 150.763C340.122 150.519 341.323 150.382 342.631 150.178L342.641 150.168Z" fill=""/>
    <path d="M404.641 150.168C403.679 149.535 402.635 149.598 401.688 149.432C387.507 146.933 377.119 135.532 376.05 121.251C375.894 119.141 375.982 119.029 378.115 119.029C397.47 119.029 416.825 119.039 436.18 119C437.473 119 437.898 119.312 437.869 120.681C437.62 134.314 426.632 146.957 412.851 149.379C411.68 149.583 410.499 149.773 409.322 150.085C412.993 150.626 416.591 151.372 419.93 152.989C430.078 157.91 436.038 165.964 437.732 177.097C438.323 180.976 438.225 180.985 434.388 180.99C415.536 180.99 396.684 180.995 377.832 181C376.05 181 375.909 180.849 376.04 179.119C377.134 164.8 386.926 153.647 400.946 150.763C402.122 150.519 403.323 150.382 404.631 150.178L404.641 150.168Z" fill=""/>
    <path d="M467.103 150.168C466.126 149.535 465.064 149.598 464.102 149.432C449.693 146.933 439.137 135.532 438.051 121.251C437.892 119.141 437.982 119.029 440.149 119.029C459.816 119.029 479.483 119.039 499.15 119C500.465 119 500.896 119.312 500.867 120.681C500.614 134.314 489.448 146.957 475.446 149.379C474.255 149.583 473.055 149.773 471.86 150.085C475.59 150.626 479.245 151.372 482.638 152.989C492.95 157.91 499.007 165.964 500.728 177.097C501.328 180.976 501.229 180.985 497.33 180.99C478.174 180.99 459.018 180.995 439.862 181C438.051 181 437.907 180.849 438.041 179.119C439.152 164.8 449.102 153.647 463.348 150.763C464.543 150.519 465.764 150.382 467.093 150.178L467.103 150.168Z" fill=""/>
    <path d="M530.103 150.168C529.126 149.535 528.064 149.598 527.102 149.432C512.693 146.933 502.137 135.532 501.051 121.251C500.892 119.141 500.982 119.029 503.149 119.029C522.816 119.029 542.483 119.039 562.15 119C563.465 119 563.896 119.312 563.867 120.681C563.614 134.314 552.448 146.957 538.446 149.379C537.255 149.583 536.055 149.773 534.86 150.085C538.59 150.626 542.245 151.372 545.638 152.989C555.95 157.91 562.007 165.964 563.728 177.097C564.328 180.976 564.229 180.985 560.33 180.99C541.174 180.99 522.018 180.995 502.862 181C501.051 181 500.907 180.849 501.041 179.119C502.152 164.8 512.102 153.647 526.348 150.763C527.543 150.519 528.764 150.382 530.093 150.178L530.103 150.168Z" fill=""/>
    <path d="M593.103 150.168C592.126 149.535 591.064 149.598 590.102 149.432C575.693 146.933 565.137 135.532 564.051 121.251C563.892 119.141 563.982 119.029 566.149 119.029C585.816 119.029 605.483 119.039 625.15 119C626.465 119 626.896 119.312 626.867 120.681C626.614 134.314 615.448 146.957 601.446 149.379C600.255 149.583 599.055 149.773 597.86 150.085C601.59 150.626 605.245 151.372 608.638 152.989C618.95 157.91 625.007 165.964 626.728 177.097C627.328 180.976 627.229 180.985 623.33 180.99C604.174 180.99 585.018 180.995 565.862 181C564.051 181 563.907 180.849 564.041 179.119C565.152 164.8 575.102 153.647 589.348 150.763C590.543 150.519 591.764 150.382 593.093 150.178L593.103 150.168Z" fill=""/>
    <path d="M655.641 150.168C654.679 149.535 653.635 149.598 652.688 149.432C638.507 146.933 628.119 135.532 627.05 121.251C626.894 119.141 626.982 119.029 629.115 119.029C648.47 119.029 667.825 119.039 687.18 119C688.473 119 688.898 119.312 688.869 120.681C688.62 134.314 677.632 146.957 663.851 149.379C662.68 149.583 661.499 149.773 660.322 150.085C663.993 150.626 667.591 151.372 670.93 152.989C681.078 157.91 687.038 165.964 688.732 177.097C689.323 180.976 689.225 180.985 685.388 180.99C666.536 180.99 647.684 180.995 628.832 181C627.05 181 626.909 180.849 627.04 179.119C628.134 164.8 637.926 153.647 651.946 150.763C653.122 150.519 654.323 150.382 655.631 150.178L655.641 150.168Z" fill=""/>
    <path d="M718.103 150.168C717.126 149.535 716.064 149.598 715.102 149.432C700.693 146.933 690.137 135.532 689.051 121.251C688.892 119.141 688.982 119.029 691.149 119.029C710.816 119.029 730.483 119.039 750.15 119C751.465 119 751.896 119.312 751.867 120.681C751.614 134.314 740.448 146.957 726.446 149.379C725.255 149.583 724.055 149.773 722.86 150.085C726.59 150.626 730.245 151.372 733.638 152.989C743.95 157.91 750.007 165.964 751.728 177.097C752.328 180.976 752.229 180.985 748.33 180.99C729.174 180.99 710.018 180.995 690.862 181C689.051 181 688.907 180.849 689.041 179.119C690.152 164.8 700.102 153.647 714.348 150.763C715.543 150.519 716.764 150.382 718.093 150.178L718.103 150.168Z" fill=""/>
    <path d="M781.103 150.168C780.126 149.535 779.064 149.598 778.102 149.432C763.693 146.933 753.137 135.532 752.051 121.251C751.892 119.141 751.982 119.029 754.149 119.029C773.816 119.029 793.483 119.039 813.15 119C814.465 119 814.896 119.312 814.867 120.681C814.614 134.314 803.448 146.957 789.446 149.379C788.255 149.583 787.055 149.773 785.86 150.085C789.59 150.626 793.245 151.372 796.638 152.989C806.95 157.91 813.007 165.964 814.728 177.097C815.328 180.976 815.229 180.985 811.33 180.99C792.174 180.99 773.018 180.995 753.862 181C752.051 181 751.907 180.849 752.041 179.119C753.152 164.8 763.102 153.647 777.348 150.763C778.543 150.519 779.764 150.382 781.093 150.178L781.103 150.168Z" fill=""/>
    <path d="M843.641 150.168C842.679 149.535 841.635 149.598 840.688 149.432C826.507 146.933 816.119 135.532 815.05 121.251C814.894 119.141 814.982 119.029 817.115 119.029C836.47 119.029 855.825 119.039 875.18 119C876.473 119 876.898 119.312 876.869 120.681C876.62 134.314 865.632 146.957 851.851 149.379C850.68 149.583 849.499 149.773 848.322 150.085C851.993 150.626 855.591 151.372 858.93 152.989C869.078 157.91 875.038 165.964 876.732 177.097C877.323 180.976 877.225 180.985 873.388 180.99C854.536 180.99 835.684 180.995 816.832 181C815.05 181 814.909 180.849 815.04 179.119C816.134 164.8 825.926 153.647 839.946 150.763C841.122 150.519 842.323 150.382 843.631 150.178L843.641 150.168Z" fill=""/>
    <path d="M906.103 150.168C905.126 149.535 904.064 149.598 903.102 149.432C888.693 146.933 878.137 135.532 877.051 121.251C876.892 119.141 876.982 119.029 879.149 119.029C898.816 119.029 918.483 119.039 938.15 119C939.465 119 939.896 119.312 939.867 120.681C939.614 134.314 928.448 146.957 914.446 149.379C913.255 149.583 912.055 149.773 910.86 150.085C914.59 150.626 918.245 151.372 921.638 152.989C931.95 157.91 938.007 165.964 939.728 177.097C940.328 180.976 940.229 180.985 936.33 180.99C917.174 180.99 898.018 180.995 878.862 181C877.051 181 876.907 180.849 877.041 179.119C878.152 164.8 888.102 153.647 902.348 150.763C903.543 150.519 904.764 150.382 906.093 150.178L906.103 150.168Z" fill=""/>
    <path d="M968.641 150.168C967.679 149.535 966.635 149.598 965.688 149.432C951.507 146.933 941.119 135.532 940.05 121.251C939.894 119.141 939.982 119.029 942.115 119.029C961.47 119.029 980.825 119.039 1000.18 119C1001.47 119 1001.9 119.312 1001.87 120.681C1001.62 134.314 990.632 146.957 976.851 149.379C975.68 149.583 974.499 149.773 973.322 150.085C976.993 150.626 980.591 151.372 983.93 152.989C994.078 157.91 1000.04 165.964 1001.73 177.097C1002.32 180.976 1002.23 180.985 998.388 180.99C979.536 180.99 960.684 180.995 941.832 181C940.05 181 939.909 180.849 940.04 179.119C941.134 164.8 950.926 153.647 964.946 150.763C966.122 150.519 967.323 150.382 968.631 150.178L968.641 150.168Z" fill=""/>
    <path d="M1030.64 150.168C1029.68 149.535 1028.63 149.598 1027.69 149.432C1013.51 146.933 1003.12 135.532 1002.05 121.251C1001.89 119.141 1001.98 119.029 1004.12 119.029C1023.47 119.029 1042.82 119.039 1062.18 119C1063.47 119 1063.9 119.312 1063.87 120.681C1063.62 134.314 1052.63 146.957 1038.85 149.379C1037.68 149.583 1036.5 149.773 1035.32 150.085C1038.99 150.626 1042.59 151.372 1045.93 152.989C1056.08 157.91 1062.04 165.964 1063.73 177.097C1064.32 180.976 1064.23 180.985 1060.39 180.99C1041.54 180.99 1022.68 180.995 1003.83 181C1002.05 181 1001.91 180.849 1002.04 179.119C1003.13 164.8 1012.93 153.647 1026.95 150.763C1028.12 150.519 1029.32 150.382 1030.63 150.178L1030.64 150.168Z" fill=""/>
    <path d="M1093.1 150.168C1092.13 149.535 1091.06 149.598 1090.1 149.432C1075.69 146.933 1065.14 135.532 1064.05 121.251C1063.89 119.141 1063.98 119.029 1066.15 119.029C1085.82 119.029 1105.48 119.039 1125.15 119C1126.46 119 1126.9 119.312 1126.87 120.681C1126.61 134.314 1115.45 146.957 1101.45 149.379C1100.26 149.583 1099.06 149.773 1097.86 150.085C1101.59 150.626 1105.25 151.372 1108.64 152.989C1118.95 157.91 1125.01 165.964 1126.73 177.097C1127.33 180.976 1127.23 180.985 1123.33 180.99C1104.17 180.99 1085.02 180.995 1065.86 181C1064.05 181 1063.91 180.849 1064.04 179.119C1065.15 164.8 1075.1 153.647 1089.35 150.763C1090.54 150.519 1091.76 150.382 1093.09 150.178L1093.1 150.168Z" fill=""/>
    <path d="M1156.1 150.168C1155.13 149.535 1154.06 149.598 1153.1 149.432C1138.69 146.933 1128.14 135.532 1127.05 121.251C1126.89 119.141 1126.98 119.029 1129.15 119.029C1148.82 119.029 1168.48 119.039 1188.15 119C1189.46 119 1189.9 119.312 1189.87 120.681C1189.61 134.314 1178.45 146.957 1164.45 149.379C1163.26 149.583 1162.06 149.773 1160.86 150.085C1164.59 150.626 1168.25 151.372 1171.64 152.989C1181.95 157.91 1188.01 165.964 1189.73 177.097C1190.33 180.976 1190.23 180.985 1186.33 180.99C1167.17 180.99 1148.02 180.995 1128.86 181C1127.05 181 1126.91 180.849 1127.04 179.119C1128.15 164.8 1138.1 153.647 1152.35 150.763C1153.54 150.519 1154.76 150.382 1156.09 150.178L1156.1 150.168Z" fill=""/>
    <path d="M1218.64 150.168C1217.68 149.535 1216.63 149.598 1215.69 149.432C1201.51 146.933 1191.12 135.532 1190.05 121.251C1189.89 119.141 1189.98 119.029 1192.12 119.029C1211.47 119.029 1230.82 119.039 1250.18 119C1251.47 119 1251.9 119.312 1251.87 120.681C1251.62 134.314 1240.63 146.957 1226.85 149.379C1225.68 149.583 1224.5 149.773 1223.32 150.085C1226.99 150.626 1230.59 151.372 1233.93 152.989C1244.08 157.91 1250.04 165.964 1251.73 177.097C1252.32 180.976 1252.23 180.985 1248.39 180.99C1229.54 180.99 1210.68 180.995 1191.83 181C1190.05 181 1189.91 180.849 1190.04 179.119C1191.13 164.8 1200.93 153.647 1214.95 150.763C1216.12 150.519 1217.32 150.382 1218.63 150.178L1218.64 150.168Z" fill=""/>
</svg>
