<svg width="1252" height="306" viewBox="0 0 1252 306" fill="#101010" xmlns="http://www.w3.org/2000/svg">
    <path d="M28.6409 31.1681C27.6792 30.5347 26.6346 30.598 25.6876 30.4324C11.507 27.9329 1.11929 16.5317 0.0502537 2.251C-0.105952 0.141294 -0.0180959 0.0292326 2.11509 0.0292326C21.47 0.0292326 40.8249 0.0389784 60.1798 0C61.4734 0 61.8981 0.311818 61.8688 1.68093C61.6199 15.3136 50.6318 27.9573 36.8514 30.3788C35.6799 30.5834 34.4986 30.7734 33.3221 31.0853C36.993 31.6261 40.5906 32.3715 43.9295 33.9891C54.0781 38.9102 60.0383 46.9641 61.7321 58.0973C62.3228 61.9756 62.2252 61.9854 58.3884 61.9902C39.5362 61.9902 20.6841 61.9951 1.83199 62C0.0502655 62 -0.0913176 61.8489 0.0404813 60.1193C1.13392 45.7996 10.9261 34.6469 24.9456 31.7625C26.122 31.5189 27.3229 31.3825 28.6311 31.1778L28.6409 31.1681Z" />
    <path d="M92.1028 31.1681C91.1257 30.5347 90.0642 30.598 89.1019 30.4324C74.6926 27.9329 64.1373 16.5317 63.0511 2.251C62.8923 0.141294 62.9816 0.0292326 65.1492 0.0292326C84.8163 0.0292326 104.483 0.0389784 124.15 0C125.465 0 125.896 0.311818 125.867 1.68093C125.614 15.3136 114.448 27.9573 100.446 30.3788C99.2554 30.5834 98.055 30.7734 96.8596 31.0853C100.59 31.6261 104.245 32.3715 107.638 33.9891C117.95 38.9102 124.007 46.9641 125.728 58.0973C126.328 61.9756 126.229 61.9854 122.33 61.9902C103.174 61.9902 84.0177 61.9951 64.8615 62C63.0511 62 62.9072 61.8489 63.0411 60.1193C64.1522 45.7996 74.1023 34.6469 88.348 31.7625C89.5434 31.5189 90.7636 31.3825 92.0929 31.1778L92.1028 31.1681Z" />
    <path d="M155.103 31.1681C154.126 30.5347 153.064 30.598 152.102 30.4324C137.693 27.9329 127.137 16.5317 126.051 2.251C125.892 0.141294 125.982 0.0292326 128.149 0.0292326C147.816 0.0292326 167.483 0.0389784 187.15 0C188.465 0 188.896 0.311818 188.867 1.68093C188.614 15.3136 177.448 27.9573 163.446 30.3788C162.255 30.5834 161.055 30.7734 159.86 31.0853C163.59 31.6261 167.245 32.3715 170.638 33.9891C180.95 38.9102 187.007 46.9641 188.728 58.0973C189.328 61.9756 189.229 61.9854 185.33 61.9902C166.174 61.9902 147.018 61.9951 127.862 62C126.051 62 125.907 61.8489 126.041 60.1193C127.152 45.7996 137.102 34.6469 151.348 31.7625C152.543 31.5189 153.764 31.3825 155.093 31.1778L155.103 31.1681Z" />
    <path d="M217.641 31.1681C216.679 30.5347 215.635 30.598 214.688 30.4324C200.507 27.9329 190.119 16.5317 189.05 2.251C188.894 0.141294 188.982 0.0292326 191.115 0.0292326C210.47 0.0292326 229.825 0.0389784 249.18 0C250.473 0 250.898 0.311818 250.869 1.68093C250.62 15.3136 239.632 27.9573 225.851 30.3788C224.68 30.5834 223.499 30.7734 222.322 31.0853C225.993 31.6261 229.591 32.3715 232.93 33.9891C243.078 38.9102 249.038 46.9641 250.732 58.0973C251.323 61.9756 251.225 61.9854 247.388 61.9902C228.536 61.9902 209.684 61.9951 190.832 62C189.05 62 188.909 61.8489 189.04 60.1193C190.134 45.7996 199.926 34.6469 213.946 31.7625C215.122 31.5189 216.323 31.3825 217.631 31.1778L217.641 31.1681Z" />
    <path d="M280.103 31.1681C279.126 30.5347 278.064 30.598 277.102 30.4324C262.693 27.9329 252.137 16.5317 251.051 2.251C250.892 0.141294 250.982 0.0292326 253.149 0.0292326C272.816 0.0292326 292.483 0.0389784 312.15 0C313.465 0 313.896 0.311818 313.867 1.68093C313.614 15.3136 302.448 27.9573 288.446 30.3788C287.255 30.5834 286.055 30.7734 284.86 31.0853C288.59 31.6261 292.245 32.3715 295.638 33.9891C305.95 38.9102 312.007 46.9641 313.728 58.0973C314.328 61.9756 314.229 61.9854 310.33 61.9902C291.174 61.9902 272.018 61.9951 252.862 62C251.051 62 250.907 61.8489 251.041 60.1193C252.152 45.7996 262.102 34.6469 276.348 31.7625C277.543 31.5189 278.764 31.3825 280.093 31.1778L280.103 31.1681Z" />
    <path d="M342.641 31.1681C341.679 30.5347 340.635 30.598 339.688 30.4324C325.507 27.9329 315.119 16.5317 314.05 2.251C313.894 0.141294 313.982 0.0292326 316.115 0.0292326C335.47 0.0292326 354.825 0.0389784 374.18 0C375.473 0 375.898 0.311818 375.869 1.68093C375.62 15.3136 364.632 27.9573 350.851 30.3788C349.68 30.5834 348.499 30.7734 347.322 31.0853C350.993 31.6261 354.591 32.3715 357.93 33.9891C368.078 38.9102 374.038 46.9641 375.732 58.0973C376.323 61.9756 376.225 61.9854 372.388 61.9902C353.536 61.9902 334.684 61.9951 315.832 62C314.05 62 313.909 61.8489 314.04 60.1193C315.134 45.7996 324.926 34.6469 338.946 31.7625C340.122 31.5189 341.323 31.3825 342.631 31.1778L342.641 31.1681Z" />
    <path d="M404.641 31.1681C403.679 30.5347 402.635 30.598 401.688 30.4324C387.507 27.9329 377.119 16.5317 376.05 2.251C375.894 0.141294 375.982 0.0292326 378.115 0.0292326C397.47 0.0292326 416.825 0.0389784 436.18 0C437.473 0 437.898 0.311818 437.869 1.68093C437.62 15.3136 426.632 27.9573 412.851 30.3788C411.68 30.5834 410.499 30.7734 409.322 31.0853C412.993 31.6261 416.591 32.3715 419.93 33.9891C430.078 38.9102 436.038 46.9641 437.732 58.0973C438.323 61.9756 438.225 61.9854 434.388 61.9902C415.536 61.9902 396.684 61.9951 377.832 62C376.05 62 375.909 61.8489 376.04 60.1193C377.134 45.7996 386.926 34.6469 400.946 31.7625C402.122 31.5189 403.323 31.3825 404.631 31.1778L404.641 31.1681Z" />
    <path d="M467.103 31.1681C466.126 30.5347 465.064 30.598 464.102 30.4324C449.693 27.9329 439.137 16.5317 438.051 2.251C437.892 0.141294 437.982 0.0292326 440.149 0.0292326C459.816 0.0292326 479.483 0.0389784 499.15 0C500.465 0 500.896 0.311818 500.867 1.68093C500.614 15.3136 489.448 27.9573 475.446 30.3788C474.255 30.5834 473.055 30.7734 471.86 31.0853C475.59 31.6261 479.245 32.3715 482.638 33.9891C492.95 38.9102 499.007 46.9641 500.728 58.0973C501.328 61.9756 501.229 61.9854 497.33 61.9902C478.174 61.9902 459.018 61.9951 439.862 62C438.051 62 437.907 61.8489 438.041 60.1193C439.152 45.7996 449.102 34.6469 463.348 31.7625C464.543 31.5189 465.764 31.3825 467.093 31.1778L467.103 31.1681Z" />
    <path d="M530.103 31.1681C529.126 30.5347 528.064 30.598 527.102 30.4324C512.693 27.9329 502.137 16.5317 501.051 2.251C500.892 0.141294 500.982 0.0292326 503.149 0.0292326C522.816 0.0292326 542.483 0.0389784 562.15 0C563.465 0 563.896 0.311818 563.867 1.68093C563.614 15.3136 552.448 27.9573 538.446 30.3788C537.255 30.5834 536.055 30.7734 534.86 31.0853C538.59 31.6261 542.245 32.3715 545.638 33.9891C555.95 38.9102 562.007 46.9641 563.728 58.0973C564.328 61.9756 564.229 61.9854 560.33 61.9902C541.174 61.9902 522.018 61.9951 502.862 62C501.051 62 500.907 61.8489 501.041 60.1193C502.152 45.7996 512.102 34.6469 526.348 31.7625C527.543 31.5189 528.764 31.3825 530.093 31.1778L530.103 31.1681Z" />
    <path d="M593.103 31.1681C592.126 30.5347 591.064 30.598 590.102 30.4324C575.693 27.9329 565.137 16.5317 564.051 2.251C563.892 0.141294 563.982 0.0292326 566.149 0.0292326C585.816 0.0292326 605.483 0.0389784 625.15 0C626.465 0 626.896 0.311818 626.867 1.68093C626.614 15.3136 615.448 27.9573 601.446 30.3788C600.255 30.5834 599.055 30.7734 597.86 31.0853C601.59 31.6261 605.245 32.3715 608.638 33.9891C618.95 38.9102 625.007 46.9641 626.728 58.0973C627.328 61.9756 627.229 61.9854 623.33 61.9902C604.174 61.9902 585.018 61.9951 565.862 62C564.051 62 563.907 61.8489 564.041 60.1193C565.152 45.7996 575.102 34.6469 589.348 31.7625C590.543 31.5189 591.764 31.3825 593.093 31.1778L593.103 31.1681Z" />
    <path d="M655.641 31.1681C654.679 30.5347 653.635 30.598 652.688 30.4324C638.507 27.9329 628.119 16.5317 627.05 2.251C626.894 0.141294 626.982 0.0292326 629.115 0.0292326C648.47 0.0292326 667.825 0.0389784 687.18 0C688.473 0 688.898 0.311818 688.869 1.68093C688.62 15.3136 677.632 27.9573 663.851 30.3788C662.68 30.5834 661.499 30.7734 660.322 31.0853C663.993 31.6261 667.591 32.3715 670.93 33.9891C681.078 38.9102 687.038 46.9641 688.732 58.0973C689.323 61.9756 689.225 61.9854 685.388 61.9902C666.536 61.9902 647.684 61.9951 628.832 62C627.05 62 626.909 61.8489 627.04 60.1193C628.134 45.7996 637.926 34.6469 651.946 31.7625C653.122 31.5189 654.323 31.3825 655.631 31.1778L655.641 31.1681Z" />
    <path d="M718.103 31.1681C717.126 30.5347 716.064 30.598 715.102 30.4324C700.693 27.9329 690.137 16.5317 689.051 2.251C688.892 0.141294 688.982 0.0292326 691.149 0.0292326C710.816 0.0292326 730.483 0.0389784 750.15 0C751.465 0 751.896 0.311818 751.867 1.68093C751.614 15.3136 740.448 27.9573 726.446 30.3788C725.255 30.5834 724.055 30.7734 722.86 31.0853C726.59 31.6261 730.245 32.3715 733.638 33.9891C743.95 38.9102 750.007 46.9641 751.728 58.0973C752.328 61.9756 752.229 61.9854 748.33 61.9902C729.174 61.9902 710.018 61.9951 690.862 62C689.051 62 688.907 61.8489 689.041 60.1193C690.152 45.7996 700.102 34.6469 714.348 31.7625C715.543 31.5189 716.764 31.3825 718.093 31.1778L718.103 31.1681Z" />
    <path d="M781.103 31.1681C780.126 30.5347 779.064 30.598 778.102 30.4324C763.693 27.9329 753.137 16.5317 752.051 2.251C751.892 0.141294 751.982 0.0292326 754.149 0.0292326C773.816 0.0292326 793.483 0.0389784 813.15 0C814.465 0 814.896 0.311818 814.867 1.68093C814.614 15.3136 803.448 27.9573 789.446 30.3788C788.255 30.5834 787.055 30.7734 785.86 31.0853C789.59 31.6261 793.245 32.3715 796.638 33.9891C806.95 38.9102 813.007 46.9641 814.728 58.0973C815.328 61.9756 815.229 61.9854 811.33 61.9902C792.174 61.9902 773.018 61.9951 753.862 62C752.051 62 751.907 61.8489 752.041 60.1193C753.152 45.7996 763.102 34.6469 777.348 31.7625C778.543 31.5189 779.764 31.3825 781.093 31.1778L781.103 31.1681Z" />
    <path d="M843.641 31.1681C842.679 30.5347 841.635 30.598 840.688 30.4324C826.507 27.9329 816.119 16.5317 815.05 2.251C814.894 0.141294 814.982 0.0292326 817.115 0.0292326C836.47 0.0292326 855.825 0.0389784 875.18 0C876.473 0 876.898 0.311818 876.869 1.68093C876.62 15.3136 865.632 27.9573 851.851 30.3788C850.68 30.5834 849.499 30.7734 848.322 31.0853C851.993 31.6261 855.591 32.3715 858.93 33.9891C869.078 38.9102 875.038 46.9641 876.732 58.0973C877.323 61.9756 877.225 61.9854 873.388 61.9902C854.536 61.9902 835.684 61.9951 816.832 62C815.05 62 814.909 61.8489 815.04 60.1193C816.134 45.7996 825.926 34.6469 839.946 31.7625C841.122 31.5189 842.323 31.3825 843.631 31.1778L843.641 31.1681Z" />
    <path d="M906.103 31.1681C905.126 30.5347 904.064 30.598 903.102 30.4324C888.693 27.9329 878.137 16.5317 877.051 2.251C876.892 0.141294 876.982 0.0292326 879.149 0.0292326C898.816 0.0292326 918.483 0.0389784 938.15 0C939.465 0 939.896 0.311818 939.867 1.68093C939.614 15.3136 928.448 27.9573 914.446 30.3788C913.255 30.5834 912.055 30.7734 910.86 31.0853C914.59 31.6261 918.245 32.3715 921.638 33.9891C931.95 38.9102 938.007 46.9641 939.728 58.0973C940.328 61.9756 940.229 61.9854 936.33 61.9902C917.174 61.9902 898.018 61.9951 878.862 62C877.051 62 876.907 61.8489 877.041 60.1193C878.152 45.7996 888.102 34.6469 902.348 31.7625C903.543 31.5189 904.764 31.3825 906.093 31.1778L906.103 31.1681Z" />
    <path d="M968.641 31.1681C967.679 30.5347 966.635 30.598 965.688 30.4324C951.507 27.9329 941.119 16.5317 940.05 2.251C939.894 0.141294 939.982 0.0292326 942.115 0.0292326C961.47 0.0292326 980.825 0.0389784 1000.18 0C1001.47 0 1001.9 0.311818 1001.87 1.68093C1001.62 15.3136 990.632 27.9573 976.851 30.3788C975.68 30.5834 974.499 30.7734 973.322 31.0853C976.993 31.6261 980.591 32.3715 983.93 33.9891C994.078 38.9102 1000.04 46.9641 1001.73 58.0973C1002.32 61.9756 1002.23 61.9854 998.388 61.9902C979.536 61.9902 960.684 61.9951 941.832 62C940.05 62 939.909 61.8489 940.04 60.1193C941.134 45.7996 950.926 34.6469 964.946 31.7625C966.122 31.5189 967.323 31.3825 968.631 31.1778L968.641 31.1681Z" />
    <path d="M1030.64 31.1681C1029.68 30.5347 1028.63 30.598 1027.69 30.4324C1013.51 27.9329 1003.12 16.5317 1002.05 2.251C1001.89 0.141294 1001.98 0.0292326 1004.12 0.0292326C1023.47 0.0292326 1042.82 0.0389784 1062.18 0C1063.47 0 1063.9 0.311818 1063.87 1.68093C1063.62 15.3136 1052.63 27.9573 1038.85 30.3788C1037.68 30.5834 1036.5 30.7734 1035.32 31.0853C1038.99 31.6261 1042.59 32.3715 1045.93 33.9891C1056.08 38.9102 1062.04 46.9641 1063.73 58.0973C1064.32 61.9756 1064.23 61.9854 1060.39 61.9902C1041.54 61.9902 1022.68 61.9951 1003.83 62C1002.05 62 1001.91 61.8489 1002.04 60.1193C1003.13 45.7996 1012.93 34.6469 1026.95 31.7625C1028.12 31.5189 1029.32 31.3825 1030.63 31.1778L1030.64 31.1681Z" />
    <path d="M1093.1 31.1681C1092.13 30.5347 1091.06 30.598 1090.1 30.4324C1075.69 27.9329 1065.14 16.5317 1064.05 2.251C1063.89 0.141294 1063.98 0.0292326 1066.15 0.0292326C1085.82 0.0292326 1105.48 0.0389784 1125.15 0C1126.46 0 1126.9 0.311818 1126.87 1.68093C1126.61 15.3136 1115.45 27.9573 1101.45 30.3788C1100.26 30.5834 1099.06 30.7734 1097.86 31.0853C1101.59 31.6261 1105.25 32.3715 1108.64 33.9891C1118.95 38.9102 1125.01 46.9641 1126.73 58.0973C1127.33 61.9756 1127.23 61.9854 1123.33 61.9902C1104.17 61.9902 1085.02 61.9951 1065.86 62C1064.05 62 1063.91 61.849 1064.04 60.1193C1065.15 45.7996 1075.1 34.6469 1089.35 31.7625C1090.54 31.5189 1091.76 31.3825 1093.09 31.1778L1093.1 31.1681Z" />
    <path d="M1156.1 31.1681C1155.13 30.5347 1154.06 30.598 1153.1 30.4324C1138.69 27.9329 1128.14 16.5317 1127.05 2.251C1126.89 0.141294 1126.98 0.0292326 1129.15 0.0292326C1148.82 0.0292326 1168.48 0.0389784 1188.15 0C1189.46 0 1189.9 0.311818 1189.87 1.68093C1189.61 15.3136 1178.45 27.9573 1164.45 30.3788C1163.26 30.5834 1162.06 30.7734 1160.86 31.0853C1164.59 31.6261 1168.25 32.3715 1171.64 33.9891C1181.95 38.9102 1188.01 46.9641 1189.73 58.0973C1190.33 61.9756 1190.23 61.9854 1186.33 61.9902C1167.17 61.9902 1148.02 61.9951 1128.86 62C1127.05 62 1126.91 61.8489 1127.04 60.1193C1128.15 45.7996 1138.1 34.6469 1152.35 31.7625C1153.54 31.5189 1154.76 31.3825 1156.09 31.1778L1156.1 31.1681Z" />
    <path d="M1218.64 31.1681C1217.68 30.5347 1216.63 30.598 1215.69 30.4324C1201.51 27.9329 1191.12 16.5317 1190.05 2.251C1189.89 0.141294 1189.98 0.0292326 1192.12 0.0292326C1211.47 0.0292326 1230.82 0.0389784 1250.18 0C1251.47 0 1251.9 0.311818 1251.87 1.68093C1251.62 15.3136 1240.63 27.9573 1226.85 30.3788C1225.68 30.5834 1224.5 30.7734 1223.32 31.0853C1226.99 31.6261 1230.59 32.3715 1233.93 33.9891C1244.08 38.9102 1250.04 46.9641 1251.73 58.0973C1252.32 61.9756 1252.23 61.9854 1248.39 61.9902C1229.54 61.9902 1210.68 61.9951 1191.83 62C1190.05 62 1189.91 61.8489 1190.04 60.1193C1191.13 45.7996 1200.93 34.6469 1214.95 31.7625C1216.12 31.5189 1217.32 31.3825 1218.63 31.1778L1218.64 31.1681Z" />
    <path d="M28.6409 92.1681C27.6792 91.5347 26.6346 91.598 25.6876 91.4324C11.507 88.9329 1.11929 77.5317 0.0502537 63.251C-0.105952 61.1413 -0.0180959 61.0292 2.11509 61.0292C21.47 61.0292 40.8249 61.039 60.1798 61C61.4734 61 61.8981 61.3118 61.8688 62.6809C61.6199 76.3136 50.6318 88.9573 36.8514 91.3788C35.6799 91.5834 34.4986 91.7734 33.3221 92.0853C36.993 92.6261 40.5906 93.3715 43.9295 94.9891C54.0781 99.9102 60.0383 107.964 61.7321 119.097C62.3228 122.976 62.2252 122.985 58.3884 122.99C39.5362 122.99 20.6841 122.995 1.83199 123C0.0502655 123 -0.0913176 122.849 0.0404813 121.119C1.13392 106.8 10.9261 95.6469 24.9456 92.7625C26.122 92.5189 27.3229 92.3825 28.6311 92.1778L28.6409 92.1681Z" />
    <path d="M92.1028 92.1681C91.1257 91.5347 90.0642 91.598 89.1019 91.4324C74.6926 88.9329 64.1373 77.5317 63.0511 63.251C62.8923 61.1413 62.9816 61.0292 65.1492 61.0292C84.8163 61.0292 104.483 61.039 124.15 61C125.465 61 125.896 61.3118 125.867 62.6809C125.614 76.3136 114.448 88.9573 100.446 91.3788C99.2554 91.5834 98.055 91.7734 96.8596 92.0853C100.59 92.6261 104.245 93.3715 107.638 94.9891C117.95 99.9102 124.007 107.964 125.728 119.097C126.328 122.976 126.229 122.985 122.33 122.99C103.174 122.99 84.0177 122.995 64.8615 123C63.0511 123 62.9072 122.849 63.0411 121.119C64.1522 106.8 74.1023 95.6469 88.348 92.7625C89.5434 92.5189 90.7636 92.3825 92.0929 92.1778L92.1028 92.1681Z" />
    <path d="M155.103 92.1681C154.126 91.5347 153.064 91.598 152.102 91.4324C137.693 88.9329 127.137 77.5317 126.051 63.251C125.892 61.1413 125.982 61.0292 128.149 61.0292C147.816 61.0292 167.483 61.039 187.15 61C188.465 61 188.896 61.3118 188.867 62.6809C188.614 76.3136 177.448 88.9573 163.446 91.3788C162.255 91.5834 161.055 91.7734 159.86 92.0853C163.59 92.6261 167.245 93.3715 170.638 94.9891C180.95 99.9102 187.007 107.964 188.728 119.097C189.328 122.976 189.229 122.985 185.33 122.99C166.174 122.99 147.018 122.995 127.862 123C126.051 123 125.907 122.849 126.041 121.119C127.152 106.8 137.102 95.6469 151.348 92.7625C152.543 92.5189 153.764 92.3825 155.093 92.1778L155.103 92.1681Z" />
    <path d="M217.641 92.1681C216.679 91.5347 215.635 91.598 214.688 91.4324C200.507 88.9329 190.119 77.5317 189.05 63.251C188.894 61.1413 188.982 61.0292 191.115 61.0292C210.47 61.0292 229.825 61.039 249.18 61C250.473 61 250.898 61.3118 250.869 62.6809C250.62 76.3136 239.632 88.9573 225.851 91.3788C224.68 91.5834 223.499 91.7734 222.322 92.0853C225.993 92.6261 229.591 93.3715 232.93 94.9891C243.078 99.9102 249.038 107.964 250.732 119.097C251.323 122.976 251.225 122.985 247.388 122.99C228.536 122.99 209.684 122.995 190.832 123C189.05 123 188.909 122.849 189.04 121.119C190.134 106.8 199.926 95.6469 213.946 92.7625C215.122 92.5189 216.323 92.3825 217.631 92.1778L217.641 92.1681Z" />
    <path d="M280.103 92.1681C279.126 91.5347 278.064 91.598 277.102 91.4324C262.693 88.9329 252.137 77.5317 251.051 63.251C250.892 61.1413 250.982 61.0292 253.149 61.0292C272.816 61.0292 292.483 61.039 312.15 61C313.465 61 313.896 61.3118 313.867 62.6809C313.614 76.3136 302.448 88.9573 288.446 91.3788C287.255 91.5834 286.055 91.7734 284.86 92.0853C288.59 92.6261 292.245 93.3715 295.638 94.9891C305.95 99.9102 312.007 107.964 313.728 119.097C314.328 122.976 314.229 122.985 310.33 122.99C291.174 122.99 272.018 122.995 252.862 123C251.051 123 250.907 122.849 251.041 121.119C252.152 106.8 262.102 95.6469 276.348 92.7625C277.543 92.5189 278.764 92.3825 280.093 92.1778L280.103 92.1681Z" />
    <path d="M342.641 92.1681C341.679 91.5347 340.635 91.598 339.688 91.4324C325.507 88.9329 315.119 77.5317 314.05 63.251C313.894 61.1413 313.982 61.0292 316.115 61.0292C335.47 61.0292 354.825 61.039 374.18 61C375.473 61 375.898 61.3118 375.869 62.6809C375.62 76.3136 364.632 88.9573 350.851 91.3788C349.68 91.5834 348.499 91.7734 347.322 92.0853C350.993 92.6261 354.591 93.3715 357.93 94.9891C368.078 99.9102 374.038 107.964 375.732 119.097C376.323 122.976 376.225 122.985 372.388 122.99C353.536 122.99 334.684 122.995 315.832 123C314.05 123 313.909 122.849 314.04 121.119C315.134 106.8 324.926 95.6469 338.946 92.7625C340.122 92.5189 341.323 92.3825 342.631 92.1778L342.641 92.1681Z" />
    <path d="M404.641 92.1681C403.679 91.5347 402.635 91.598 401.688 91.4324C387.507 88.9329 377.119 77.5317 376.05 63.251C375.894 61.1413 375.982 61.0292 378.115 61.0292C397.47 61.0292 416.825 61.039 436.18 61C437.473 61 437.898 61.3118 437.869 62.6809C437.62 76.3136 426.632 88.9573 412.851 91.3788C411.68 91.5834 410.499 91.7734 409.322 92.0853C412.993 92.6261 416.591 93.3715 419.93 94.9891C430.078 99.9102 436.038 107.964 437.732 119.097C438.323 122.976 438.225 122.985 434.388 122.99C415.536 122.99 396.684 122.995 377.832 123C376.05 123 375.909 122.849 376.04 121.119C377.134 106.8 386.926 95.6469 400.946 92.7625C402.122 92.5189 403.323 92.3825 404.631 92.1778L404.641 92.1681Z" />
    <path d="M467.103 92.1681C466.126 91.5347 465.064 91.598 464.102 91.4324C449.693 88.9329 439.137 77.5317 438.051 63.251C437.892 61.1413 437.982 61.0292 440.149 61.0292C459.816 61.0292 479.483 61.039 499.15 61C500.465 61 500.896 61.3118 500.867 62.6809C500.614 76.3136 489.448 88.9573 475.446 91.3788C474.255 91.5834 473.055 91.7734 471.86 92.0853C475.59 92.6261 479.245 93.3715 482.638 94.9891C492.95 99.9102 499.007 107.964 500.728 119.097C501.328 122.976 501.229 122.985 497.33 122.99C478.174 122.99 459.018 122.995 439.862 123C438.051 123 437.907 122.849 438.041 121.119C439.152 106.8 449.102 95.6469 463.348 92.7625C464.543 92.5189 465.764 92.3825 467.093 92.1778L467.103 92.1681Z" />
    <path d="M530.103 92.1681C529.126 91.5347 528.064 91.598 527.102 91.4324C512.693 88.9329 502.137 77.5317 501.051 63.251C500.892 61.1413 500.982 61.0292 503.149 61.0292C522.816 61.0292 542.483 61.039 562.15 61C563.465 61 563.896 61.3118 563.867 62.6809C563.614 76.3136 552.448 88.9573 538.446 91.3788C537.255 91.5834 536.055 91.7734 534.86 92.0853C538.59 92.6261 542.245 93.3715 545.638 94.9891C555.95 99.9102 562.007 107.964 563.728 119.097C564.328 122.976 564.229 122.985 560.33 122.99C541.174 122.99 522.018 122.995 502.862 123C501.051 123 500.907 122.849 501.041 121.119C502.152 106.8 512.102 95.6469 526.348 92.7625C527.543 92.5189 528.764 92.3825 530.093 92.1778L530.103 92.1681Z" />
    <path d="M593.103 92.1681C592.126 91.5347 591.064 91.598 590.102 91.4324C575.693 88.9329 565.137 77.5317 564.051 63.251C563.892 61.1413 563.982 61.0292 566.149 61.0292C585.816 61.0292 605.483 61.039 625.15 61C626.465 61 626.896 61.3118 626.867 62.6809C626.614 76.3136 615.448 88.9573 601.446 91.3788C600.255 91.5834 599.055 91.7734 597.86 92.0853C601.59 92.6261 605.245 93.3715 608.638 94.9891C618.95 99.9102 625.007 107.964 626.728 119.097C627.328 122.976 627.229 122.985 623.33 122.99C604.174 122.99 585.018 122.995 565.862 123C564.051 123 563.907 122.849 564.041 121.119C565.152 106.8 575.102 95.6469 589.348 92.7625C590.543 92.5189 591.764 92.3825 593.093 92.1778L593.103 92.1681Z" />
    <path d="M655.641 92.1681C654.679 91.5347 653.635 91.598 652.688 91.4324C638.507 88.9329 628.119 77.5317 627.05 63.251C626.894 61.1413 626.982 61.0292 629.115 61.0292C648.47 61.0292 667.825 61.039 687.18 61C688.473 61 688.898 61.3118 688.869 62.6809C688.62 76.3136 677.632 88.9573 663.851 91.3788C662.68 91.5834 661.499 91.7734 660.322 92.0853C663.993 92.6261 667.591 93.3715 670.93 94.9891C681.078 99.9102 687.038 107.964 688.732 119.097C689.323 122.976 689.225 122.985 685.388 122.99C666.536 122.99 647.684 122.995 628.832 123C627.05 123 626.909 122.849 627.04 121.119C628.134 106.8 637.926 95.6469 651.946 92.7625C653.122 92.5189 654.323 92.3825 655.631 92.1778L655.641 92.1681Z" />
    <path d="M718.103 92.1681C717.126 91.5347 716.064 91.598 715.102 91.4324C700.693 88.9329 690.137 77.5317 689.051 63.251C688.892 61.1413 688.982 61.0292 691.149 61.0292C710.816 61.0292 730.483 61.039 750.15 61C751.465 61 751.896 61.3118 751.867 62.6809C751.614 76.3136 740.448 88.9573 726.446 91.3788C725.255 91.5834 724.055 91.7734 722.86 92.0853C726.59 92.6261 730.245 93.3715 733.638 94.9891C743.95 99.9102 750.007 107.964 751.728 119.097C752.328 122.976 752.229 122.985 748.33 122.99C729.174 122.99 710.018 122.995 690.862 123C689.051 123 688.907 122.849 689.041 121.119C690.152 106.8 700.102 95.6469 714.348 92.7625C715.543 92.5189 716.764 92.3825 718.093 92.1778L718.103 92.1681Z" />
    <path d="M781.103 92.1681C780.126 91.5347 779.064 91.598 778.102 91.4324C763.693 88.9329 753.137 77.5317 752.051 63.251C751.892 61.1413 751.982 61.0292 754.149 61.0292C773.816 61.0292 793.483 61.039 813.15 61C814.465 61 814.896 61.3118 814.867 62.6809C814.614 76.3136 803.448 88.9573 789.446 91.3788C788.255 91.5834 787.055 91.7734 785.86 92.0853C789.59 92.6261 793.245 93.3715 796.638 94.9891C806.95 99.9102 813.007 107.964 814.728 119.097C815.328 122.976 815.229 122.985 811.33 122.99C792.174 122.99 773.018 122.995 753.862 123C752.051 123 751.907 122.849 752.041 121.119C753.152 106.8 763.102 95.6469 777.348 92.7625C778.543 92.5189 779.764 92.3825 781.093 92.1778L781.103 92.1681Z" />
    <path d="M843.641 92.1681C842.679 91.5347 841.635 91.598 840.688 91.4324C826.507 88.9329 816.119 77.5317 815.05 63.251C814.894 61.1413 814.982 61.0292 817.115 61.0292C836.47 61.0292 855.825 61.039 875.18 61C876.473 61 876.898 61.3118 876.869 62.6809C876.62 76.3136 865.632 88.9573 851.851 91.3788C850.68 91.5834 849.499 91.7734 848.322 92.0853C851.993 92.6261 855.591 93.3715 858.93 94.9891C869.078 99.9102 875.038 107.964 876.732 119.097C877.323 122.976 877.225 122.985 873.388 122.99C854.536 122.99 835.684 122.995 816.832 123C815.05 123 814.909 122.849 815.04 121.119C816.134 106.8 825.926 95.6469 839.946 92.7625C841.122 92.5189 842.323 92.3825 843.631 92.1778L843.641 92.1681Z" />
    <path d="M906.103 92.1681C905.126 91.5347 904.064 91.598 903.102 91.4324C888.693 88.9329 878.137 77.5317 877.051 63.251C876.892 61.1413 876.982 61.0292 879.149 61.0292C898.816 61.0292 918.483 61.039 938.15 61C939.465 61 939.896 61.3118 939.867 62.6809C939.614 76.3136 928.448 88.9573 914.446 91.3788C913.255 91.5834 912.055 91.7734 910.86 92.0853C914.59 92.6261 918.245 93.3715 921.638 94.9891C931.95 99.9102 938.007 107.964 939.728 119.097C940.328 122.976 940.229 122.985 936.33 122.99C917.174 122.99 898.018 122.995 878.862 123C877.051 123 876.907 122.849 877.041 121.119C878.152 106.8 888.102 95.6469 902.348 92.7625C903.543 92.5189 904.764 92.3825 906.093 92.1778L906.103 92.1681Z" />
    <path d="M968.641 92.1681C967.679 91.5347 966.635 91.598 965.688 91.4324C951.507 88.9329 941.119 77.5317 940.05 63.251C939.894 61.1413 939.982 61.0292 942.115 61.0292C961.47 61.0292 980.825 61.039 1000.18 61C1001.47 61 1001.9 61.3118 1001.87 62.6809C1001.62 76.3136 990.632 88.9573 976.851 91.3788C975.68 91.5834 974.499 91.7734 973.322 92.0853C976.993 92.6261 980.591 93.3715 983.93 94.9891C994.078 99.9102 1000.04 107.964 1001.73 119.097C1002.32 122.976 1002.23 122.985 998.388 122.99C979.536 122.99 960.684 122.995 941.832 123C940.05 123 939.909 122.849 940.04 121.119C941.134 106.8 950.926 95.6469 964.946 92.7625C966.122 92.5189 967.323 92.3825 968.631 92.1778L968.641 92.1681Z" />
    <path d="M1030.64 92.1681C1029.68 91.5347 1028.63 91.598 1027.69 91.4324C1013.51 88.9329 1003.12 77.5317 1002.05 63.251C1001.89 61.1413 1001.98 61.0292 1004.12 61.0292C1023.47 61.0292 1042.82 61.039 1062.18 61C1063.47 61 1063.9 61.3118 1063.87 62.6809C1063.62 76.3136 1052.63 88.9573 1038.85 91.3788C1037.68 91.5834 1036.5 91.7734 1035.32 92.0853C1038.99 92.6261 1042.59 93.3715 1045.93 94.9891C1056.08 99.9102 1062.04 107.964 1063.73 119.097C1064.32 122.976 1064.23 122.985 1060.39 122.99C1041.54 122.99 1022.68 122.995 1003.83 123C1002.05 123 1001.91 122.849 1002.04 121.119C1003.13 106.8 1012.93 95.6469 1026.95 92.7625C1028.12 92.5189 1029.32 92.3825 1030.63 92.1778L1030.64 92.1681Z" />
    <path d="M1092.64 92.1681C1091.68 91.5347 1090.63 91.598 1089.69 91.4324C1075.51 88.9329 1065.12 77.5317 1064.05 63.251C1063.89 61.1413 1063.98 61.0292 1066.12 61.0292C1085.47 61.0292 1104.82 61.039 1124.18 61C1125.47 61 1125.9 61.3118 1125.87 62.6809C1125.62 76.3136 1114.63 88.9573 1100.85 91.3788C1099.68 91.5834 1098.5 91.7734 1097.32 92.0853C1100.99 92.6261 1104.59 93.3715 1107.93 94.9891C1118.08 99.9102 1124.04 107.964 1125.73 119.097C1126.32 122.976 1126.23 122.985 1122.39 122.99C1103.54 122.99 1084.68 122.995 1065.83 123C1064.05 123 1063.91 122.849 1064.04 121.119C1065.13 106.8 1074.93 95.6469 1088.95 92.7625C1090.12 92.5189 1091.32 92.3825 1092.63 92.1778L1092.64 92.1681Z" />
    <path d="M1155.64 92.1681C1154.68 91.5347 1153.63 91.598 1152.69 91.4324C1138.51 88.9329 1128.12 77.5317 1127.05 63.251C1126.89 61.1413 1126.98 61.0292 1129.12 61.0292C1148.47 61.0292 1167.82 61.039 1187.18 61C1188.47 61 1188.9 61.3118 1188.87 62.6809C1188.62 76.3136 1177.63 88.9573 1163.85 91.3788C1162.68 91.5834 1161.5 91.7734 1160.32 92.0853C1163.99 92.6261 1167.59 93.3715 1170.93 94.9891C1181.08 99.9102 1187.04 107.964 1188.73 119.097C1189.32 122.976 1189.23 122.985 1185.39 122.99C1166.54 122.99 1147.68 122.995 1128.83 123C1127.05 123 1126.91 122.849 1127.04 121.119C1128.13 106.8 1137.93 95.6469 1151.95 92.7625C1153.12 92.5189 1154.32 92.3825 1155.63 92.1778L1155.64 92.1681Z" />
    <path d="M1218.64 92.1681C1217.68 91.5347 1216.63 91.598 1215.69 91.4324C1201.51 88.9329 1191.12 77.5317 1190.05 63.251C1189.89 61.1413 1189.98 61.0292 1192.12 61.0292C1211.47 61.0292 1230.82 61.039 1250.18 61C1251.47 61 1251.9 61.3118 1251.87 62.6809C1251.62 76.3136 1240.63 88.9573 1226.85 91.3788C1225.68 91.5834 1224.5 91.7734 1223.32 92.0853C1226.99 92.6261 1230.59 93.3715 1233.93 94.9891C1244.08 99.9102 1250.04 107.964 1251.73 119.097C1252.32 122.976 1252.23 122.985 1248.39 122.99C1229.54 122.99 1210.68 122.995 1191.83 123C1190.05 123 1189.91 122.849 1190.04 121.119C1191.13 106.8 1200.93 95.6469 1214.95 92.7625C1216.12 92.5189 1217.32 92.3825 1218.63 92.1778L1218.64 92.1681Z" />
    <path d="M28.6409 153.168C27.6792 152.535 26.6346 152.598 25.6876 152.432C11.507 149.933 1.11929 138.532 0.0502537 124.251C-0.105952 122.141 -0.0180959 122.029 2.11509 122.029C21.47 122.029 40.8249 122.039 60.1798 122C61.4734 122 61.8981 122.312 61.8688 123.681C61.6199 137.314 50.6318 149.957 36.8514 152.379C35.6799 152.583 34.4986 152.773 33.3221 153.085C36.993 153.626 40.5906 154.372 43.9295 155.989C54.0781 160.91 60.0383 168.964 61.7321 180.097C62.3228 183.976 62.2252 183.985 58.3884 183.99C39.5362 183.99 20.6841 183.995 1.83199 184C0.0502655 184 -0.0913176 183.849 0.0404813 182.119C1.13392 167.8 10.9261 156.647 24.9456 153.763C26.122 153.519 27.3229 153.382 28.6311 153.178L28.6409 153.168Z" />
    <path d="M92.1028 153.168C91.1257 152.535 90.0642 152.598 89.1019 152.432C74.6926 149.933 64.1373 138.532 63.0511 124.251C62.8923 122.141 62.9816 122.029 65.1492 122.029C84.8163 122.029 104.483 122.039 124.15 122C125.465 122 125.896 122.312 125.867 123.681C125.614 137.314 114.448 149.957 100.446 152.379C99.2554 152.583 98.055 152.773 96.8596 153.085C100.59 153.626 104.245 154.372 107.638 155.989C117.95 160.91 124.007 168.964 125.728 180.097C126.328 183.976 126.229 183.985 122.33 183.99C103.174 183.99 84.0177 183.995 64.8615 184C63.0511 184 62.9072 183.849 63.0411 182.119C64.1522 167.8 74.1023 156.647 88.348 153.763C89.5434 153.519 90.7636 153.382 92.0929 153.178L92.1028 153.168Z" />
    <path d="M155.103 153.168C154.126 152.535 153.064 152.598 152.102 152.432C137.693 149.933 127.137 138.532 126.051 124.251C125.892 122.141 125.982 122.029 128.149 122.029C147.816 122.029 167.483 122.039 187.15 122C188.465 122 188.896 122.312 188.867 123.681C188.614 137.314 177.448 149.957 163.446 152.379C162.255 152.583 161.055 152.773 159.86 153.085C163.59 153.626 167.245 154.372 170.638 155.989C180.95 160.91 187.007 168.964 188.728 180.097C189.328 183.976 189.229 183.985 185.33 183.99C166.174 183.99 147.018 183.995 127.862 184C126.051 184 125.907 183.849 126.041 182.119C127.152 167.8 137.102 156.647 151.348 153.763C152.543 153.519 153.764 153.382 155.093 153.178L155.103 153.168Z" />
    <path d="M217.641 153.168C216.679 152.535 215.635 152.598 214.688 152.432C200.507 149.933 190.119 138.532 189.05 124.251C188.894 122.141 188.982 122.029 191.115 122.029C210.47 122.029 229.825 122.039 249.18 122C250.473 122 250.898 122.312 250.869 123.681C250.62 137.314 239.632 149.957 225.851 152.379C224.68 152.583 223.499 152.773 222.322 153.085C225.993 153.626 229.591 154.372 232.93 155.989C243.078 160.91 249.038 168.964 250.732 180.097C251.323 183.976 251.225 183.985 247.388 183.99C228.536 183.99 209.684 183.995 190.832 184C189.05 184 188.909 183.849 189.04 182.119C190.134 167.8 199.926 156.647 213.946 153.763C215.122 153.519 216.323 153.382 217.631 153.178L217.641 153.168Z" />
    <path d="M280.103 153.168C279.126 152.535 278.064 152.598 277.102 152.432C262.693 149.933 252.137 138.532 251.051 124.251C250.892 122.141 250.982 122.029 253.149 122.029C272.816 122.029 292.483 122.039 312.15 122C313.465 122 313.896 122.312 313.867 123.681C313.614 137.314 302.448 149.957 288.446 152.379C287.255 152.583 286.055 152.773 284.86 153.085C288.59 153.626 292.245 154.372 295.638 155.989C305.95 160.91 312.007 168.964 313.728 180.097C314.328 183.976 314.229 183.985 310.33 183.99C291.174 183.99 272.018 183.995 252.862 184C251.051 184 250.907 183.849 251.041 182.119C252.152 167.8 262.102 156.647 276.348 153.763C277.543 153.519 278.764 153.382 280.093 153.178L280.103 153.168Z" />
    <path d="M342.641 153.168C341.679 152.535 340.635 152.598 339.688 152.432C325.507 149.933 315.119 138.532 314.05 124.251C313.894 122.141 313.982 122.029 316.115 122.029C335.47 122.029 354.825 122.039 374.18 122C375.473 122 375.898 122.312 375.869 123.681C375.62 137.314 364.632 149.957 350.851 152.379C349.68 152.583 348.499 152.773 347.322 153.085C350.993 153.626 354.591 154.372 357.93 155.989C368.078 160.91 374.038 168.964 375.732 180.097C376.323 183.976 376.225 183.985 372.388 183.99C353.536 183.99 334.684 183.995 315.832 184C314.05 184 313.909 183.849 314.04 182.119C315.134 167.8 324.926 156.647 338.946 153.763C340.122 153.519 341.323 153.382 342.631 153.178L342.641 153.168Z" />
    <path d="M404.641 153.168C403.679 152.535 402.635 152.598 401.688 152.432C387.507 149.933 377.119 138.532 376.05 124.251C375.894 122.141 375.982 122.029 378.115 122.029C397.47 122.029 416.825 122.039 436.18 122C437.473 122 437.898 122.312 437.869 123.681C437.62 137.314 426.632 149.957 412.851 152.379C411.68 152.583 410.499 152.773 409.322 153.085C412.993 153.626 416.591 154.372 419.93 155.989C430.078 160.91 436.038 168.964 437.732 180.097C438.323 183.976 438.225 183.985 434.388 183.99C415.536 183.99 396.684 183.995 377.832 184C376.05 184 375.909 183.849 376.04 182.119C377.134 167.8 386.926 156.647 400.946 153.763C402.122 153.519 403.323 153.382 404.631 153.178L404.641 153.168Z" />
    <path d="M467.103 153.168C466.126 152.535 465.064 152.598 464.102 152.432C449.693 149.933 439.137 138.532 438.051 124.251C437.892 122.141 437.982 122.029 440.149 122.029C459.816 122.029 479.483 122.039 499.15 122C500.465 122 500.896 122.312 500.867 123.681C500.614 137.314 489.448 149.957 475.446 152.379C474.255 152.583 473.055 152.773 471.86 153.085C475.59 153.626 479.245 154.372 482.638 155.989C492.95 160.91 499.007 168.964 500.728 180.097C501.328 183.976 501.229 183.985 497.33 183.99C478.174 183.99 459.018 183.995 439.862 184C438.051 184 437.907 183.849 438.041 182.119C439.152 167.8 449.102 156.647 463.348 153.763C464.543 153.519 465.764 153.382 467.093 153.178L467.103 153.168Z" />
    <path d="M530.103 153.168C529.126 152.535 528.064 152.598 527.102 152.432C512.693 149.933 502.137 138.532 501.051 124.251C500.892 122.141 500.982 122.029 503.149 122.029C522.816 122.029 542.483 122.039 562.15 122C563.465 122 563.896 122.312 563.867 123.681C563.614 137.314 552.448 149.957 538.446 152.379C537.255 152.583 536.055 152.773 534.86 153.085C538.59 153.626 542.245 154.372 545.638 155.989C555.95 160.91 562.007 168.964 563.728 180.097C564.328 183.976 564.229 183.985 560.33 183.99C541.174 183.99 522.018 183.995 502.862 184C501.051 184 500.907 183.849 501.041 182.119C502.152 167.8 512.102 156.647 526.348 153.763C527.543 153.519 528.764 153.382 530.093 153.178L530.103 153.168Z" />
    <path d="M593.103 153.168C592.126 152.535 591.064 152.598 590.102 152.432C575.693 149.933 565.137 138.532 564.051 124.251C563.892 122.141 563.982 122.029 566.149 122.029C585.816 122.029 605.483 122.039 625.15 122C626.465 122 626.896 122.312 626.867 123.681C626.614 137.314 615.448 149.957 601.446 152.379C600.255 152.583 599.055 152.773 597.86 153.085C601.59 153.626 605.245 154.372 608.638 155.989C618.95 160.91 625.007 168.964 626.728 180.097C627.328 183.976 627.229 183.985 623.33 183.99C604.174 183.99 585.018 183.995 565.862 184C564.051 184 563.907 183.849 564.041 182.119C565.152 167.8 575.102 156.647 589.348 153.763C590.543 153.519 591.764 153.382 593.093 153.178L593.103 153.168Z" />
    <path d="M655.641 153.168C654.679 152.535 653.635 152.598 652.688 152.432C638.507 149.933 628.119 138.532 627.05 124.251C626.894 122.141 626.982 122.029 629.115 122.029C648.47 122.029 667.825 122.039 687.18 122C688.473 122 688.898 122.312 688.869 123.681C688.62 137.314 677.632 149.957 663.851 152.379C662.68 152.583 661.499 152.773 660.322 153.085C663.993 153.626 667.591 154.372 670.93 155.989C681.078 160.91 687.038 168.964 688.732 180.097C689.323 183.976 689.225 183.985 685.388 183.99C666.536 183.99 647.684 183.995 628.832 184C627.05 184 626.909 183.849 627.04 182.119C628.134 167.8 637.926 156.647 651.946 153.763C653.122 153.519 654.323 153.382 655.631 153.178L655.641 153.168Z" />
    <path d="M718.103 153.168C717.126 152.535 716.064 152.598 715.102 152.432C700.693 149.933 690.137 138.532 689.051 124.251C688.892 122.141 688.982 122.029 691.149 122.029C710.816 122.029 730.483 122.039 750.15 122C751.465 122 751.896 122.312 751.867 123.681C751.614 137.314 740.448 149.957 726.446 152.379C725.255 152.583 724.055 152.773 722.86 153.085C726.59 153.626 730.245 154.372 733.638 155.989C743.95 160.91 750.007 168.964 751.728 180.097C752.328 183.976 752.229 183.985 748.33 183.99C729.174 183.99 710.018 183.995 690.862 184C689.051 184 688.907 183.849 689.041 182.119C690.152 167.8 700.102 156.647 714.348 153.763C715.543 153.519 716.764 153.382 718.093 153.178L718.103 153.168Z" />
    <path d="M781.103 153.168C780.126 152.535 779.064 152.598 778.102 152.432C763.693 149.933 753.137 138.532 752.051 124.251C751.892 122.141 751.982 122.029 754.149 122.029C773.816 122.029 793.483 122.039 813.15 122C814.465 122 814.896 122.312 814.867 123.681C814.614 137.314 803.448 149.957 789.446 152.379C788.255 152.583 787.055 152.773 785.86 153.085C789.59 153.626 793.245 154.372 796.638 155.989C806.95 160.91 813.007 168.964 814.728 180.097C815.328 183.976 815.229 183.985 811.33 183.99C792.174 183.99 773.018 183.995 753.862 184C752.051 184 751.907 183.849 752.041 182.119C753.152 167.8 763.102 156.647 777.348 153.763C778.543 153.519 779.764 153.382 781.093 153.178L781.103 153.168Z" />
    <path d="M843.641 153.168C842.679 152.535 841.635 152.598 840.688 152.432C826.507 149.933 816.119 138.532 815.05 124.251C814.894 122.141 814.982 122.029 817.115 122.029C836.47 122.029 855.825 122.039 875.18 122C876.473 122 876.898 122.312 876.869 123.681C876.62 137.314 865.632 149.957 851.851 152.379C850.68 152.583 849.499 152.773 848.322 153.085C851.993 153.626 855.591 154.372 858.93 155.989C869.078 160.91 875.038 168.964 876.732 180.097C877.323 183.976 877.225 183.985 873.388 183.99C854.536 183.99 835.684 183.995 816.832 184C815.05 184 814.909 183.849 815.04 182.119C816.134 167.8 825.926 156.647 839.946 153.763C841.122 153.519 842.323 153.382 843.631 153.178L843.641 153.168Z" />
    <path d="M906.103 153.168C905.126 152.535 904.064 152.598 903.102 152.432C888.693 149.933 878.137 138.532 877.051 124.251C876.892 122.141 876.982 122.029 879.149 122.029C898.816 122.029 918.483 122.039 938.15 122C939.465 122 939.896 122.312 939.867 123.681C939.614 137.314 928.448 149.957 914.446 152.379C913.255 152.583 912.055 152.773 910.86 153.085C914.59 153.626 918.245 154.372 921.638 155.989C931.95 160.91 938.007 168.964 939.728 180.097C940.328 183.976 940.229 183.985 936.33 183.99C917.174 183.99 898.018 183.995 878.862 184C877.051 184 876.907 183.849 877.041 182.119C878.152 167.8 888.102 156.647 902.348 153.763C903.543 153.519 904.764 153.382 906.093 153.178L906.103 153.168Z" />
    <path d="M968.641 153.168C967.679 152.535 966.635 152.598 965.688 152.432C951.507 149.933 941.119 138.532 940.05 124.251C939.894 122.141 939.982 122.029 942.115 122.029C961.47 122.029 980.825 122.039 1000.18 122C1001.47 122 1001.9 122.312 1001.87 123.681C1001.62 137.314 990.632 149.957 976.851 152.379C975.68 152.583 974.499 152.773 973.322 153.085C976.993 153.626 980.591 154.372 983.93 155.989C994.078 160.91 1000.04 168.964 1001.73 180.097C1002.32 183.976 1002.23 183.985 998.388 183.99C979.536 183.99 960.684 183.995 941.832 184C940.05 184 939.909 183.849 940.04 182.119C941.134 167.8 950.926 156.647 964.946 153.763C966.122 153.519 967.323 153.382 968.631 153.178L968.641 153.168Z" />
    <path d="M1030.64 153.168C1029.68 152.535 1028.63 152.598 1027.69 152.432C1013.51 149.933 1003.12 138.532 1002.05 124.251C1001.89 122.141 1001.98 122.029 1004.12 122.029C1023.47 122.029 1042.82 122.039 1062.18 122C1063.47 122 1063.9 122.312 1063.87 123.681C1063.62 137.314 1052.63 149.957 1038.85 152.379C1037.68 152.583 1036.5 152.773 1035.32 153.085C1038.99 153.626 1042.59 154.372 1045.93 155.989C1056.08 160.91 1062.04 168.964 1063.73 180.097C1064.32 183.976 1064.23 183.985 1060.39 183.99C1041.54 183.99 1022.68 183.995 1003.83 184C1002.05 184 1001.91 183.849 1002.04 182.119C1003.13 167.8 1012.93 156.647 1026.95 153.763C1028.12 153.519 1029.32 153.382 1030.63 153.178L1030.64 153.168Z" />
    <path d="M1092.64 153.168C1091.68 152.535 1090.63 152.598 1089.69 152.432C1075.51 149.933 1065.12 138.532 1064.05 124.251C1063.89 122.141 1063.98 122.029 1066.12 122.029C1085.47 122.029 1104.82 122.039 1124.18 122C1125.47 122 1125.9 122.312 1125.87 123.681C1125.62 137.314 1114.63 149.957 1100.85 152.379C1099.68 152.583 1098.5 152.773 1097.32 153.085C1100.99 153.626 1104.59 154.372 1107.93 155.989C1118.08 160.91 1124.04 168.964 1125.73 180.097C1126.32 183.976 1126.23 183.985 1122.39 183.99C1103.54 183.99 1084.68 183.995 1065.83 184C1064.05 184 1063.91 183.849 1064.04 182.119C1065.13 167.8 1074.93 156.647 1088.95 153.763C1090.12 153.519 1091.32 153.382 1092.63 153.178L1092.64 153.168Z" />
    <path d="M1155.64 153.168C1154.68 152.535 1153.63 152.598 1152.69 152.432C1138.51 149.933 1128.12 138.532 1127.05 124.251C1126.89 122.141 1126.98 122.029 1129.12 122.029C1148.47 122.029 1167.82 122.039 1187.18 122C1188.47 122 1188.9 122.312 1188.87 123.681C1188.62 137.314 1177.63 149.957 1163.85 152.379C1162.68 152.583 1161.5 152.773 1160.32 153.085C1163.99 153.626 1167.59 154.372 1170.93 155.989C1181.08 160.91 1187.04 168.964 1188.73 180.097C1189.32 183.976 1189.23 183.985 1185.39 183.99C1166.54 183.99 1147.68 183.995 1128.83 184C1127.05 184 1126.91 183.849 1127.04 182.119C1128.13 167.8 1137.93 156.647 1151.95 153.763C1153.12 153.519 1154.32 153.382 1155.63 153.178L1155.64 153.168Z" />
    <path d="M1218.64 153.168C1217.68 152.535 1216.63 152.598 1215.69 152.432C1201.51 149.933 1191.12 138.532 1190.05 124.251C1189.89 122.141 1189.98 122.029 1192.12 122.029C1211.47 122.029 1230.82 122.039 1250.18 122C1251.47 122 1251.9 122.312 1251.87 123.681C1251.62 137.314 1240.63 149.957 1226.85 152.379C1225.68 152.583 1224.5 152.773 1223.32 153.085C1226.99 153.626 1230.59 154.372 1233.93 155.989C1244.08 160.91 1250.04 168.964 1251.73 180.097C1252.32 183.976 1252.23 183.985 1248.39 183.99C1229.54 183.99 1210.68 183.995 1191.83 184C1190.05 184 1189.91 183.849 1190.04 182.119C1191.13 167.8 1200.93 156.647 1214.95 153.763C1216.12 153.519 1217.32 153.382 1218.63 153.178L1218.64 153.168Z" />
    <path d="M28.6409 214.168C27.6792 213.535 26.6346 213.598 25.6876 213.432C11.507 210.933 1.11929 199.532 0.0502537 185.251C-0.105952 183.141 -0.0180959 183.029 2.11509 183.029C21.47 183.029 40.8249 183.039 60.1798 183C61.4734 183 61.8981 183.312 61.8688 184.681C61.6199 198.314 50.6318 210.957 36.8514 213.379C35.6799 213.583 34.4986 213.773 33.3221 214.085C36.993 214.626 40.5906 215.372 43.9295 216.989C54.0781 221.91 60.0383 229.964 61.7321 241.097C62.3228 244.976 62.2252 244.985 58.3884 244.99C39.5362 244.99 20.6841 244.995 1.83199 245C0.0502655 245 -0.0913176 244.849 0.0404813 243.119C1.13392 228.8 10.9261 217.647 24.9456 214.763C26.122 214.519 27.3229 214.382 28.6311 214.178L28.6409 214.168Z" />
    <path d="M92.1028 214.168C91.1257 213.535 90.0642 213.598 89.1019 213.432C74.6926 210.933 64.1373 199.532 63.0511 185.251C62.8923 183.141 62.9816 183.029 65.1492 183.029C84.8163 183.029 104.483 183.039 124.15 183C125.465 183 125.896 183.312 125.867 184.681C125.614 198.314 114.448 210.957 100.446 213.379C99.2554 213.583 98.055 213.773 96.8596 214.085C100.59 214.626 104.245 215.372 107.638 216.989C117.95 221.91 124.007 229.964 125.728 241.097C126.328 244.976 126.229 244.985 122.33 244.99C103.174 244.99 84.0177 244.995 64.8615 245C63.0511 245 62.9072 244.849 63.0411 243.119C64.1522 228.8 74.1023 217.647 88.348 214.763C89.5434 214.519 90.7636 214.382 92.0929 214.178L92.1028 214.168Z" />
    <path d="M155.103 214.168C154.126 213.535 153.064 213.598 152.102 213.432C137.693 210.933 127.137 199.532 126.051 185.251C125.892 183.141 125.982 183.029 128.149 183.029C147.816 183.029 167.483 183.039 187.15 183C188.465 183 188.896 183.312 188.867 184.681C188.614 198.314 177.448 210.957 163.446 213.379C162.255 213.583 161.055 213.773 159.86 214.085C163.59 214.626 167.245 215.372 170.638 216.989C180.95 221.91 187.007 229.964 188.728 241.097C189.328 244.976 189.229 244.985 185.33 244.99C166.174 244.99 147.018 244.995 127.862 245C126.051 245 125.907 244.849 126.041 243.119C127.152 228.8 137.102 217.647 151.348 214.763C152.543 214.519 153.764 214.382 155.093 214.178L155.103 214.168Z" />
    <path d="M217.641 214.168C216.679 213.535 215.635 213.598 214.688 213.432C200.507 210.933 190.119 199.532 189.05 185.251C188.894 183.141 188.982 183.029 191.115 183.029C210.47 183.029 229.825 183.039 249.18 183C250.473 183 250.898 183.312 250.869 184.681C250.62 198.314 239.632 210.957 225.851 213.379C224.68 213.583 223.499 213.773 222.322 214.085C225.993 214.626 229.591 215.372 232.93 216.989C243.078 221.91 249.038 229.964 250.732 241.097C251.323 244.976 251.225 244.985 247.388 244.99C228.536 244.99 209.684 244.995 190.832 245C189.05 245 188.909 244.849 189.04 243.119C190.134 228.8 199.926 217.647 213.946 214.763C215.122 214.519 216.323 214.382 217.631 214.178L217.641 214.168Z" />
    <path d="M280.103 214.168C279.126 213.535 278.064 213.598 277.102 213.432C262.693 210.933 252.137 199.532 251.051 185.251C250.892 183.141 250.982 183.029 253.149 183.029C272.816 183.029 292.483 183.039 312.15 183C313.465 183 313.896 183.312 313.867 184.681C313.614 198.314 302.448 210.957 288.446 213.379C287.255 213.583 286.055 213.773 284.86 214.085C288.59 214.626 292.245 215.372 295.638 216.989C305.95 221.91 312.007 229.964 313.728 241.097C314.328 244.976 314.229 244.985 310.33 244.99C291.174 244.99 272.018 244.995 252.862 245C251.051 245 250.907 244.849 251.041 243.119C252.152 228.8 262.102 217.647 276.348 214.763C277.543 214.519 278.764 214.382 280.093 214.178L280.103 214.168Z" />
    <path d="M342.641 214.168C341.679 213.535 340.635 213.598 339.688 213.432C325.507 210.933 315.119 199.532 314.05 185.251C313.894 183.141 313.982 183.029 316.115 183.029C335.47 183.029 354.825 183.039 374.18 183C375.473 183 375.898 183.312 375.869 184.681C375.62 198.314 364.632 210.957 350.851 213.379C349.68 213.583 348.499 213.773 347.322 214.085C350.993 214.626 354.591 215.372 357.93 216.989C368.078 221.91 374.038 229.964 375.732 241.097C376.323 244.976 376.225 244.985 372.388 244.99C353.536 244.99 334.684 244.995 315.832 245C314.05 245 313.909 244.849 314.04 243.119C315.134 228.8 324.926 217.647 338.946 214.763C340.122 214.519 341.323 214.382 342.631 214.178L342.641 214.168Z" />
    <path d="M404.641 214.168C403.679 213.535 402.635 213.598 401.688 213.432C387.507 210.933 377.119 199.532 376.05 185.251C375.894 183.141 375.982 183.029 378.115 183.029C397.47 183.029 416.825 183.039 436.18 183C437.473 183 437.898 183.312 437.869 184.681C437.62 198.314 426.632 210.957 412.851 213.379C411.68 213.583 410.499 213.773 409.322 214.085C412.993 214.626 416.591 215.372 419.93 216.989C430.078 221.91 436.038 229.964 437.732 241.097C438.323 244.976 438.225 244.985 434.388 244.99C415.536 244.99 396.684 244.995 377.832 245C376.05 245 375.909 244.849 376.04 243.119C377.134 228.8 386.926 217.647 400.946 214.763C402.122 214.519 403.323 214.382 404.631 214.178L404.641 214.168Z" />
    <path d="M467.103 214.168C466.126 213.535 465.064 213.598 464.102 213.432C449.693 210.933 439.137 199.532 438.051 185.251C437.892 183.141 437.982 183.029 440.149 183.029C459.816 183.029 479.483 183.039 499.15 183C500.465 183 500.896 183.312 500.867 184.681C500.614 198.314 489.448 210.957 475.446 213.379C474.255 213.583 473.055 213.773 471.86 214.085C475.59 214.626 479.245 215.372 482.638 216.989C492.95 221.91 499.007 229.964 500.728 241.097C501.328 244.976 501.229 244.985 497.33 244.99C478.174 244.99 459.018 244.995 439.862 245C438.051 245 437.907 244.849 438.041 243.119C439.152 228.8 449.102 217.647 463.348 214.763C464.543 214.519 465.764 214.382 467.093 214.178L467.103 214.168Z" />
    <path d="M530.103 214.168C529.126 213.535 528.064 213.598 527.102 213.432C512.693 210.933 502.137 199.532 501.051 185.251C500.892 183.141 500.982 183.029 503.149 183.029C522.816 183.029 542.483 183.039 562.15 183C563.465 183 563.896 183.312 563.867 184.681C563.614 198.314 552.448 210.957 538.446 213.379C537.255 213.583 536.055 213.773 534.86 214.085C538.59 214.626 542.245 215.372 545.638 216.989C555.95 221.91 562.007 229.964 563.728 241.097C564.328 244.976 564.229 244.985 560.33 244.99C541.174 244.99 522.018 244.995 502.862 245C501.051 245 500.907 244.849 501.041 243.119C502.152 228.8 512.102 217.647 526.348 214.763C527.543 214.519 528.764 214.382 530.093 214.178L530.103 214.168Z" />
    <path d="M593.103 214.168C592.126 213.535 591.064 213.598 590.102 213.432C575.693 210.933 565.137 199.532 564.051 185.251C563.892 183.141 563.982 183.029 566.149 183.029C585.816 183.029 605.483 183.039 625.15 183C626.465 183 626.896 183.312 626.867 184.681C626.614 198.314 615.448 210.957 601.446 213.379C600.255 213.583 599.055 213.773 597.86 214.085C601.59 214.626 605.245 215.372 608.638 216.989C618.95 221.91 625.007 229.964 626.728 241.097C627.328 244.976 627.229 244.985 623.33 244.99C604.174 244.99 585.018 244.995 565.862 245C564.051 245 563.907 244.849 564.041 243.119C565.152 228.8 575.102 217.647 589.348 214.763C590.543 214.519 591.764 214.382 593.093 214.178L593.103 214.168Z" />
    <path d="M655.641 214.168C654.679 213.535 653.635 213.598 652.688 213.432C638.507 210.933 628.119 199.532 627.05 185.251C626.894 183.141 626.982 183.029 629.115 183.029C648.47 183.029 667.825 183.039 687.18 183C688.473 183 688.898 183.312 688.869 184.681C688.62 198.314 677.632 210.957 663.851 213.379C662.68 213.583 661.499 213.773 660.322 214.085C663.993 214.626 667.591 215.372 670.93 216.989C681.078 221.91 687.038 229.964 688.732 241.097C689.323 244.976 689.225 244.985 685.388 244.99C666.536 244.99 647.684 244.995 628.832 245C627.05 245 626.909 244.849 627.04 243.119C628.134 228.8 637.926 217.647 651.946 214.763C653.122 214.519 654.323 214.382 655.631 214.178L655.641 214.168Z" />
    <path d="M718.103 214.168C717.126 213.535 716.064 213.598 715.102 213.432C700.693 210.933 690.137 199.532 689.051 185.251C688.892 183.141 688.982 183.029 691.149 183.029C710.816 183.029 730.483 183.039 750.15 183C751.465 183 751.896 183.312 751.867 184.681C751.614 198.314 740.448 210.957 726.446 213.379C725.255 213.583 724.055 213.773 722.86 214.085C726.59 214.626 730.245 215.372 733.638 216.989C743.95 221.91 750.007 229.964 751.728 241.097C752.328 244.976 752.229 244.985 748.33 244.99C729.174 244.99 710.018 244.995 690.862 245C689.051 245 688.907 244.849 689.041 243.119C690.152 228.8 700.102 217.647 714.348 214.763C715.543 214.519 716.764 214.382 718.093 214.178L718.103 214.168Z" />
    <path d="M781.103 214.168C780.126 213.535 779.064 213.598 778.102 213.432C763.693 210.933 753.137 199.532 752.051 185.251C751.892 183.141 751.982 183.029 754.149 183.029C773.816 183.029 793.483 183.039 813.15 183C814.465 183 814.896 183.312 814.867 184.681C814.614 198.314 803.448 210.957 789.446 213.379C788.255 213.583 787.055 213.773 785.86 214.085C789.59 214.626 793.245 215.372 796.638 216.989C806.95 221.91 813.007 229.964 814.728 241.097C815.328 244.976 815.229 244.985 811.33 244.99C792.174 244.99 773.018 244.995 753.862 245C752.051 245 751.907 244.849 752.041 243.119C753.152 228.8 763.102 217.647 777.348 214.763C778.543 214.519 779.764 214.382 781.093 214.178L781.103 214.168Z" />
    <path d="M843.641 214.168C842.679 213.535 841.635 213.598 840.688 213.432C826.507 210.933 816.119 199.532 815.05 185.251C814.894 183.141 814.982 183.029 817.115 183.029C836.47 183.029 855.825 183.039 875.18 183C876.473 183 876.898 183.312 876.869 184.681C876.62 198.314 865.632 210.957 851.851 213.379C850.68 213.583 849.499 213.773 848.322 214.085C851.993 214.626 855.591 215.372 858.93 216.989C869.078 221.91 875.038 229.964 876.732 241.097C877.323 244.976 877.225 244.985 873.388 244.99C854.536 244.99 835.684 244.995 816.832 245C815.05 245 814.909 244.849 815.04 243.119C816.134 228.8 825.926 217.647 839.946 214.763C841.122 214.519 842.323 214.382 843.631 214.178L843.641 214.168Z" />
    <path d="M906.103 214.168C905.126 213.535 904.064 213.598 903.102 213.432C888.693 210.933 878.137 199.532 877.051 185.251C876.892 183.141 876.982 183.029 879.149 183.029C898.816 183.029 918.483 183.039 938.15 183C939.465 183 939.896 183.312 939.867 184.681C939.614 198.314 928.448 210.957 914.446 213.379C913.255 213.583 912.055 213.773 910.86 214.085C914.59 214.626 918.245 215.372 921.638 216.989C931.95 221.91 938.007 229.964 939.728 241.097C940.328 244.976 940.229 244.985 936.33 244.99C917.174 244.99 898.018 244.995 878.862 245C877.051 245 876.907 244.849 877.041 243.119C878.152 228.8 888.102 217.647 902.348 214.763C903.543 214.519 904.764 214.382 906.093 214.178L906.103 214.168Z" />
    <path d="M968.641 214.168C967.679 213.535 966.635 213.598 965.688 213.432C951.507 210.933 941.119 199.532 940.05 185.251C939.894 183.141 939.982 183.029 942.115 183.029C961.47 183.029 980.825 183.039 1000.18 183C1001.47 183 1001.9 183.312 1001.87 184.681C1001.62 198.314 990.632 210.957 976.851 213.379C975.68 213.583 974.499 213.773 973.322 214.085C976.993 214.626 980.591 215.372 983.93 216.989C994.078 221.91 1000.04 229.964 1001.73 241.097C1002.32 244.976 1002.23 244.985 998.388 244.99C979.536 244.99 960.684 244.995 941.832 245C940.05 245 939.909 244.849 940.04 243.119C941.134 228.8 950.926 217.647 964.946 214.763C966.122 214.519 967.323 214.382 968.631 214.178L968.641 214.168Z" />
    <path d="M1030.64 214.168C1029.68 213.535 1028.63 213.598 1027.69 213.432C1013.51 210.933 1003.12 199.532 1002.05 185.251C1001.89 183.141 1001.98 183.029 1004.12 183.029C1023.47 183.029 1042.82 183.039 1062.18 183C1063.47 183 1063.9 183.312 1063.87 184.681C1063.62 198.314 1052.63 210.957 1038.85 213.379C1037.68 213.583 1036.5 213.773 1035.32 214.085C1038.99 214.626 1042.59 215.372 1045.93 216.989C1056.08 221.91 1062.04 229.964 1063.73 241.097C1064.32 244.976 1064.23 244.985 1060.39 244.99C1041.54 244.99 1022.68 244.995 1003.83 245C1002.05 245 1001.91 244.849 1002.04 243.119C1003.13 228.8 1012.93 217.647 1026.95 214.763C1028.12 214.519 1029.32 214.382 1030.63 214.178L1030.64 214.168Z" />
    <path d="M1093.1 214.168C1092.13 213.535 1091.06 213.598 1090.1 213.432C1075.69 210.933 1065.14 199.532 1064.05 185.251C1063.89 183.141 1063.98 183.029 1066.15 183.029C1085.82 183.029 1105.48 183.039 1125.15 183C1126.46 183 1126.9 183.312 1126.87 184.681C1126.61 198.314 1115.45 210.957 1101.45 213.379C1100.26 213.583 1099.06 213.773 1097.86 214.085C1101.59 214.626 1105.25 215.372 1108.64 216.989C1118.95 221.91 1125.01 229.964 1126.73 241.097C1127.33 244.976 1127.23 244.985 1123.33 244.99C1104.17 244.99 1085.02 244.995 1065.86 245C1064.05 245 1063.91 244.849 1064.04 243.119C1065.15 228.8 1075.1 217.647 1089.35 214.763C1090.54 214.519 1091.76 214.382 1093.09 214.178L1093.1 214.168Z" />
    <path d="M1156.1 214.168C1155.13 213.535 1154.06 213.598 1153.1 213.432C1138.69 210.933 1128.14 199.532 1127.05 185.251C1126.89 183.141 1126.98 183.029 1129.15 183.029C1148.82 183.029 1168.48 183.039 1188.15 183C1189.46 183 1189.9 183.312 1189.87 184.681C1189.61 198.314 1178.45 210.957 1164.45 213.379C1163.26 213.583 1162.06 213.773 1160.86 214.085C1164.59 214.626 1168.25 215.372 1171.64 216.989C1181.95 221.91 1188.01 229.964 1189.73 241.097C1190.33 244.976 1190.23 244.985 1186.33 244.99C1167.17 244.99 1148.02 244.995 1128.86 245C1127.05 245 1126.91 244.849 1127.04 243.119C1128.15 228.8 1138.1 217.647 1152.35 214.763C1153.54 214.519 1154.76 214.382 1156.09 214.178L1156.1 214.168Z" />
    <path d="M1218.64 214.168C1217.68 213.535 1216.63 213.598 1215.69 213.432C1201.51 210.933 1191.12 199.532 1190.05 185.251C1189.89 183.141 1189.98 183.029 1192.12 183.029C1211.47 183.029 1230.82 183.039 1250.18 183C1251.47 183 1251.9 183.312 1251.87 184.681C1251.62 198.314 1240.63 210.957 1226.85 213.379C1225.68 213.583 1224.5 213.773 1223.32 214.085C1226.99 214.626 1230.59 215.372 1233.93 216.989C1244.08 221.91 1250.04 229.964 1251.73 241.097C1252.32 244.976 1252.23 244.985 1248.39 244.99C1229.54 244.99 1210.68 244.995 1191.83 245C1190.05 245 1189.91 244.849 1190.04 243.119C1191.13 228.8 1200.93 217.647 1214.95 214.763C1216.12 214.519 1217.32 214.382 1218.63 214.178L1218.64 214.168Z" />
    <path d="M28.6409 275.168C27.6792 274.535 26.6346 274.598 25.6876 274.432C11.507 271.933 1.11929 260.532 0.0502537 246.251C-0.105952 244.141 -0.0180959 244.029 2.11509 244.029C21.47 244.029 40.8249 244.039 60.1798 244C61.4734 244 61.8981 244.312 61.8688 245.681C61.6199 259.314 50.6318 271.957 36.8514 274.379C35.6799 274.583 34.4986 274.773 33.3221 275.085C36.993 275.626 40.5906 276.372 43.9295 277.989C54.0781 282.91 60.0383 290.964 61.7321 302.097C62.3228 305.976 62.2252 305.985 58.3884 305.99C39.5362 305.99 20.6841 305.995 1.83199 306C0.0502655 306 -0.0913176 305.849 0.0404813 304.119C1.13392 289.8 10.9261 278.647 24.9456 275.763C26.122 275.519 27.3229 275.382 28.6311 275.178L28.6409 275.168Z" />
    <path d="M92.1028 275.168C91.1257 274.535 90.0642 274.598 89.1019 274.432C74.6926 271.933 64.1373 260.532 63.0511 246.251C62.8923 244.141 62.9816 244.029 65.1492 244.029C84.8163 244.029 104.483 244.039 124.15 244C125.465 244 125.896 244.312 125.867 245.681C125.614 259.314 114.448 271.957 100.446 274.379C99.2554 274.583 98.055 274.773 96.8596 275.085C100.59 275.626 104.245 276.372 107.638 277.989C117.95 282.91 124.007 290.964 125.728 302.097C126.328 305.976 126.229 305.985 122.33 305.99C103.174 305.99 84.0177 305.995 64.8615 306C63.0511 306 62.9072 305.849 63.0411 304.119C64.1522 289.8 74.1023 278.647 88.348 275.763C89.5434 275.519 90.7636 275.382 92.0929 275.178L92.1028 275.168Z" />
    <path d="M155.103 275.168C154.126 274.535 153.064 274.598 152.102 274.432C137.693 271.933 127.137 260.532 126.051 246.251C125.892 244.141 125.982 244.029 128.149 244.029C147.816 244.029 167.483 244.039 187.15 244C188.465 244 188.896 244.312 188.867 245.681C188.614 259.314 177.448 271.957 163.446 274.379C162.255 274.583 161.055 274.773 159.86 275.085C163.59 275.626 167.245 276.372 170.638 277.989C180.95 282.91 187.007 290.964 188.728 302.097C189.328 305.976 189.229 305.985 185.33 305.99C166.174 305.99 147.018 305.995 127.862 306C126.051 306 125.907 305.849 126.041 304.119C127.152 289.8 137.102 278.647 151.348 275.763C152.543 275.519 153.764 275.382 155.093 275.178L155.103 275.168Z" />
    <path d="M217.641 275.168C216.679 274.535 215.635 274.598 214.688 274.432C200.507 271.933 190.119 260.532 189.05 246.251C188.894 244.141 188.982 244.029 191.115 244.029C210.47 244.029 229.825 244.039 249.18 244C250.473 244 250.898 244.312 250.869 245.681C250.62 259.314 239.632 271.957 225.851 274.379C224.68 274.583 223.499 274.773 222.322 275.085C225.993 275.626 229.591 276.372 232.93 277.989C243.078 282.91 249.038 290.964 250.732 302.097C251.323 305.976 251.225 305.985 247.388 305.99C228.536 305.99 209.684 305.995 190.832 306C189.05 306 188.909 305.849 189.04 304.119C190.134 289.8 199.926 278.647 213.946 275.763C215.122 275.519 216.323 275.382 217.631 275.178L217.641 275.168Z" />
    <path d="M280.103 275.168C279.126 274.535 278.064 274.598 277.102 274.432C262.693 271.933 252.137 260.532 251.051 246.251C250.892 244.141 250.982 244.029 253.149 244.029C272.816 244.029 292.483 244.039 312.15 244C313.465 244 313.896 244.312 313.867 245.681C313.614 259.314 302.448 271.957 288.446 274.379C287.255 274.583 286.055 274.773 284.86 275.085C288.59 275.626 292.245 276.372 295.638 277.989C305.95 282.91 312.007 290.964 313.728 302.097C314.328 305.976 314.229 305.985 310.33 305.99C291.174 305.99 272.018 305.995 252.862 306C251.051 306 250.907 305.849 251.041 304.119C252.152 289.8 262.102 278.647 276.348 275.763C277.543 275.519 278.764 275.382 280.093 275.178L280.103 275.168Z" />
    <path d="M342.641 275.168C341.679 274.535 340.635 274.598 339.688 274.432C325.507 271.933 315.119 260.532 314.05 246.251C313.894 244.141 313.982 244.029 316.115 244.029C335.47 244.029 354.825 244.039 374.18 244C375.473 244 375.898 244.312 375.869 245.681C375.62 259.314 364.632 271.957 350.851 274.379C349.68 274.583 348.499 274.773 347.322 275.085C350.993 275.626 354.591 276.372 357.93 277.989C368.078 282.91 374.038 290.964 375.732 302.097C376.323 305.976 376.225 305.985 372.388 305.99C353.536 305.99 334.684 305.995 315.832 306C314.05 306 313.909 305.849 314.04 304.119C315.134 289.8 324.926 278.647 338.946 275.763C340.122 275.519 341.323 275.382 342.631 275.178L342.641 275.168Z" />
    <path d="M404.641 275.168C403.679 274.535 402.635 274.598 401.688 274.432C387.507 271.933 377.119 260.532 376.05 246.251C375.894 244.141 375.982 244.029 378.115 244.029C397.47 244.029 416.825 244.039 436.18 244C437.473 244 437.898 244.312 437.869 245.681C437.62 259.314 426.632 271.957 412.851 274.379C411.68 274.583 410.499 274.773 409.322 275.085C412.993 275.626 416.591 276.372 419.93 277.989C430.078 282.91 436.038 290.964 437.732 302.097C438.323 305.976 438.225 305.985 434.388 305.99C415.536 305.99 396.684 305.995 377.832 306C376.05 306 375.909 305.849 376.04 304.119C377.134 289.8 386.926 278.647 400.946 275.763C402.122 275.519 403.323 275.382 404.631 275.178L404.641 275.168Z" />
    <path d="M467.103 275.168C466.126 274.535 465.064 274.598 464.102 274.432C449.693 271.933 439.137 260.532 438.051 246.251C437.892 244.141 437.982 244.029 440.149 244.029C459.816 244.029 479.483 244.039 499.15 244C500.465 244 500.896 244.312 500.867 245.681C500.614 259.314 489.448 271.957 475.446 274.379C474.255 274.583 473.055 274.773 471.86 275.085C475.59 275.626 479.245 276.372 482.638 277.989C492.95 282.91 499.007 290.964 500.728 302.097C501.328 305.976 501.229 305.985 497.33 305.99C478.174 305.99 459.018 305.995 439.862 306C438.051 306 437.907 305.849 438.041 304.119C439.152 289.8 449.102 278.647 463.348 275.763C464.543 275.519 465.764 275.382 467.093 275.178L467.103 275.168Z" />
    <path d="M530.103 275.168C529.126 274.535 528.064 274.598 527.102 274.432C512.693 271.933 502.137 260.532 501.051 246.251C500.892 244.141 500.982 244.029 503.149 244.029C522.816 244.029 542.483 244.039 562.15 244C563.465 244 563.896 244.312 563.867 245.681C563.614 259.314 552.448 271.957 538.446 274.379C537.255 274.583 536.055 274.773 534.86 275.085C538.59 275.626 542.245 276.372 545.638 277.989C555.95 282.91 562.007 290.964 563.728 302.097C564.328 305.976 564.229 305.985 560.33 305.99C541.174 305.99 522.018 305.995 502.862 306C501.051 306 500.907 305.849 501.041 304.119C502.152 289.8 512.102 278.647 526.348 275.763C527.543 275.519 528.764 275.382 530.093 275.178L530.103 275.168Z" />
    <path d="M593.103 275.168C592.126 274.535 591.064 274.598 590.102 274.432C575.693 271.933 565.137 260.532 564.051 246.251C563.892 244.141 563.982 244.029 566.149 244.029C585.816 244.029 605.483 244.039 625.15 244C626.465 244 626.896 244.312 626.867 245.681C626.614 259.314 615.448 271.957 601.446 274.379C600.255 274.583 599.055 274.773 597.86 275.085C601.59 275.626 605.245 276.372 608.638 277.989C618.95 282.91 625.007 290.964 626.728 302.097C627.328 305.976 627.229 305.985 623.33 305.99C604.174 305.99 585.018 305.995 565.862 306C564.051 306 563.907 305.849 564.041 304.119C565.152 289.8 575.102 278.647 589.348 275.763C590.543 275.519 591.764 275.382 593.093 275.178L593.103 275.168Z" />
    <path d="M655.641 275.168C654.679 274.535 653.635 274.598 652.688 274.432C638.507 271.933 628.119 260.532 627.05 246.251C626.894 244.141 626.982 244.029 629.115 244.029C648.47 244.029 667.825 244.039 687.18 244C688.473 244 688.898 244.312 688.869 245.681C688.62 259.314 677.632 271.957 663.851 274.379C662.68 274.583 661.499 274.773 660.322 275.085C663.993 275.626 667.591 276.372 670.93 277.989C681.078 282.91 687.038 290.964 688.732 302.097C689.323 305.976 689.225 305.985 685.388 305.99C666.536 305.99 647.684 305.995 628.832 306C627.05 306 626.909 305.849 627.04 304.119C628.134 289.8 637.926 278.647 651.946 275.763C653.122 275.519 654.323 275.382 655.631 275.178L655.641 275.168Z" />
    <path d="M718.103 275.168C717.126 274.535 716.064 274.598 715.102 274.432C700.693 271.933 690.137 260.532 689.051 246.251C688.892 244.141 688.982 244.029 691.149 244.029C710.816 244.029 730.483 244.039 750.15 244C751.465 244 751.896 244.312 751.867 245.681C751.614 259.314 740.448 271.957 726.446 274.379C725.255 274.583 724.055 274.773 722.86 275.085C726.59 275.626 730.245 276.372 733.638 277.989C743.95 282.91 750.007 290.964 751.728 302.097C752.328 305.976 752.229 305.985 748.33 305.99C729.174 305.99 710.018 305.995 690.862 306C689.051 306 688.907 305.849 689.041 304.119C690.152 289.8 700.102 278.647 714.348 275.763C715.543 275.519 716.764 275.382 718.093 275.178L718.103 275.168Z" />
    <path d="M781.103 275.168C780.126 274.535 779.064 274.598 778.102 274.432C763.693 271.933 753.137 260.532 752.051 246.251C751.892 244.141 751.982 244.029 754.149 244.029C773.816 244.029 793.483 244.039 813.15 244C814.465 244 814.896 244.312 814.867 245.681C814.614 259.314 803.448 271.957 789.446 274.379C788.255 274.583 787.055 274.773 785.86 275.085C789.59 275.626 793.245 276.372 796.638 277.989C806.95 282.91 813.007 290.964 814.728 302.097C815.328 305.976 815.229 305.985 811.33 305.99C792.174 305.99 773.018 305.995 753.862 306C752.051 306 751.907 305.849 752.041 304.119C753.152 289.8 763.102 278.647 777.348 275.763C778.543 275.519 779.764 275.382 781.093 275.178L781.103 275.168Z" />
    <path d="M843.641 275.168C842.679 274.535 841.635 274.598 840.688 274.432C826.507 271.933 816.119 260.532 815.05 246.251C814.894 244.141 814.982 244.029 817.115 244.029C836.47 244.029 855.825 244.039 875.18 244C876.473 244 876.898 244.312 876.869 245.681C876.62 259.314 865.632 271.957 851.851 274.379C850.68 274.583 849.499 274.773 848.322 275.085C851.993 275.626 855.591 276.372 858.93 277.989C869.078 282.91 875.038 290.964 876.732 302.097C877.323 305.976 877.225 305.985 873.388 305.99C854.536 305.99 835.684 305.995 816.832 306C815.05 306 814.909 305.849 815.04 304.119C816.134 289.8 825.926 278.647 839.946 275.763C841.122 275.519 842.323 275.382 843.631 275.178L843.641 275.168Z" />
    <path d="M906.103 275.168C905.126 274.535 904.064 274.598 903.102 274.432C888.693 271.933 878.137 260.532 877.051 246.251C876.892 244.141 876.982 244.029 879.149 244.029C898.816 244.029 918.483 244.039 938.15 244C939.465 244 939.896 244.312 939.867 245.681C939.614 259.314 928.448 271.957 914.446 274.379C913.255 274.583 912.055 274.773 910.86 275.085C914.59 275.626 918.245 276.372 921.638 277.989C931.95 282.91 938.007 290.964 939.728 302.097C940.328 305.976 940.229 305.985 936.33 305.99C917.174 305.99 898.018 305.995 878.862 306C877.051 306 876.907 305.849 877.041 304.119C878.152 289.8 888.102 278.647 902.348 275.763C903.543 275.519 904.764 275.382 906.093 275.178L906.103 275.168Z" />
    <path d="M968.641 275.168C967.679 274.535 966.635 274.598 965.688 274.432C951.507 271.933 941.119 260.532 940.05 246.251C939.894 244.141 939.982 244.029 942.115 244.029C961.47 244.029 980.825 244.039 1000.18 244C1001.47 244 1001.9 244.312 1001.87 245.681C1001.62 259.314 990.632 271.957 976.851 274.379C975.68 274.583 974.499 274.773 973.322 275.085C976.993 275.626 980.591 276.372 983.93 277.989C994.078 282.91 1000.04 290.964 1001.73 302.097C1002.32 305.976 1002.23 305.985 998.388 305.99C979.536 305.99 960.684 305.995 941.832 306C940.05 306 939.909 305.849 940.04 304.119C941.134 289.8 950.926 278.647 964.946 275.763C966.122 275.519 967.323 275.382 968.631 275.178L968.641 275.168Z" />
    <path d="M1030.64 275.168C1029.68 274.535 1028.63 274.598 1027.69 274.432C1013.51 271.933 1003.12 260.532 1002.05 246.251C1001.89 244.141 1001.98 244.029 1004.12 244.029C1023.47 244.029 1042.82 244.039 1062.18 244C1063.47 244 1063.9 244.312 1063.87 245.681C1063.62 259.314 1052.63 271.957 1038.85 274.379C1037.68 274.583 1036.5 274.773 1035.32 275.085C1038.99 275.626 1042.59 276.372 1045.93 277.989C1056.08 282.91 1062.04 290.964 1063.73 302.097C1064.32 305.976 1064.23 305.985 1060.39 305.99C1041.54 305.99 1022.68 305.995 1003.83 306C1002.05 306 1001.91 305.849 1002.04 304.119C1003.13 289.8 1012.93 278.647 1026.95 275.763C1028.12 275.519 1029.32 275.382 1030.63 275.178L1030.64 275.168Z" />
    <path d="M1093.1 275.168C1092.13 274.535 1091.06 274.598 1090.1 274.432C1075.69 271.933 1065.14 260.532 1064.05 246.251C1063.89 244.141 1063.98 244.029 1066.15 244.029C1085.82 244.029 1105.48 244.039 1125.15 244C1126.46 244 1126.9 244.312 1126.87 245.681C1126.61 259.314 1115.45 271.957 1101.45 274.379C1100.26 274.583 1099.06 274.773 1097.86 275.085C1101.59 275.626 1105.25 276.372 1108.64 277.989C1118.95 282.91 1125.01 290.964 1126.73 302.097C1127.33 305.976 1127.23 305.985 1123.33 305.99C1104.17 305.99 1085.02 305.995 1065.86 306C1064.05 306 1063.91 305.849 1064.04 304.119C1065.15 289.8 1075.1 278.647 1089.35 275.763C1090.54 275.519 1091.76 275.382 1093.09 275.178L1093.1 275.168Z" />
    <path d="M1156.1 275.168C1155.13 274.535 1154.06 274.598 1153.1 274.432C1138.69 271.933 1128.14 260.532 1127.05 246.251C1126.89 244.141 1126.98 244.029 1129.15 244.029C1148.82 244.029 1168.48 244.039 1188.15 244C1189.46 244 1189.9 244.312 1189.87 245.681C1189.61 259.314 1178.45 271.957 1164.45 274.379C1163.26 274.583 1162.06 274.773 1160.86 275.085C1164.59 275.626 1168.25 276.372 1171.64 277.989C1181.95 282.91 1188.01 290.964 1189.73 302.097C1190.33 305.976 1190.23 305.985 1186.33 305.99C1167.17 305.99 1148.02 305.995 1128.86 306C1127.05 306 1126.91 305.849 1127.04 304.119C1128.15 289.8 1138.1 278.647 1152.35 275.763C1153.54 275.519 1154.76 275.382 1156.09 275.178L1156.1 275.168Z" />
    <path d="M1218.64 275.168C1217.68 274.535 1216.63 274.598 1215.69 274.432C1201.51 271.933 1191.12 260.532 1190.05 246.251C1189.89 244.141 1189.98 244.029 1192.12 244.029C1211.47 244.029 1230.82 244.039 1250.18 244C1251.47 244 1251.9 244.312 1251.87 245.681C1251.62 259.314 1240.63 271.957 1226.85 274.379C1225.68 274.583 1224.5 274.773 1223.32 275.085C1226.99 275.626 1230.59 276.372 1233.93 277.989C1244.08 282.91 1250.04 290.964 1251.73 302.097C1252.32 305.976 1252.23 305.985 1248.39 305.99C1229.54 305.99 1210.68 305.995 1191.83 306C1190.05 306 1189.91 305.849 1190.04 304.119C1191.13 289.8 1200.93 278.647 1214.95 275.763C1216.12 275.519 1217.32 275.382 1218.63 275.178L1218.64 275.168Z" />
</svg>
