<svg width="186" height="96" viewBox="0 0 186 96" fill="none" xmlns="http://www.w3.org/2000/svg">
    <g clip-path="url(#clip0_1679_38577)">
        <path d="M16.5693 68.4844L16.0439 71.5007C15.9217 71.3786 15.7627 71.2649 15.5639 71.157C15.3963 71.0803 15.1748 71.0065 14.9021 70.9298C14.6266 70.8531 14.2858 70.8162 13.8739 70.8162H12.3431V82.5349C12.3431 82.9467 12.3885 83.2961 12.4794 83.5858C12.5703 83.8755 12.6782 84.1112 12.8003 84.293C12.9367 84.506 13.0986 84.6736 13.2803 84.7957H6.83873C7.0063 84.6736 7.15967 84.506 7.296 84.293C7.41813 84.1112 7.5289 83.8755 7.62831 83.5858C7.72771 83.2961 7.776 82.9467 7.776 82.5349V70.8162H6.10879C5.69696 70.8162 5.34478 70.8531 5.04655 70.9298C4.74833 71.0065 4.50123 71.0832 4.30526 71.157C4.07804 71.2649 3.88491 71.3786 3.73438 71.5007L4.25981 68.4844H16.5721H16.5693Z" fill="white"/>
        <path d="M32.4175 83.579C32.5084 83.8687 32.6163 84.1045 32.7384 84.2863C32.8747 84.4993 33.0366 84.6668 33.2184 84.789H26.7768C26.9444 84.6668 27.0978 84.4993 27.2341 84.2863C27.3562 84.1045 27.467 83.8687 27.5664 83.579C27.6658 83.2893 27.7141 82.94 27.7141 82.5282V77.7765H22.8942V82.5282C22.8942 82.94 22.9397 83.2893 23.0306 83.579C23.1215 83.8687 23.2294 84.1045 23.3515 84.2863C23.4878 84.4993 23.6497 84.6668 23.8315 84.789H17.3672C17.5348 84.6668 17.6938 84.4993 17.8472 84.2863C17.9693 84.1045 18.0801 83.8687 18.1795 83.579C18.2789 83.2893 18.3272 82.94 18.3272 82.5282V70.764C18.3272 70.3522 18.2789 70.0028 18.1795 69.7131C18.0801 69.4234 17.9693 69.1877 17.8472 69.0059C17.6938 68.7929 17.5348 68.6168 17.3672 68.4805H23.8315C23.6497 68.6168 23.4878 68.7929 23.3515 69.0059C23.2294 69.1877 23.1243 69.4263 23.0306 69.7131C22.9397 70.0028 22.8942 70.3522 22.8942 70.764V75.493H27.7141V70.764C27.7141 70.3522 27.6658 70.0028 27.5664 69.7131C27.467 69.4234 27.3562 69.1877 27.2341 69.0059C27.0978 68.7929 26.9444 68.6168 26.7768 68.4805H33.2184C33.0366 68.6168 32.8747 68.7929 32.7384 69.0059C32.6163 69.1877 32.5112 69.4263 32.4175 69.7131C32.3237 70 32.2811 70.3522 32.2811 70.764V82.5282C32.2811 82.94 32.3266 83.2893 32.4175 83.579Z" fill="white"/>
        <path d="M44.8838 82.2793C45.378 82.1572 45.8012 82.0208 46.1506 81.8675C46.5454 81.6999 46.889 81.5011 47.1787 81.2738L46.5624 84.7929H34.5938C34.7613 84.6707 34.9204 84.5032 35.0737 84.2902C35.1959 84.1084 35.3066 83.8726 35.4061 83.5829C35.5055 83.2932 35.5537 82.9439 35.5537 82.5321V70.7679C35.5537 70.3561 35.5055 70.0067 35.4061 69.717C35.3066 69.4273 35.1959 69.1916 35.0737 69.0098C34.9204 68.7968 34.7613 68.6207 34.5938 68.4844H46.3352V72.0233C46.0455 71.7961 45.7274 71.5972 45.3752 71.4297C45.0713 71.2763 44.7077 71.1371 44.2902 71.0065C43.8699 70.8758 43.4041 70.8133 42.8843 70.8133H40.1208V75.085H45.3979L45.0315 78.0786C44.8043 77.9565 44.5288 77.8514 44.2107 77.7577C43.9352 77.681 43.6029 77.6043 43.2053 77.5305C42.8105 77.4538 42.3532 77.4168 41.8335 77.4168H40.1208V82.4639H43.1144C43.7989 82.4639 44.3896 82.4043 44.8838 82.2821V82.2793Z" fill="white"/>
        <path d="M63.8521 82.2793C64.3548 82.1572 64.7808 82.0208 65.1301 81.8675C65.5249 81.6999 65.8686 81.5011 66.1583 81.2738L65.5193 84.7929H54.2578C54.4254 84.6707 54.5788 84.5032 54.7151 84.2902C54.8372 84.1084 54.948 83.8726 55.0474 83.5829C55.1468 83.2932 55.1951 82.9439 55.1951 82.5321V70.7679C55.1951 70.3561 55.144 70.0067 55.0474 69.717C54.948 69.4273 54.8372 69.1916 54.7151 69.0098C54.5788 68.7968 54.4254 68.6207 54.2578 68.4844H60.6994C60.5176 68.6207 60.3558 68.7968 60.2194 69.0098C60.0973 69.1916 59.9922 69.4302 59.8985 69.717C59.8076 70.0067 59.7621 70.3561 59.7621 70.7679V82.4639H62.0684C62.7529 82.4639 63.3465 82.4043 63.8492 82.2821L63.8521 82.2793Z" fill="white"/>
        <path d="M73.1719 83.579C73.2628 83.8687 73.3707 84.1045 73.4929 84.2863C73.6292 84.4993 73.7911 84.6668 73.9729 84.789H67.5312C67.6988 84.6668 67.8522 84.4993 67.9885 84.2863C68.1107 84.1045 68.2214 83.8687 68.3208 83.579C68.4202 83.2893 68.4685 82.94 68.4685 82.5282V70.764C68.4685 70.3522 68.4174 70.0028 68.3208 69.7131C68.2214 69.4234 68.1107 69.1877 67.9885 69.0059C67.8522 68.7929 67.6988 68.6168 67.5312 68.4805H73.9729C73.7911 68.6168 73.6292 68.7929 73.4929 69.0059C73.3707 69.1877 73.2656 69.4263 73.1719 69.7131C73.0782 70 73.0356 70.3522 73.0356 70.764V82.5282C73.0356 82.94 73.081 83.2893 73.1719 83.579Z" fill="white"/>
        <path d="M91.9427 76.6382C91.9427 78.2231 91.6956 79.5494 91.2014 80.623C90.7072 81.6966 90.0596 82.5572 89.2587 83.2048C88.4606 83.8524 87.5659 84.3153 86.5747 84.5993C85.5834 84.8805 84.6036 85.0225 83.6294 85.0225C82.6552 85.0225 81.6526 84.8805 80.6699 84.5993C79.6871 84.3181 78.801 83.8524 78.0086 83.2048C77.2162 82.5572 76.5743 81.6966 76.0772 80.623C75.583 79.5494 75.3359 78.2202 75.3359 76.6382C75.3359 75.0562 75.583 73.727 76.0772 72.6534C76.5714 71.5798 77.2162 70.7192 78.0086 70.0716C78.801 69.4241 79.6871 68.9611 80.6699 68.6771C81.6526 68.3959 82.6381 68.2539 83.6294 68.2539C84.6206 68.2539 85.5863 68.3959 86.5747 68.6771C87.5631 68.9583 88.4577 69.4241 89.2587 70.0716C90.0596 70.7192 90.7043 71.5798 91.2014 72.6534C91.6956 73.727 91.9427 75.0562 91.9427 76.6382ZM84.1548 82.6907C84.703 82.6453 85.1943 82.4805 85.6289 82.1993C86.0634 81.9182 86.4213 81.5149 86.7025 80.9894C86.9837 80.464 87.1853 79.8164 87.3074 79.0467C87.4296 78.277 87.4438 77.3681 87.3529 76.3173C87.262 75.2664 87.0887 74.3717 86.8388 73.6333C86.5889 72.8948 86.2764 72.2927 85.9015 71.8297C85.5295 71.3668 85.1063 71.0345 84.6348 70.8357C84.1633 70.6368 83.6521 70.5602 83.1039 70.6084C82.5558 70.6539 82.0644 70.8129 81.6298 71.0884C81.1953 71.3639 80.8374 71.7616 80.5562 72.287C80.2751 72.8124 80.0734 73.4629 79.9513 74.2411C79.8292 75.0165 79.815 75.931 79.9058 76.9819C79.9967 78.0186 80.17 78.9075 80.4199 79.6545C80.6699 80.4015 80.9823 81.0065 81.3572 81.4694C81.7293 81.9352 82.1524 82.2647 82.6239 82.4635C83.0954 82.6623 83.6066 82.7362 84.1548 82.6907Z" fill="white"/>
        <path d="M108.94 68.4844C108.758 68.6207 108.596 68.7968 108.46 69.0098C108.338 69.1916 108.233 69.4302 108.139 69.717C108.045 70.0039 108.003 70.3561 108.003 70.7679V85.0201H107.202C106.517 85.0201 105.847 84.9292 105.191 84.7446C104.535 84.5628 103.924 84.2987 103.353 83.9579C102.782 83.6142 102.266 83.1967 101.8 82.7025C101.334 82.2083 100.942 81.6544 100.624 81.0466L96.9912 74.125V82.5321C96.9912 82.9439 97.0367 83.2932 97.1276 83.5829C97.2184 83.8726 97.3264 84.1084 97.4485 84.2902C97.5848 84.5032 97.7467 84.6707 97.9285 84.7929H93.0859C93.2535 84.6707 93.4069 84.5032 93.5432 84.2902C93.6653 84.1084 93.7761 83.8726 93.8755 83.5829C93.9749 83.2932 94.0232 82.9439 94.0232 82.5321V70.7679C94.0232 70.3561 93.9721 70.0067 93.8755 69.717C93.7761 69.4273 93.6653 69.1916 93.5432 69.0098C93.4069 68.7968 93.2535 68.6207 93.0859 68.4844H99.2975L105.032 79.3794V70.7679C105.032 70.3561 104.984 70.0067 104.884 69.717C104.785 69.4273 104.674 69.1916 104.552 69.0098C104.399 68.7968 104.239 68.6207 104.072 68.4844H108.937H108.94Z" fill="white"/>
        <path d="M114.334 70.2753C114.533 71.0905 114.539 71.8516 114.357 72.5588C114.175 73.2661 113.866 73.8994 113.431 74.4561C112.997 75.0128 112.568 75.4417 112.142 75.7456L111.25 74.8992C111.508 74.6407 111.696 74.3255 111.809 73.9506C111.923 73.5785 111.948 73.1752 111.889 72.7406C111.829 72.3061 111.667 71.8488 111.409 71.3688C111.15 70.8888 110.784 70.406 110.312 69.9175L112.781 67.793C113.619 68.6308 114.135 69.4573 114.334 70.2725V70.2753Z" fill="white"/>
        <path d="M120.45 72.2075C120.45 72.6335 120.643 72.9857 121.032 73.2612C121.421 73.5367 121.904 73.8037 122.483 74.0621C123.063 74.3206 123.685 74.5989 124.358 74.8972C125.028 75.1954 125.653 75.576 126.23 76.0418C126.809 76.5076 127.292 77.0841 127.681 77.7686C128.07 78.4559 128.263 79.3165 128.263 80.3532C128.263 81.8017 127.63 82.9435 126.369 83.7728C125.105 84.605 123.247 85.0197 120.796 85.0197C120.066 85.0197 119.419 84.9828 118.854 84.9061C118.291 84.8294 117.803 84.747 117.391 84.6561C116.902 84.551 116.476 84.4289 116.113 84.2898L115.886 80.1317C116.343 80.6031 116.86 81.0292 117.439 81.4098C117.928 81.7307 118.501 82.0233 119.163 82.2902C119.825 82.5572 120.552 82.6907 121.345 82.6907C121.665 82.6907 121.964 82.6453 122.248 82.5544C122.529 82.4635 122.782 82.3414 123 82.188C123.222 82.0346 123.392 81.8557 123.514 81.6512C123.637 81.4467 123.696 81.228 123.696 81.0008C123.696 80.4384 123.503 79.9698 123.114 79.5949C122.725 79.2228 122.242 78.8763 121.663 78.5554C121.083 78.2344 120.458 77.9192 119.791 77.6067C119.121 77.2943 118.496 76.9194 117.916 76.4763C117.337 76.0361 116.854 75.505 116.465 74.8886C116.076 74.2723 115.883 73.4998 115.883 72.571C115.883 71.8865 116.042 71.2759 116.363 70.7448C116.684 70.2108 117.124 69.7621 117.686 69.3985C118.249 69.0321 118.916 68.7509 119.686 68.5521C120.456 68.3533 121.282 68.2539 122.165 68.2539C122.85 68.2539 123.5 68.2965 124.119 68.3789C124.736 68.4612 125.273 68.5493 125.73 68.6402C126.264 68.7481 126.758 68.8674 127.215 69.0066V73.1419C126.88 72.6818 126.485 72.2586 126.028 71.8752C125.63 71.5514 125.156 71.256 124.599 70.989C124.043 70.7192 123.401 70.5857 122.668 70.5857C122.364 70.5857 122.077 70.6283 121.81 70.7107C121.543 70.7959 121.31 70.9123 121.114 71.0657C120.916 71.2191 120.757 71.3895 120.634 71.5798C120.512 71.7701 120.453 71.9803 120.453 72.2075H120.45Z" fill="white"/>
        <path d="M142.334 68.4844C143.461 68.4844 144.518 68.6974 145.509 69.1234C146.5 69.5495 147.358 70.1317 148.091 70.8702C148.821 71.6086 149.4 72.472 149.826 73.4633C150.252 74.4545 150.465 75.5111 150.465 76.6386C150.465 77.7662 150.252 78.8227 149.826 79.814C149.4 80.8052 148.821 81.6686 148.091 82.4071C147.361 83.1456 146.5 83.7278 145.509 84.1538C144.518 84.5799 143.461 84.7929 142.334 84.7929H135.344C135.511 84.6707 135.665 84.5032 135.801 84.2902C135.923 84.1084 136.034 83.8726 136.133 83.5829C136.233 83.2932 136.281 82.9439 136.281 82.5321V70.7679C136.281 70.3561 136.23 70.0067 136.133 69.717C136.034 69.4273 135.923 69.1916 135.801 69.0098C135.665 68.7968 135.511 68.6207 135.344 68.4844H142.334ZM141.649 82.4611C142.197 82.4611 142.714 82.373 143.203 82.1969C143.691 82.0208 144.117 81.7141 144.481 81.271C144.847 80.8308 145.134 80.2343 145.35 79.4902C145.563 78.7432 145.671 77.7918 145.671 76.6358C145.671 75.4798 145.563 74.5255 145.35 73.7814C145.137 73.0344 144.847 72.4408 144.481 72.0006C144.114 71.5603 143.688 71.2507 143.203 71.0746C142.714 70.8986 142.197 70.8105 141.649 70.8105H140.851V82.4611H141.649Z" fill="white"/>
        <path d="M161.899 82.2793C162.394 82.1572 162.817 82.0208 163.166 81.8675C163.561 81.6999 163.905 81.5011 164.194 81.2738L163.578 84.7929H151.609C151.777 84.6707 151.936 84.5032 152.089 84.2902C152.212 84.1084 152.322 83.8726 152.422 83.5829C152.521 83.2932 152.569 82.9439 152.569 82.5321V70.7679C152.569 70.3561 152.521 70.0067 152.422 69.717C152.322 69.4273 152.212 69.1916 152.089 69.0098C151.936 68.7968 151.777 68.6207 151.609 68.4844H163.351V72.0233C163.061 71.7961 162.743 71.5972 162.391 71.4297C162.087 71.2763 161.723 71.1371 161.306 71.0065C160.885 70.8758 160.42 70.8133 159.9 70.8133H157.136V75.085H162.414L162.047 78.0786C161.82 77.9565 161.544 77.8514 161.226 77.7577C160.951 77.681 160.619 77.6043 160.221 77.5305C159.826 77.4538 159.369 77.4168 158.849 77.4168H157.136V82.4639H160.13C160.815 82.4639 161.405 82.4043 161.899 82.2821V82.2793Z" fill="white"/>
        <path d="M181.417 68.4844C181.235 68.6207 181.073 68.7968 180.937 69.0098C180.814 69.1916 180.709 69.4302 180.616 69.717C180.522 70.0039 180.479 70.3561 180.479 70.7679V85.0201H179.678C178.994 85.0201 178.324 84.9292 177.667 84.7446C177.011 84.5628 176.401 84.2987 175.83 83.9579C175.259 83.6142 174.742 83.1967 174.276 82.7025C173.81 82.2083 173.419 81.6544 173.1 81.0466L169.468 74.125V82.5321C169.468 82.9439 169.513 83.2932 169.604 83.5829C169.695 83.8726 169.803 84.1084 169.925 84.2902C170.061 84.5032 170.223 84.6707 170.405 84.7929H165.562C165.73 84.6707 165.883 84.5032 166.02 84.2902C166.142 84.1084 166.253 83.8726 166.352 83.5829C166.451 83.2932 166.5 82.9439 166.5 82.5321V70.7679C166.5 70.3561 166.449 70.0067 166.352 69.717C166.253 69.4273 166.142 69.1916 166.02 69.0098C165.883 68.7968 165.73 68.6207 165.562 68.4844H171.774L177.508 79.3794V70.7679C177.508 70.3561 177.46 70.0067 177.361 69.717C177.261 69.4273 177.151 69.1916 177.028 69.0098C176.875 68.7968 176.716 68.6207 176.548 68.4844H181.414H181.417Z" fill="white"/>
        <path d="M58.306 60.5631C57.5789 58.9413 57.8289 57.3962 59.0076 56.6294C58.4622 57.7598 58.8826 58.5976 59.533 59.3588C59.6807 59.5321 59.8937 59.6371 60.1209 59.657C60.652 59.7025 61.1917 59.6485 61.7285 59.6769C62.1772 59.6996 62.3391 59.4895 62.2653 59.0918C62.1545 58.4954 62.0068 57.9075 61.8534 57.2201C62.6515 57.6092 63.3275 58.1347 63.6144 58.9015C63.9098 59.694 64.4125 59.7621 65.0771 59.6911C65.2361 59.6741 65.3952 59.6599 65.6423 59.6371C65.5003 58.8703 65.1481 58.2227 64.617 57.7825C63.5178 56.8765 63.6541 55.8824 64.0688 54.7094C65.2617 51.338 67.3095 48.5603 70.0617 46.3592C72.4446 44.4562 74.1487 42.1755 75.0434 39.2728C75.0604 39.2217 75.1116 39.1819 75.2053 39.0626C75.8671 40.656 75.9295 42.3005 76.1312 43.9847C79.7326 43.5757 82.2888 41.812 83.8424 38.4264C84.5013 39.4205 85.2114 40.2612 86.427 40.4998C86.4099 40.389 86.4213 40.318 86.3929 40.2839C85.0409 38.8127 84.8677 37.0433 85.1375 35.1829C85.2114 34.6603 85.2028 34.2343 84.8961 33.7514C84.5723 33.2345 84.4388 32.5983 84.186 31.911C84.1889 31.911 84.0582 31.8627 83.9219 31.8485C79.6332 31.4622 75.4155 31.7406 71.2631 32.9846C68.0508 33.9474 66.466 36.194 65.9746 39.3552C65.8184 40.3578 65.7275 41.3888 65.7616 42.4027C65.8013 43.6439 65.2447 44.4875 64.3415 45.2259C63.9893 45.5128 63.6683 45.8735 63.4383 46.2626C62.7623 47.4015 62.1403 48.5717 61.3706 49.7106C61.4019 49.5146 61.4132 49.3101 61.4729 49.1227C61.8676 47.8787 62.2596 46.6347 62.6828 45.3992C62.7623 45.1663 62.9555 44.9504 63.1486 44.7857C63.9467 44.0955 64.3642 43.3343 64.2619 42.184C63.9836 39.0286 64.5943 36.0747 66.7727 33.6293C67.2953 33.0442 67.9542 32.5699 68.5933 32.1041C68.9114 31.8712 69.0307 31.6582 69.0193 31.2577C68.9455 28.5539 69.7294 26.1454 71.584 24.1373C72.9019 22.7115 74.6032 22.0356 76.4834 21.7146C79.0055 21.2858 81.4822 20.6922 83.7146 19.3629C83.9418 19.2266 84.1633 19.0846 84.3877 18.9483C85.4187 18.3177 85.2 18.4626 85.4187 18.3177C84.9131 18.758 83.8168 19.8855 83.1636 20.2746C81.8713 21.0443 80.5591 21.5385 79.014 22.0668C77.9915 22.473 76.935 22.7911 75.8955 23.1603C72.189 24.4838 71.2091 27.9574 71.3625 30.6443C71.3653 30.7011 71.4022 30.7579 71.4505 30.8828C72.2174 30.7635 72.9956 30.6414 73.771 30.5164C76.1284 30.1444 78.4971 29.8348 80.8346 29.369C81.8968 29.156 82.9051 28.6476 83.9276 28.2471C84.3621 28.0767 84.4388 27.8126 84.2144 27.3382C83.2317 25.2791 83.4362 22.2372 85.5153 20.5104C86.7167 19.5135 87.2478 18.153 86.8928 16.5057C86.5321 14.8328 86.8644 13.2906 88.1396 12.0494C88.915 11.291 89.9858 10.9019 91.0679 10.9587C91.4996 10.9815 91.7637 10.865 92.0449 10.5157C93.127 9.18361 95.0016 8.72633 96.5921 9.39378C93.7888 9.96751 92.9112 11.9244 92.7294 14.5033C92.5505 14.1824 92.3715 13.8586 92.1926 13.5348C91.0963 13.887 90.71 15.4122 91.5252 16.2075C92.613 17.2669 92.6243 17.3748 91.8007 18.7296C91.457 19.2948 91.4144 19.5731 91.582 20.0616C92.2835 20.0929 92.9793 20.0645 93.6496 20.1809C93.9734 20.2377 94.3909 20.5075 94.5131 20.7916C94.7034 21.2346 94.3284 21.5726 93.9677 21.8424C93.7263 22.0214 93.4139 22.1918 93.3031 22.4389C93.1043 22.8905 93.2548 23.3534 93.6922 23.6091C94.1637 23.8846 94.4648 24.2169 94.5329 24.7821C94.5585 24.9809 94.7658 25.1598 94.9874 25.3671C95.0442 24.5435 95.6122 24.3532 96.2058 24.1288C97.0863 23.7937 97.7878 23.2256 98.265 22.3849C98.5121 21.9504 98.8046 21.5045 99.5459 21.5755C99.4493 21.8282 99.3812 22.0384 99.2931 22.2401C98.9125 23.0893 98.5462 23.947 98.1343 24.7821C97.7679 25.5262 97.4214 26.3016 96.9272 26.9548C96.3592 27.7046 96.0099 27.6535 95.3651 26.9719C95.314 26.9151 95.2458 26.8753 95.1493 26.7986C95.0641 27.04 94.993 27.2417 94.9135 27.4661C94.6607 27.4462 94.4222 27.4206 94.1808 27.4064C93.7774 27.3837 93.3684 27.5058 93.3344 27.9233C93.3088 28.2244 93.4764 28.6646 93.7093 28.8436C94.9192 29.778 96.8335 29.5195 97.7992 28.3323C98.069 28.0029 98.2593 27.6052 98.532 27.2786C98.8075 26.9491 99.1398 26.668 99.4493 26.3669L99.6766 26.4862C99.6027 26.9463 99.6084 27.4405 99.438 27.8637C99.0773 28.7697 98.6228 29.6388 98.211 30.525C98.1201 30.7238 97.9866 30.934 97.9838 31.1413C97.9213 34.8052 99.2023 37.8357 102.207 40.0482C102.315 40.1277 102.443 40.1817 102.656 40.1675C102.491 39.9261 102.326 39.6875 102.159 39.4489C100.086 36.4781 99.6084 33.3169 101.077 29.9512C101.827 28.2329 102.449 26.4975 102.307 24.5804C102.273 24.1316 102.221 23.6829 102.25 23.1802C102.255 23.0836 102.375 23.041 102.44 23.1149C102.602 23.2938 102.767 23.4699 102.892 23.6744C103.721 25.0121 103.781 26.4975 103.619 27.9972C103.491 29.1929 103.244 30.3744 103.116 31.5702C102.98 32.8483 103.076 34.115 103.607 35.3448C103.803 34.3479 103.9 33.3709 104.198 32.462C104.559 31.3628 105.002 30.2693 105.573 29.2668C106.479 27.6734 106.533 26.0602 106.033 24.3645C105.976 24.1743 105.922 23.984 105.868 23.7965C105.922 23.7624 105.976 23.7283 106.03 23.6943C106.311 24.0919 106.652 24.4583 106.857 24.8928C107.422 26.0886 107.493 27.3837 107.385 28.6703C107.243 30.3972 106.976 32.1126 106.814 33.8395C106.658 35.5266 106.783 37.1881 107.538 38.7445C107.675 39.0257 107.868 39.2813 108.121 39.5341C107.936 37.2648 108.14 35.1034 109.404 32.9534C109.87 33.5668 110.313 34.0412 110.631 34.5922C111.753 36.5292 112.202 38.6906 112.617 40.8605C112.719 41.3916 112.878 41.9256 113.111 42.4113C114.502 45.3395 115.863 48.2877 117.36 51.162C118.098 52.5792 119.087 53.8658 120.004 55.1837C120.333 55.658 121.677 56.5981 122.279 56.7316C124.409 57.2002 125.96 58.5295 126.022 60.6767C126.037 61.1425 124.94 60.6284 125.375 60.6483C127.8 60.7562 130.226 60.8897 132.651 61.0175C132.879 61.0289 133.103 61.0686 133.322 61.1396C127.809 62.7074 52.4807 62.6875 49.2656 61.0345C52.2564 60.8755 55.2471 60.7193 58.3032 60.5574L58.306 60.5631ZM99.6226 48.8727C99.5914 48.9068 99.5857 48.8046 99.5516 48.8415C99.3556 48.7506 98.8075 48.5206 98.6172 48.4183C96.896 47.481 95.1947 46.5125 93.4508 45.6207C92.9708 45.3736 92.3545 45.2117 91.8291 45.2685C90.6731 45.3906 89.6506 45.8394 88.9519 46.8874C87.5403 49.0006 85.4414 50.2304 83.1295 51.0654C80.9425 51.855 79.707 53.4 79.0623 55.5302C78.9515 55.8937 78.855 56.263 78.7556 56.6436C78.6363 57.1037 78.9402 57.5638 79.406 57.6405C79.4713 57.6518 79.5366 57.6632 79.5991 57.6746C81.877 57.9841 81.9991 58.9669 82.3143 60.0234C82.4478 60.475 82.1241 60.0348 82.5472 60.0376C93.9138 60.1257 105.28 60.2251 116.647 60.3216C116.834 60.3216 117.022 60.2989 117.272 60.2819C117.184 60.1029 117.147 60.0092 117.096 59.9269C115.917 58.0182 114.767 56.0897 113.54 54.2123C112.952 53.3148 112.307 52.4173 111.532 51.6874C109.893 50.1423 108.274 48.6029 107.22 46.5693C106.774 45.7116 105.828 45.2458 105.025 45.402C105.03 45.4418 105.025 45.4901 105.047 45.5156C105.113 45.5951 105.187 45.6633 105.258 45.7371C106.462 46.9783 107.24 48.4439 107.391 50.1707C107.527 51.747 107.118 53.187 105.652 54.0135C104.05 54.9167 102.307 54.7974 100.594 54.3373C99.9947 54.1754 99.6624 53.6273 99.847 53.1075C100.199 52.1219 100.648 51.1705 101.057 50.2048L101.301 50.2616C101.247 51.2159 101.196 52.1702 101.136 53.2381C101.483 53.1785 101.906 53.1927 102.25 53.0365C103.284 52.5593 103.514 51.517 103.84 50.4973C104.522 51.1733 104.411 52.0339 104.559 52.8036C105.241 52.6616 105.635 52.2526 105.82 51.5283C106.252 49.8271 105.516 47.9894 104.036 47.0294C103.386 46.6063 102.735 46.1802 102.119 45.7059C100.381 44.3767 98.6711 43.0077 96.9471 41.6586C96.4955 41.3178 96.5154 41.3093 96.3138 41.2752C96.3138 40.4771 95.7599 41.1076 96.3138 41.2752C94.6238 41.1616 96.5324 45.0441 97.4072 46.4955C98.1002 47.4555 98.8728 48.2195 99.6311 48.8784L99.6226 48.8727ZM75.5007 48.2933C75.4013 48.2933 75.353 48.2791 75.3217 48.2933C73.379 49.3698 71.2801 49.9804 69.1216 50.4207C68.9824 50.4491 68.7807 50.5456 68.6728 50.6394C66.9687 52.1276 65.7871 53.9425 65.2106 56.1437C65.114 56.5186 65.1765 56.7231 65.5173 56.9418C66.6165 57.6462 67.4487 58.5579 67.6617 59.924C67.6816 60.0603 67.9883 60.2478 68.1616 60.2478C69.3658 60.2478 70.5672 60.1967 71.7686 60.1683C72.0413 60.1626 72.314 60.1683 72.4219 60.1683C72.5923 59.3361 72.6917 58.6346 72.8905 57.9671C73.041 57.4644 73.3165 56.9986 73.5494 56.5214C74.4498 54.6838 75.2848 52.8206 75.4836 50.7558C75.5632 49.9407 75.4978 49.1142 75.4978 48.2877L75.5007 48.2933ZM89.1365 28.8918C88.4066 30.3517 88.0999 31.8655 88.7275 33.4333C89.2303 34.6859 90.2499 35.3221 91.582 35.5436C89.6932 33.7117 89.0939 31.4367 89.1365 28.8918ZM93.9706 32.7176L93.7718 32.7602C93.7121 32.9619 93.5786 33.1834 93.6184 33.3623C93.7689 34.0042 93.8683 34.6972 94.1949 35.2511C94.8794 36.4127 95.4248 37.5488 94.7857 38.9434C95.6065 38.6565 96.1093 37.9152 96.0354 37.0092C95.8962 35.3164 94.9789 33.9872 93.9677 32.7176H93.9706ZM90.7327 22.5752C90.7384 23.1972 91.2156 23.7823 91.4911 23.6318C91.795 23.4642 92.0392 23.1007 92.1898 22.7683C92.3034 22.5184 91.5649 21.8765 91.2809 22.01C91.0168 22.135 90.8435 22.4531 90.7327 22.5752Z" fill="#FA3E1B"/>
        <path d="M93.8753 8.46131C94.06 6.67482 94.3212 4.87696 92.512 3.70395C91.1487 2.81781 89.7315 3.00526 88.4051 3.79768C87.3144 4.44809 86.4198 5.29163 86.4681 6.76286C87.073 6.06417 87.6183 5.30583 88.6777 4.94797C88.4051 6.76854 87.6041 8.18865 86.2891 9.47811C87.6837 9.41562 88.3909 8.56924 89.0583 7.57232C89.0157 10.0973 85.6444 11.2135 83.6562 10.2762C83.6733 10.2251 83.6761 10.1484 83.713 10.1257C84.7724 9.46106 85.2411 8.50675 85.2752 7.25706C85.295 6.4902 85.4399 5.71482 85.6387 4.97069C85.8972 3.99365 86.4681 3.29496 87.536 3.01662C88.3738 2.79793 89.1492 2.33781 89.9871 2.11911C91.0607 1.83793 92.0917 2.08787 93.0261 2.69C93.8753 3.23816 94.4207 3.98513 94.5513 5.01045C94.7075 6.24026 94.4178 7.37919 93.8782 8.46415L93.8753 8.46131Z" fill="#FA3E1B"/>
        <path d="M96.0861 19.3748C96.0747 18.1535 96.8898 17.3583 98.0174 17.2901C98.5599 17.256 99.1052 17.2134 99.7158 17.168C99.6761 17.2958 99.6732 17.4804 99.5824 17.5883C99.2415 17.9859 98.9007 18.3921 98.5002 18.7216C98.3611 18.838 98.0089 18.8238 97.8214 18.7301C97.1341 18.3921 96.9239 18.3949 96.3729 18.9516C96.2565 19.0709 96.1826 19.2328 96.0917 19.3748H96.0861Z" fill="#FA3E1B"/>
        <path d="M95.8841 13.1878C96.9946 11.9608 99.9428 9.09507 102.297 10.3448C102.36 10.3788 102.456 10.1829 102.402 10.1289C101.434 9.11779 99.1021 7.77153 95.833 13.043C95.762 13.1566 95.8046 13.273 95.8841 13.1878Z" fill="#FA3E1B"/>
        <path d="M98.5981 14.0291C100.493 13.2452 105.437 11.6462 108.601 14.7307C108.687 14.813 108.868 14.6369 108.803 14.5319C107.61 12.6516 104.494 9.46207 98.5555 13.8161C98.4277 13.9098 98.4646 14.0831 98.5981 14.0263V14.0291Z" fill="#FA3E1B"/>
        <path d="M102.806 15.6462C104.882 16.0921 110.114 17.7139 111.761 22.8916C111.807 23.0308 112.045 22.9711 112.028 22.8234C111.704 20.1508 110.148 14.9021 102.851 15.4048C102.695 15.4161 102.655 15.615 102.803 15.6462H102.806Z" fill="#FA3E1B"/>
        <path d="M104.759 19.7234C106.844 21.4758 111.74 26.2814 109.951 31.5103C109.903 31.6523 110.224 31.763 110.309 31.6352C111.843 29.292 113.785 24.0661 104.984 19.5643C104.796 19.4678 104.609 19.6012 104.756 19.7262L104.759 19.7234Z" fill="#FA3E1B"/>
        <path d="M88.9358 3.51451C88.9358 3.51451 87.2004 4.08255 86.4733 6.42004C85.7434 8.75754 86.337 4.96585 86.337 4.96585L88.6262 3.29297L88.9386 3.51451H88.9358Z" fill="#FA3E1B"/>
        <path d="M86.8797 8.83872C86.8797 8.83872 85.6073 9.86119 86.9394 9.37836C88.2714 8.89552 88.2572 8.58594 88.2572 8.58594L87.9192 9.50901L85.8203 10.0799V9.33291L86.8797 8.84156V8.83872Z" fill="#FA3E1B"/>
        <path d="M78.1271 43.59C78.1271 43.59 76.3008 44.7857 75.8066 41.2695L74.9375 44.1637L76.0225 46.1433L78.1271 43.59Z" fill="#FA3E1B"/>
    </g>
    <defs>
        <clipPath id="clip0_1679_38577">
            <rect width="177.684" height="92.7273" fill="white" transform="translate(3.72656 2)"/>
        </clipPath>
    </defs>
</svg>
