<svg xmlns="http://www.w3.org/2000/svg" width="218" height="155" viewBox="0 0 218 155" fill="none">
    <path d="M75.9611 37.1445L72.8649 54.9129C72.1471 54.1951 71.2044 53.5246 70.037 52.8935C69.047 52.4439 67.7494 51.9982 66.1323 51.5485C64.5152 51.0989 62.4997 50.8741 60.0741 50.8741H51.0578V119.924C51.0578 122.346 51.3259 124.413 51.8663 126.116C52.4027 127.82 53.0298 129.213 53.7516 130.289C54.5601 131.548 55.5028 132.534 56.5795 133.251H18.6211C19.6072 132.534 20.5064 131.548 21.315 130.289C22.0328 129.213 22.6836 127.824 23.2673 126.116C23.8511 124.413 24.1429 122.346 24.1429 119.924V50.8741H14.3181C11.8964 50.8741 9.80991 51.0989 8.05872 51.5485C6.30752 51.9982 4.84819 52.4478 3.68466 52.8935C2.33971 53.5206 1.21563 54.1951 0.320312 54.9129L3.41647 37.1445H75.965H75.9611Z" fill="#98D5DE"/>
    <path d="M121.727 118.441C124.689 117.723 127.197 116.915 129.264 116.02C131.595 115.033 133.614 113.866 135.322 112.521L131.552 133.248H65.1953C66.1813 132.53 67.0806 131.544 67.8892 130.285C68.607 129.209 69.2578 127.82 69.8415 126.113C70.4252 124.409 70.7171 122.342 70.7171 119.92V50.602C70.7171 48.1803 70.4252 46.1175 69.8415 44.4097C69.2578 42.7058 68.607 41.3135 67.8892 40.2368C67.0806 38.9825 66.1853 37.9492 65.1953 37.1406H103.154C102.077 37.9492 101.134 38.9825 100.326 40.2368C99.6079 41.3135 98.9808 42.7058 98.4405 44.4097C97.9041 46.1135 97.6319 48.1803 97.6319 50.602V119.518H111.227C115.266 119.518 118.765 119.159 121.727 118.441Z" fill="#98D5DE"/>
    <path d="M169.103 37.1445C175.741 37.1445 181.976 38.4027 187.814 40.9151C193.647 43.4275 198.715 46.859 203.022 51.2133C207.329 55.5676 210.737 60.6595 213.253 66.4889C215.766 72.3223 217.024 78.558 217.024 85.1999C217.024 91.8419 215.766 98.0776 213.253 103.911C210.741 109.744 207.329 114.836 203.022 119.187C198.715 123.541 193.643 126.972 187.814 129.485C181.98 131.997 175.745 133.255 169.103 133.255H127.914C128.9 132.538 129.799 131.552 130.608 130.293C131.326 129.217 131.977 127.828 132.56 126.12C133.144 124.417 133.436 122.35 133.436 119.928V50.6098C133.436 48.1881 133.144 46.1253 132.56 44.4175C131.977 42.7137 131.326 41.3214 130.608 40.2446C129.799 38.9904 128.904 37.957 127.914 37.1485H169.103V37.1445ZM165.064 119.518C168.294 119.518 171.343 119.001 174.218 117.972C177.09 116.942 179.602 115.124 181.756 112.521C183.909 109.918 185.613 106.419 186.871 102.022C188.125 97.6279 188.756 92.0154 188.756 85.196C188.756 78.3766 188.129 72.768 186.871 68.3703C185.613 63.9765 183.909 60.4741 181.756 57.871C179.602 55.2679 177.09 53.4536 174.218 52.4202C171.347 51.3908 168.294 50.8741 165.064 50.8741H160.355V119.518H165.064Z" fill="#98D5DE"/>
    <path d="M125.965 14.475C127.132 19.275 127.199 23.7635 126.166 27.9364C125.136 32.1093 123.338 35.8325 120.782 39.1062C118.226 42.3798 115.69 44.9593 113.178 46.8446L107.928 41.729C109.454 40.2026 110.551 38.3647 111.225 36.2112C111.9 34.0577 112.058 31.6793 111.695 29.0762C111.336 26.4731 110.417 23.7358 108.934 20.8645C107.455 17.9932 105.278 15.1652 102.406 12.3846L116.944 0C121.792 4.84735 124.797 9.66709 125.961 14.4711L125.965 14.475Z" fill="#98D5DE"/>
    <path d="M4.64226 148.596C4.59493 148.549 4.5121 148.49 4.39377 148.411C4.27151 148.332 4.12557 148.257 3.95203 148.182C3.77849 148.107 3.58917 148.044 3.38802 147.993C3.18687 147.941 2.97783 147.914 2.77273 147.914C2.40198 147.914 2.12195 147.981 1.94052 148.119C1.75909 148.257 1.66838 148.45 1.66838 148.695C1.66838 148.837 1.70387 148.959 1.77092 149.054C1.83797 149.148 1.94052 149.231 2.07067 149.302C2.20083 149.373 2.36648 149.44 2.56369 149.499C2.7609 149.558 2.9936 149.622 3.25392 149.685C3.59311 149.775 3.90076 149.874 4.18079 149.977C4.45688 150.083 4.69353 150.213 4.88679 150.367C5.08005 150.525 5.22599 150.71 5.33248 150.931C5.43897 151.152 5.49024 151.42 5.49024 151.74C5.49024 152.11 5.41925 152.43 5.28121 152.694C5.13922 152.958 4.9499 153.171 4.71325 153.337C4.4766 153.499 4.20051 153.621 3.89287 153.696C3.58128 153.771 3.25786 153.81 2.91867 153.81C2.39804 153.81 1.88136 153.731 1.37257 153.574C0.863771 153.416 0.406247 153.195 0 152.907L0.595569 151.74C0.654731 151.799 0.761222 151.874 0.915044 151.968C1.06887 152.063 1.25029 152.158 1.45933 152.252C1.66837 152.347 1.90108 152.426 2.1535 152.493C2.40593 152.56 2.67018 152.592 2.93838 152.592C3.68383 152.592 4.05458 152.355 4.05458 151.878C4.05458 151.728 4.01119 151.602 3.92837 151.495C3.8416 151.393 3.72327 151.298 3.56551 151.219C3.40774 151.14 3.21842 151.069 2.99755 151.002C2.77668 150.935 2.5282 150.864 2.25211 150.785C1.9208 150.694 1.62893 150.596 1.3844 150.485C1.13986 150.379 0.934764 150.249 0.773054 150.103C0.611345 149.957 0.489073 149.787 0.406246 149.594C0.323419 149.401 0.283979 149.172 0.283979 148.904C0.283979 148.553 0.351029 148.237 0.481186 147.965C0.611342 147.693 0.792775 147.464 1.02548 147.279C1.25818 147.097 1.52639 146.959 1.83403 146.865C2.14167 146.77 2.46903 146.723 2.82401 146.723C3.31308 146.723 3.76272 146.798 4.17685 146.951C4.58704 147.105 4.94596 147.287 5.2536 147.496L4.65803 148.592L4.64226 148.596Z" fill="white"/>
    <path d="M7.79688 153.727V146.773H10.7431C11.0626 146.773 11.3584 146.84 11.6306 146.975C11.9027 147.109 12.1354 147.286 12.3326 147.503C12.5298 147.72 12.6797 147.969 12.7941 148.249C12.9045 148.525 12.9598 148.805 12.9598 149.085C12.9598 149.365 12.9085 149.664 12.802 149.941C12.6994 150.217 12.5496 150.465 12.3602 150.682C12.1709 150.899 11.9422 151.069 11.674 151.203C11.4058 151.337 11.1139 151.4 10.7944 151.4H9.14971V153.731H7.79688V153.727ZM9.14971 150.213H10.7155C10.964 150.213 11.1691 150.11 11.3387 149.909C11.5044 149.708 11.5872 149.432 11.5872 149.089C11.5872 148.911 11.5596 148.753 11.5083 148.615C11.457 148.473 11.386 148.355 11.3032 148.256C11.2204 148.158 11.1178 148.087 11.0035 148.036C10.8891 147.988 10.7747 147.961 10.6564 147.961H9.14971V150.213Z" fill="white"/>
    <path d="M18.1536 153.779C17.6449 153.779 17.1834 153.68 16.7692 153.479C16.3551 153.282 16.0001 153.017 15.7004 152.686C15.4006 152.355 15.1719 151.98 15.0102 151.554C14.8485 151.128 14.7656 150.694 14.7656 150.253C14.7656 149.811 14.8524 149.345 15.0259 148.92C15.1995 148.494 15.4361 148.119 15.7398 147.791C16.0435 147.464 16.4024 147.204 16.8205 147.014C17.2386 146.821 17.6922 146.727 18.1812 146.727C18.6703 146.727 19.1436 146.829 19.5578 147.034C19.9719 147.239 20.3269 147.508 20.6187 147.843C20.9106 148.174 21.1394 148.553 21.305 148.979C21.4667 149.405 21.5495 149.835 21.5495 150.272C21.5495 150.738 21.4628 151.18 21.2932 151.598C21.1236 152.02 20.8869 152.39 20.5872 152.714C20.2874 153.037 19.9285 153.294 19.5104 153.487C19.0924 153.68 18.6388 153.775 18.1497 153.775L18.1536 153.779ZM16.1342 150.253C16.1342 150.552 16.1816 150.844 16.2723 151.124C16.363 151.404 16.4971 151.653 16.6706 151.87C16.8442 152.087 17.0572 152.256 17.3057 152.39C17.5541 152.524 17.8421 152.588 18.1615 152.588C18.481 152.588 18.7768 152.521 19.0292 152.386C19.2817 152.252 19.4946 152.075 19.6642 151.854C19.8338 151.633 19.9679 151.381 20.0547 151.105C20.1415 150.828 20.1849 150.544 20.1849 150.257C20.1849 149.969 20.1375 149.665 20.0429 149.385C19.9482 149.105 19.8141 148.856 19.6406 148.639C19.467 148.423 19.2541 148.253 19.0056 148.127C18.7532 148.001 18.4731 147.937 18.1576 147.937C17.8421 147.937 17.5423 148.004 17.2859 148.139C17.0296 148.273 16.8205 148.45 16.6509 148.667C16.4813 148.884 16.3512 149.132 16.2644 149.413C16.1776 149.689 16.1342 149.973 16.1342 150.261V150.253Z" fill="white"/>
    <path d="M23.8789 153.727V146.773H26.9554C27.2748 146.773 27.5707 146.84 27.8428 146.975C28.115 147.109 28.3477 147.286 28.5409 147.503C28.7381 147.72 28.8919 147.969 29.0024 148.249C29.1128 148.525 29.168 148.805 29.168 149.085C29.168 149.534 29.0537 149.945 28.8288 150.315C28.604 150.686 28.3003 150.95 27.9138 151.112L29.4993 153.727H27.9809L26.561 151.396H25.2278V153.727H23.875H23.8789ZM25.2318 150.213H26.9238C27.0461 150.213 27.1644 150.185 27.2709 150.126C27.3774 150.067 27.4721 149.988 27.5509 149.885C27.6298 149.783 27.6929 149.664 27.7363 149.526C27.7836 149.388 27.8034 149.242 27.8034 149.085C27.8034 148.927 27.7758 148.773 27.7245 148.635C27.6732 148.497 27.6022 148.379 27.5154 148.276C27.4287 148.174 27.3261 148.099 27.2118 148.04C27.0974 147.984 26.983 147.957 26.8647 147.957H25.2278V150.209L25.2318 150.213Z" fill="white"/>
    <path d="M36.7782 147.961H34.5577V153.727H33.2167V147.961H30.9922V146.777H36.7782V147.961Z" fill="white"/>
    <path d="M45.9922 154.999V146.137H47.1084V154.999H45.9922Z" fill="white"/>
    <path d="M62.0073 152.544V153.727H57.1797V146.773H61.9206V147.957H58.5325V149.633H61.4591V150.729H58.5325V152.54H62.0073V152.544Z" fill="white"/>
    <path d="M65.7122 149.274V153.731H64.3594V146.777H65.4085L69.0332 151.341V146.789H70.386V153.731H69.2896L65.7162 149.274H65.7122Z" fill="white"/>
    <path d="M78.3251 147.961H76.1046V153.727H74.7636V147.961H72.5391V146.777H78.3251V147.961Z" fill="white"/>
    <path d="M85.3042 152.544V153.727H80.4766V146.773H85.2174V147.957H81.8294V149.633H84.756V150.729H81.8294V152.54H85.3042V152.544Z" fill="white"/>
    <path d="M87.6524 153.727V146.773H90.7288C91.0483 146.773 91.3441 146.84 91.6162 146.975C91.8884 147.109 92.1211 147.286 92.3144 147.503C92.5116 147.72 92.6654 147.969 92.7758 148.249C92.8863 148.525 92.9415 148.805 92.9415 149.085C92.9415 149.534 92.8271 149.945 92.6023 150.315C92.3775 150.686 92.0738 150.95 91.6872 151.112L93.2728 153.727H91.7543L90.3344 151.396H89.0013V153.727H87.6484H87.6524ZM89.0052 150.213H90.6973C90.8195 150.213 90.9379 150.185 91.0443 150.126C91.1508 150.067 91.2455 149.988 91.3244 149.885C91.4033 149.783 91.4664 149.664 91.5098 149.526C91.5571 149.388 91.5768 149.242 91.5768 149.085C91.5768 148.927 91.5492 148.773 91.4979 148.635C91.4466 148.497 91.3757 148.379 91.2889 148.276C91.2021 148.174 91.0996 148.099 90.9852 148.04C90.8708 147.984 90.7564 147.957 90.6381 147.957H89.0013V150.209L89.0052 150.213Z" fill="white"/>
    <path d="M100.552 147.961H98.3311V153.727H96.9901V147.961H94.7656V146.777H100.552V147.961Z" fill="white"/>
    <path d="M104.002 146.777H105.197L107.84 153.731H106.447L105.801 151.999H103.371L102.736 153.731H101.344L103.998 146.777H104.002ZM105.56 151.045L104.602 148.312L103.604 151.045H105.564H105.56Z" fill="white"/>
    <path d="M109.891 153.727V146.773H111.243V153.727H109.891Z" fill="white"/>
    <path d="M115.337 149.274V153.731H113.984V146.777H115.034L118.658 151.341V146.789H120.011V153.731H118.915L115.341 149.274H115.337Z" fill="white"/>
    <path d="M128.418 153.727V149.124L126.627 152.552H125.893L124.103 149.124V153.727H122.75V146.773H124.197L126.252 150.729L128.327 146.773H129.767V153.727H128.414H128.418Z" fill="white"/>
    <path d="M137.335 152.544V153.727H132.508V146.773H137.249V147.957H133.861V149.633H136.787V150.729H133.861V152.54H137.335V152.544Z" fill="white"/>
    <path d="M141.04 149.274V153.731H139.688V146.777H140.737L144.361 151.341V146.789H145.714V153.731H144.618L141.044 149.274H141.04Z" fill="white"/>
    <path d="M153.653 147.961H151.433V153.727H150.092V147.961H147.867V146.777H153.653V147.961Z" fill="white"/>
    <path d="M162.867 154.999V146.137H163.983V154.999H162.867Z" fill="white"/>
    <path d="M178.989 147.961H176.769V153.727H175.428V147.961H173.203V146.777H178.989V147.961Z" fill="white"/>
    <path d="M182.432 146.777H183.627L186.269 153.731H184.877L184.23 151.999H181.801L181.166 153.731H179.773L182.428 146.777H182.432ZM183.986 151.045L183.027 148.312L182.029 151.045H183.99H183.986Z" fill="white"/>
    <path d="M188.328 153.727V146.773H189.681V152.54H193.227V153.723H188.332L188.328 153.727Z" fill="white"/>
    <path d="M200.164 152.544V153.727H195.336V146.773H200.077V147.957H196.689V149.633H199.615V150.729H196.689V152.54H200.164V152.544Z" fill="white"/>
    <path d="M203.861 149.274V153.731H202.508V146.777H203.557L207.182 151.341V146.789H208.534V153.731H207.438L203.865 149.274H203.861Z" fill="white"/>
    <path d="M216.481 147.961H214.261V153.727H212.92V147.961H210.695V146.777H216.481V147.961Z" fill="white"/>
</svg>