<svg width="1252" height="186" viewBox="0 0 1252 186" fill="none" xmlns="http://www.w3.org/2000/svg">
    <mask id="mask0_1679_39377" style="mask-type:alpha" maskUnits="userSpaceOnUse" x="0" y="0" width="1252" height="186">
        <rect width="1252" height="186" fill="#E7E7E7"/>
    </mask>
    <g mask="url(#mask0_1679_39377)">
        <path d="M59.6388 29.5603C59.6388 38.9212 59.6105 48.2869 59.6717 57.6478C59.6811 59.0072 59.2623 59.3775 57.9493 59.3588C53.4928 59.2932 49.0363 59.2979 44.5798 59.3588C43.2198 59.3775 42.7116 58.9978 42.721 57.5541C42.7869 48.5306 42.7633 39.5025 42.7492 30.479C42.7492 30.029 43.0316 29.3775 42.5233 29.1665C42.0151 28.9556 41.7515 29.6212 41.4315 29.94C32.0526 39.2962 22.6831 48.6666 13.3136 58.0369C12.4289 58.9213 11.5363 58.9166 10.6359 58.0228C7.48767 54.8822 4.36764 51.7088 1.16761 48.615C0.217012 47.6963 0.202898 47.1056 1.15349 46.1587C10.5889 36.7884 19.9819 27.3759 29.3797 17.968C29.6997 17.6446 30.3914 17.3962 30.1844 16.8852C29.9397 16.2805 29.2338 16.6227 28.7491 16.618C19.7843 16.5993 10.8242 16.5665 1.85939 16.6368C0.362899 16.6462 -0.0229881 16.1962 0.00524837 14.7524C0.0946612 10.3133 0.0711324 5.87427 0.00524895 1.4352C-0.0135765 0.0945702 0.442902 -0.313244 1.76997 -0.308556C20.5184 -0.275743 39.2715 -0.275742 58.0199 -0.308554C59.2905 -0.308554 59.6717 0.0523846 59.6623 1.33208C59.6105 10.7446 59.6341 20.1524 59.6341 29.565L59.6388 29.5603Z" fill="#F0F0F0"/>
        <path d="M118.272 29.5603C118.272 38.9212 118.243 48.2869 118.305 57.6478C118.314 59.0072 117.895 59.3775 116.582 59.3588C112.126 59.2932 107.669 59.2979 103.213 59.3588C101.853 59.3775 101.344 58.9978 101.354 57.5541C101.42 48.5306 101.396 39.5025 101.382 30.479C101.382 30.029 101.664 29.3775 101.156 29.1665C100.648 28.9556 100.384 29.6212 100.064 29.94C90.6854 39.2962 81.3159 48.6666 71.9464 58.0369C71.0617 58.9213 70.1691 58.9166 69.2688 58.0228C66.1205 54.8822 63.0005 51.7088 59.8004 48.615C58.8498 47.6963 58.8357 47.1056 59.7863 46.1587C69.2217 36.7884 78.6147 27.3759 88.0125 17.968C88.3325 17.6446 89.0242 17.3962 88.8172 16.8852C88.5725 16.2805 87.8666 16.6227 87.3819 16.618C78.4171 16.5993 69.457 16.5665 60.4922 16.6368C58.9957 16.6462 58.6098 16.1962 58.6381 14.7524C58.7275 10.3133 58.7039 5.87427 58.6381 1.4352C58.6192 0.0945702 59.0757 -0.313244 60.4028 -0.308556C79.1512 -0.275743 97.9043 -0.275742 116.653 -0.308554C117.923 -0.308554 118.305 0.0523846 118.295 1.33208C118.243 10.7446 118.267 20.1524 118.267 29.565L118.272 29.5603Z" fill="#F0F0F0"/>
        <path d="M177.943 29.5603C177.943 38.9212 177.915 48.2869 177.976 57.6478C177.986 59.0072 177.567 59.3775 176.254 59.3588C171.798 59.2932 167.341 59.2979 162.884 59.3588C161.524 59.3775 161.016 58.9978 161.026 57.5541C161.092 48.5306 161.068 39.5025 161.054 30.479C161.054 30.029 161.336 29.3775 160.828 29.1665C160.32 28.9556 160.056 29.6212 159.736 29.94C150.357 39.2962 140.988 48.6666 131.618 58.0369C130.734 58.9213 129.841 58.9166 128.941 58.0228C125.792 54.8822 122.672 51.7088 119.472 48.615C118.522 47.6963 118.508 47.1056 119.458 46.1587C128.894 36.7884 138.287 27.3759 147.684 17.968C148.004 17.6446 148.696 17.3962 148.489 16.8852C148.244 16.2805 147.538 16.6227 147.054 16.618C138.089 16.5993 129.129 16.5665 120.164 16.6368C118.668 16.6462 118.282 16.1962 118.31 14.7524C118.399 10.3133 118.376 5.87427 118.31 1.4352C118.291 0.0945702 118.748 -0.313244 120.075 -0.308556C138.823 -0.275743 157.576 -0.275742 176.325 -0.308554C177.595 -0.308554 177.976 0.0523846 177.967 1.33208C177.915 10.7446 177.939 20.1524 177.939 29.565L177.943 29.5603Z" fill="#F0F0F0"/>
        <path d="M237.608 29.5603C237.608 38.9212 237.579 48.2869 237.64 57.6478C237.65 59.0072 237.231 59.3775 235.918 59.3588C231.462 59.2932 227.005 59.2979 222.549 59.3588C221.189 59.3775 220.68 58.9978 220.69 57.5541C220.756 48.5306 220.732 39.5025 220.718 30.479C220.718 30.029 221 29.3775 220.492 29.1665C219.984 28.9556 219.72 29.6212 219.4 29.94C210.021 39.2962 200.652 48.6666 191.282 58.0369C190.398 58.9213 189.505 58.9166 188.605 58.0228C185.456 54.8822 182.336 51.7088 179.136 48.615C178.186 47.6963 178.172 47.1056 179.122 46.1587C188.558 36.7884 197.951 27.3759 207.348 17.968C207.668 17.6446 208.36 17.3962 208.153 16.8852C207.908 16.2805 207.203 16.6227 206.718 16.618C197.753 16.5993 188.793 16.5665 179.828 16.6368C178.332 16.6462 177.946 16.1962 177.974 14.7524C178.063 10.3133 178.04 5.87427 177.974 1.4352C177.955 0.0945702 178.412 -0.313244 179.739 -0.308556C198.487 -0.275743 217.24 -0.275742 235.989 -0.308554C237.259 -0.308554 237.64 0.0523846 237.631 1.33208C237.579 10.7446 237.603 20.1524 237.603 29.565L237.608 29.5603Z" fill="#F0F0F0"/>
        <path d="M297.279 29.5603C297.279 38.9212 297.251 48.2869 297.312 57.6478C297.322 59.0072 296.903 59.3775 295.59 59.3588C291.133 59.2932 286.677 59.2979 282.22 59.3588C280.86 59.3775 280.352 58.9978 280.362 57.5541C280.427 48.5306 280.404 39.5025 280.39 30.479C280.39 30.029 280.672 29.3775 280.164 29.1665C279.656 28.9556 279.392 29.6212 279.072 29.94C269.693 39.2962 260.324 48.6666 250.954 58.0369C250.07 58.9213 249.177 58.9166 248.277 58.0228C245.128 54.8822 242.008 51.7088 238.808 48.615C237.858 47.6963 237.844 47.1056 238.794 46.1587C248.23 36.7884 257.623 27.3759 267.02 17.968C267.34 17.6446 268.032 17.3962 267.825 16.8852C267.58 16.2805 266.874 16.6227 266.39 16.618C257.425 16.5993 248.465 16.5665 239.5 16.6368C238.004 16.6462 237.618 16.1962 237.646 14.7524C237.735 10.3133 237.712 5.87427 237.646 1.4352C237.627 0.0945702 238.084 -0.313244 239.411 -0.308556C258.159 -0.275743 276.912 -0.275742 295.661 -0.308554C296.931 -0.308554 297.312 0.0523846 297.303 1.33208C297.251 10.7446 297.275 20.1524 297.275 29.565L297.279 29.5603Z" fill="#F0F0F0"/>
        <path d="M356.951 29.5603C356.951 38.9212 356.923 48.2869 356.984 57.6478C356.994 59.0072 356.575 59.3775 355.262 59.3588C350.805 59.2932 346.349 59.2979 341.892 59.3588C340.532 59.3775 340.024 58.9978 340.033 57.5541C340.099 48.5306 340.076 39.5025 340.062 30.479C340.062 30.029 340.344 29.3775 339.836 29.1665C339.328 28.9556 339.064 29.6212 338.744 29.94C329.365 39.2962 319.996 48.6666 310.626 58.0369C309.741 58.9213 308.849 58.9166 307.948 58.0228C304.8 54.8822 301.68 51.7088 298.48 48.615C297.53 47.6963 297.515 47.1056 298.466 46.1587C307.901 36.7884 317.294 27.3759 326.692 17.968C327.012 17.6446 327.704 17.3962 327.497 16.8852C327.252 16.2805 326.546 16.6227 326.062 16.618C317.097 16.5993 308.137 16.5665 299.172 16.6368C297.675 16.6462 297.29 16.1962 297.318 14.7524C297.407 10.3133 297.384 5.87427 297.318 1.4352C297.299 0.0945702 297.755 -0.313244 299.082 -0.308556C317.831 -0.275743 336.584 -0.275742 355.332 -0.308554C356.603 -0.308554 356.984 0.0523846 356.975 1.33208C356.923 10.7446 356.947 20.1524 356.947 29.565L356.951 29.5603Z" fill="#F0F0F0"/>
        <path d="M416.615 29.5603C416.615 38.9212 416.587 48.2869 416.648 57.6478C416.658 59.0072 416.239 59.3775 414.926 59.3588C410.469 59.2932 406.013 59.2979 401.556 59.3588C400.196 59.3775 399.688 58.9978 399.698 57.5541C399.763 48.5306 399.74 39.5025 399.726 30.479C399.726 30.029 400.008 29.3775 399.5 29.1665C398.992 28.9556 398.728 29.6212 398.408 29.94C389.029 39.2962 379.66 48.6666 370.29 58.0369C369.405 58.9213 368.513 58.9166 367.613 58.0228C364.464 54.8822 361.344 51.7088 358.144 48.615C357.194 47.6963 357.179 47.1056 358.13 46.1587C367.565 36.7884 376.958 27.3759 386.356 17.968C386.676 17.6446 387.368 17.3962 387.161 16.8852C386.916 16.2805 386.21 16.6227 385.726 16.618C376.761 16.5993 367.801 16.5665 358.836 16.6368C357.339 16.6462 356.954 16.1962 356.982 14.7524C357.071 10.3133 357.048 5.87427 356.982 1.4352C356.963 0.0945702 357.419 -0.313244 358.747 -0.308556C377.495 -0.275743 396.248 -0.275742 414.996 -0.308554C416.267 -0.308554 416.648 0.0523846 416.639 1.33208C416.587 10.7446 416.611 20.1524 416.611 29.565L416.615 29.5603Z" fill="#F0F0F0"/>
        <path d="M476.279 29.5603C476.279 38.9212 476.251 48.2869 476.312 57.6478C476.322 59.0072 475.903 59.3775 474.59 59.3588C470.133 59.2932 465.677 59.2979 461.22 59.3588C459.86 59.3775 459.352 58.9978 459.362 57.5541C459.427 48.5306 459.404 39.5025 459.39 30.479C459.39 30.029 459.672 29.3775 459.164 29.1665C458.656 28.9556 458.392 29.6212 458.072 29.94C448.693 39.2962 439.324 48.6666 429.954 58.0369C429.07 58.9213 428.177 58.9166 427.277 58.0228C424.128 54.8822 421.008 51.7088 417.808 48.615C416.858 47.6963 416.844 47.1056 417.794 46.1587C427.23 36.7884 436.623 27.3759 446.02 17.968C446.34 17.6446 447.032 17.3962 446.825 16.8852C446.58 16.2805 445.874 16.6227 445.39 16.618C436.425 16.5993 427.465 16.5665 418.5 16.6368C417.004 16.6462 416.618 16.1962 416.646 14.7524C416.735 10.3133 416.712 5.87427 416.646 1.4352C416.627 0.0945702 417.084 -0.313244 418.411 -0.308556C437.159 -0.275743 455.912 -0.275742 474.661 -0.308554C475.931 -0.308554 476.312 0.0523846 476.303 1.33208C476.251 10.7446 476.275 20.1524 476.275 29.565L476.279 29.5603Z" fill="#F0F0F0"/>
        <path d="M535.951 29.5603C535.951 38.9212 535.923 48.2869 535.984 57.6478C535.994 59.0072 535.575 59.3775 534.262 59.3588C529.805 59.2932 525.349 59.2979 520.892 59.3588C519.532 59.3775 519.024 58.9978 519.033 57.5541C519.099 48.5306 519.076 39.5025 519.062 30.479C519.062 30.029 519.344 29.3775 518.836 29.1665C518.328 28.9556 518.064 29.6212 517.744 29.94C508.365 39.2962 498.996 48.6666 489.626 58.0369C488.741 58.9213 487.849 58.9166 486.948 58.0228C483.8 54.8822 480.68 51.7088 477.48 48.615C476.53 47.6963 476.515 47.1056 477.466 46.1587C486.901 36.7884 496.294 27.3759 505.692 17.968C506.012 17.6446 506.704 17.3962 506.497 16.8852C506.252 16.2805 505.546 16.6227 505.062 16.618C496.097 16.5993 487.137 16.5665 478.172 16.6368C476.675 16.6462 476.29 16.1962 476.318 14.7524C476.407 10.3133 476.384 5.87427 476.318 1.4352C476.299 0.0945702 476.755 -0.313244 478.082 -0.308556C496.831 -0.275743 515.584 -0.275742 534.332 -0.308554C535.603 -0.308554 535.984 0.0523846 535.975 1.33208C535.923 10.7446 535.947 20.1524 535.947 29.565L535.951 29.5603Z" fill="#F0F0F0"/>
        <path d="M595.623 29.5603C595.623 38.9212 595.595 48.2869 595.656 57.6478C595.666 59.0072 595.247 59.3775 593.934 59.3588C589.477 59.2932 585.021 59.2979 580.564 59.3588C579.204 59.3775 578.696 58.9978 578.705 57.5541C578.771 48.5306 578.748 39.5025 578.734 30.479C578.734 30.029 579.016 29.3775 578.508 29.1665C577.999 28.9556 577.736 29.6212 577.416 29.94C568.037 39.2962 558.667 48.6666 549.298 58.0369C548.413 58.9213 547.521 58.9166 546.62 58.0228C543.472 54.8822 540.352 51.7088 537.152 48.615C536.201 47.6963 536.187 47.1056 537.138 46.1587C546.573 36.7884 555.966 27.3759 565.364 17.968C565.684 17.6446 566.376 17.3962 566.169 16.8852C565.924 16.2805 565.218 16.6227 564.733 16.618C555.769 16.5993 546.809 16.5665 537.844 16.6368C536.347 16.6462 535.961 16.1962 535.99 14.7524C536.079 10.3133 536.056 5.87427 535.99 1.4352C535.971 0.0945702 536.427 -0.313244 537.754 -0.308556C556.503 -0.275743 575.256 -0.275742 594.004 -0.308554C595.275 -0.308554 595.656 0.0523846 595.647 1.33208C595.595 10.7446 595.618 20.1524 595.618 29.565L595.623 29.5603Z" fill="#F0F0F0"/>
        <path d="M655.287 29.5603C655.287 38.9212 655.259 48.2869 655.32 57.6478C655.33 59.0072 654.911 59.3775 653.598 59.3588C649.141 59.2932 644.685 59.2979 640.228 59.3588C638.868 59.3775 638.36 58.9978 638.369 57.5541C638.435 48.5306 638.412 39.5025 638.398 30.479C638.398 30.029 638.68 29.3775 638.172 29.1665C637.664 28.9556 637.4 29.6212 637.08 29.94C627.701 39.2962 618.332 48.6666 608.962 58.0369C608.077 58.9213 607.185 58.9166 606.284 58.0228C603.136 54.8822 600.016 51.7088 596.816 48.615C595.865 47.6963 595.851 47.1056 596.802 46.1587C606.237 36.7884 615.63 27.3759 625.028 17.968C625.348 17.6446 626.04 17.3962 625.833 16.8852C625.588 16.2805 624.882 16.6227 624.398 16.618C615.433 16.5993 606.473 16.5665 597.508 16.6368C596.011 16.6462 595.625 16.1962 595.654 14.7524C595.743 10.3133 595.72 5.87427 595.654 1.4352C595.635 0.0945702 596.091 -0.313244 597.418 -0.308556C616.167 -0.275743 634.92 -0.275742 653.668 -0.308554C654.939 -0.308554 655.32 0.0523846 655.311 1.33208C655.259 10.7446 655.283 20.1524 655.283 29.565L655.287 29.5603Z" fill="#F0F0F0"/>
        <path d="M714.959 29.5603C714.959 38.9212 714.931 48.2869 714.992 57.6478C715.001 59.0072 714.583 59.3775 713.27 59.3588C708.813 59.2932 704.357 59.2979 699.9 59.3588C698.54 59.3775 698.032 58.9978 698.041 57.5541C698.107 48.5306 698.084 39.5025 698.07 30.479C698.07 30.029 698.352 29.3775 697.844 29.1665C697.335 28.9556 697.072 29.6212 696.752 29.94C687.373 39.2962 678.003 48.6666 668.634 58.0369C667.749 58.9213 666.857 58.9166 665.956 58.0228C662.808 54.8822 659.688 51.7088 656.488 48.615C655.537 47.6963 655.523 47.1056 656.474 46.1587C665.909 36.7884 675.302 27.3759 684.7 17.968C685.02 17.6446 685.712 17.3962 685.505 16.8852C685.26 16.2805 684.554 16.6227 684.069 16.618C675.105 16.5993 666.144 16.5665 657.18 16.6368C655.683 16.6462 655.297 16.1962 655.326 14.7524C655.415 10.3133 655.391 5.87427 655.326 1.4352C655.307 0.0945702 655.763 -0.313244 657.09 -0.308556C675.839 -0.275743 694.592 -0.275742 713.34 -0.308554C714.611 -0.308554 714.992 0.0523846 714.983 1.33208C714.931 10.7446 714.954 20.1524 714.954 29.565L714.959 29.5603Z" fill="#F0F0F0"/>
        <path d="M774.623 29.5603C774.623 38.9212 774.595 48.2869 774.656 57.6478C774.666 59.0072 774.247 59.3775 772.934 59.3588C768.477 59.2932 764.021 59.2979 759.564 59.3588C758.204 59.3775 757.696 58.9978 757.705 57.5541C757.771 48.5306 757.748 39.5025 757.734 30.479C757.734 30.029 758.016 29.3775 757.508 29.1665C756.999 28.9556 756.736 29.6212 756.416 29.94C747.037 39.2962 737.667 48.6666 728.298 58.0369C727.413 58.9213 726.521 58.9166 725.62 58.0228C722.472 54.8822 719.352 51.7088 716.152 48.615C715.201 47.6963 715.187 47.1056 716.138 46.1587C725.573 36.7884 734.966 27.3759 744.364 17.968C744.684 17.6446 745.376 17.3962 745.169 16.8852C744.924 16.2805 744.218 16.6227 743.733 16.618C734.769 16.5993 725.809 16.5665 716.844 16.6368C715.347 16.6462 714.961 16.1962 714.99 14.7524C715.079 10.3133 715.056 5.87427 714.99 1.4352C714.971 0.0945702 715.427 -0.313244 716.754 -0.308556C735.503 -0.275743 754.256 -0.275742 773.004 -0.308554C774.275 -0.308554 774.656 0.0523846 774.647 1.33208C774.595 10.7446 774.618 20.1524 774.618 29.565L774.623 29.5603Z" fill="#F0F0F0"/>
        <path d="M834.295 29.5603C834.295 38.9212 834.267 48.2869 834.328 57.6478C834.337 59.0072 833.919 59.3775 832.606 59.3588C828.149 59.2932 823.693 59.2979 819.236 59.3588C817.876 59.3775 817.368 58.9978 817.377 57.5541C817.443 48.5306 817.42 39.5025 817.405 30.479C817.405 30.029 817.688 29.3775 817.18 29.1665C816.671 28.9556 816.408 29.6212 816.088 29.94C806.709 39.2962 797.339 48.6666 787.97 58.0369C787.085 58.9213 786.193 58.9166 785.292 58.0228C782.144 54.8822 779.024 51.7088 775.824 48.615C774.873 47.6963 774.859 47.1056 775.81 46.1587C785.245 36.7884 794.638 27.3759 804.036 17.968C804.356 17.6446 805.048 17.3962 804.841 16.8852C804.596 16.2805 803.89 16.6227 803.405 16.618C794.441 16.5993 785.48 16.5665 776.516 16.6368C775.019 16.6462 774.633 16.1962 774.661 14.7524C774.751 10.3133 774.727 5.87427 774.661 1.4352C774.643 0.0945702 775.099 -0.313244 776.426 -0.308556C795.175 -0.275743 813.928 -0.275742 832.676 -0.308554C833.947 -0.308554 834.328 0.0523846 834.319 1.33208C834.267 10.7446 834.29 20.1524 834.29 29.565L834.295 29.5603Z" fill="#F0F0F0"/>
        <path d="M893.959 29.5603C893.959 38.9212 893.931 48.2869 893.992 57.6478C894.001 59.0072 893.583 59.3775 892.27 59.3588C887.813 59.2932 883.357 59.2979 878.9 59.3588C877.54 59.3775 877.032 58.9978 877.041 57.5541C877.107 48.5306 877.084 39.5025 877.07 30.479C877.07 30.029 877.352 29.3775 876.844 29.1665C876.335 28.9556 876.072 29.6212 875.752 29.94C866.373 39.2962 857.003 48.6666 847.634 58.0369C846.749 58.9213 845.857 58.9166 844.956 58.0228C841.808 54.8822 838.688 51.7088 835.488 48.615C834.537 47.6963 834.523 47.1056 835.474 46.1587C844.909 36.7884 854.302 27.3759 863.7 17.968C864.02 17.6446 864.712 17.3962 864.505 16.8852C864.26 16.2805 863.554 16.6227 863.069 16.618C854.105 16.5993 845.144 16.5665 836.18 16.6368C834.683 16.6462 834.297 16.1962 834.326 14.7524C834.415 10.3133 834.391 5.87427 834.326 1.4352C834.307 0.0945702 834.763 -0.313244 836.09 -0.308556C854.839 -0.275743 873.592 -0.275742 892.34 -0.308554C893.611 -0.308554 893.992 0.0523846 893.983 1.33208C893.931 10.7446 893.954 20.1524 893.954 29.565L893.959 29.5603Z" fill="#F0F0F0"/>
        <path d="M953.631 29.5603C953.631 38.9212 953.603 48.2869 953.664 57.6478C953.673 59.0072 953.254 59.3775 951.942 59.3588C947.485 59.2932 943.029 59.2979 938.572 59.3588C937.212 59.3775 936.704 58.9978 936.713 57.5541C936.779 48.5306 936.756 39.5025 936.741 30.479C936.741 30.029 937.024 29.3775 936.516 29.1665C936.007 28.9556 935.744 29.6212 935.424 29.94C926.045 39.2962 916.675 48.6666 907.306 58.0369C906.421 58.9213 905.529 58.9166 904.628 58.0228C901.48 54.8822 898.36 51.7088 895.16 48.615C894.209 47.6963 894.195 47.1056 895.146 46.1587C904.581 36.7884 913.974 27.3759 923.372 17.968C923.692 17.6446 924.384 17.3962 924.177 16.8852C923.932 16.2805 923.226 16.6227 922.741 16.618C913.776 16.5993 904.816 16.5665 895.852 16.6368C894.355 16.6462 893.969 16.1962 893.997 14.7524C894.087 10.3133 894.063 5.87427 893.997 1.4352C893.979 0.0945702 894.435 -0.313244 895.762 -0.308556C914.511 -0.275743 933.264 -0.275742 952.012 -0.308554C953.283 -0.308554 953.664 0.0523846 953.655 1.33208C953.603 10.7446 953.626 20.1524 953.626 29.565L953.631 29.5603Z" fill="#F0F0F0"/>
        <path d="M1013.3 29.5603C1013.3 38.9212 1013.27 48.2869 1013.33 57.6478C1013.34 59.0072 1012.92 59.3775 1011.61 59.3588C1007.15 59.2932 1002.69 59.2979 998.236 59.3588C996.876 59.3775 996.368 58.9978 996.377 57.5541C996.443 48.5306 996.42 39.5025 996.405 30.479C996.405 30.029 996.688 29.3775 996.18 29.1665C995.671 28.9556 995.408 29.6212 995.088 29.94C985.709 39.2962 976.339 48.6666 966.97 58.0369C966.085 58.9213 965.193 58.9166 964.292 58.0228C961.144 54.8822 958.024 51.7088 954.824 48.615C953.873 47.6963 953.859 47.1056 954.81 46.1587C964.245 36.7884 973.638 27.3759 983.036 17.968C983.356 17.6446 984.048 17.3962 983.841 16.8852C983.596 16.2805 982.89 16.6227 982.405 16.618C973.441 16.5993 964.48 16.5665 955.516 16.6368C954.019 16.6462 953.633 16.1962 953.661 14.7524C953.751 10.3133 953.727 5.87427 953.661 1.4352C953.643 0.0945702 954.099 -0.313244 955.426 -0.308556C974.175 -0.275743 992.928 -0.275742 1011.68 -0.308554C1012.95 -0.308554 1013.33 0.0523846 1013.32 1.33208C1013.27 10.7446 1013.29 20.1524 1013.29 29.565L1013.3 29.5603Z" fill="#F0F0F0"/>
        <path d="M1072.97 29.5603C1072.97 38.9212 1072.94 48.2869 1073 57.6478C1073.01 59.0072 1072.59 59.3775 1071.28 59.3588C1066.82 59.2932 1062.36 59.2979 1057.91 59.3588C1056.55 59.3775 1056.04 58.9978 1056.05 57.5541C1056.11 48.5306 1056.09 39.5025 1056.08 30.479C1056.08 30.029 1056.36 29.3775 1055.85 29.1665C1055.34 28.9556 1055.08 29.6212 1054.76 29.94C1045.38 39.2962 1036.01 48.6666 1026.64 58.0369C1025.76 58.9213 1024.86 58.9166 1023.96 58.0228C1020.82 54.8822 1017.7 51.7088 1014.5 48.615C1013.55 47.6963 1013.53 47.1056 1014.48 46.1587C1023.92 36.7884 1033.31 27.3759 1042.71 17.968C1043.03 17.6446 1043.72 17.3962 1043.51 16.8852C1043.27 16.2805 1042.56 16.6227 1042.08 16.618C1033.11 16.5993 1024.15 16.5665 1015.19 16.6368C1013.69 16.6462 1013.31 16.1962 1013.33 14.7524C1013.42 10.3133 1013.4 5.87427 1013.33 1.4352C1013.31 0.0945702 1013.77 -0.313244 1015.1 -0.308556C1033.85 -0.275743 1052.6 -0.275742 1071.35 -0.308554C1072.62 -0.308554 1073 0.0523846 1072.99 1.33208C1072.94 10.7446 1072.96 20.1524 1072.96 29.565L1072.97 29.5603Z" fill="#F0F0F0"/>
        <path d="M1132.63 29.5603C1132.63 38.9212 1132.6 48.2869 1132.66 57.6478C1132.67 59.0072 1132.25 59.3775 1130.94 59.3588C1126.49 59.2932 1122.03 59.2979 1117.57 59.3588C1116.21 59.3775 1115.7 58.9978 1115.71 57.5541C1115.78 48.5306 1115.76 39.5025 1115.74 30.479C1115.74 30.029 1116.02 29.3775 1115.52 29.1665C1115.01 28.9556 1114.74 29.6212 1114.42 29.94C1105.04 39.2962 1095.68 48.6666 1086.31 58.0369C1085.42 58.9213 1084.53 58.9166 1083.63 58.0228C1080.48 54.8822 1077.36 51.7088 1074.16 48.615C1073.21 47.6963 1073.2 47.1056 1074.15 46.1587C1083.58 36.7884 1092.97 27.3759 1102.37 17.968C1102.69 17.6446 1103.38 17.3962 1103.18 16.8852C1102.93 16.2805 1102.23 16.6227 1101.74 16.618C1092.78 16.5993 1083.82 16.5665 1074.85 16.6368C1073.36 16.6462 1072.97 16.1962 1073 14.7524C1073.09 10.3133 1073.06 5.87427 1073 1.4352C1072.98 0.0945702 1073.44 -0.313244 1074.76 -0.308556C1093.51 -0.275743 1112.26 -0.275742 1131.01 -0.308554C1132.28 -0.308554 1132.66 0.0523846 1132.65 1.33208C1132.6 10.7446 1132.63 20.1524 1132.63 29.565L1132.63 29.5603Z" fill="#F0F0F0"/>
        <path d="M1192.3 29.5603C1192.3 38.9212 1192.27 48.2869 1192.34 57.6478C1192.35 59.0072 1191.93 59.3775 1190.61 59.3588C1186.16 59.2932 1181.7 59.2979 1177.24 59.3588C1175.88 59.3775 1175.38 58.9978 1175.39 57.5541C1175.45 48.5306 1175.43 39.5025 1175.41 30.479C1175.41 30.029 1175.7 29.3775 1175.19 29.1665C1174.68 28.9556 1174.42 29.6212 1174.1 29.94C1164.72 39.2962 1155.35 48.6666 1145.98 58.0369C1145.09 58.9213 1144.2 58.9166 1143.3 58.0228C1140.15 54.8822 1137.03 51.7088 1133.83 48.615C1132.88 47.6963 1132.87 47.1056 1133.82 46.1587C1143.25 36.7884 1152.65 27.3759 1162.04 17.968C1162.36 17.6446 1163.06 17.3962 1162.85 16.8852C1162.6 16.2805 1161.9 16.6227 1161.41 16.618C1152.45 16.5993 1143.49 16.5665 1134.52 16.6368C1133.03 16.6462 1132.64 16.1962 1132.67 14.7524C1132.76 10.3133 1132.74 5.87427 1132.67 1.4352C1132.65 0.0945702 1133.11 -0.313244 1134.43 -0.308556C1153.18 -0.275743 1171.94 -0.275742 1190.68 -0.308554C1191.95 -0.308554 1192.34 0.0523846 1192.33 1.33208C1192.27 10.7446 1192.3 20.1524 1192.3 29.565L1192.3 29.5603Z" fill="#F0F0F0"/>
        <path d="M1251.97 29.5603C1251.97 38.9212 1251.94 48.2869 1252 57.6478C1252.01 59.0072 1251.59 59.3775 1250.28 59.3588C1245.82 59.2932 1241.36 59.2979 1236.91 59.3588C1235.55 59.3775 1235.04 58.9978 1235.05 57.5541C1235.11 48.5306 1235.09 39.5025 1235.08 30.479C1235.08 30.029 1235.36 29.3775 1234.85 29.1665C1234.34 28.9556 1234.08 29.6212 1233.76 29.94C1224.38 39.2962 1215.01 48.6666 1205.64 58.0369C1204.76 58.9213 1203.86 58.9166 1202.96 58.0228C1199.82 54.8822 1196.7 51.7088 1193.5 48.615C1192.55 47.6963 1192.53 47.1056 1193.48 46.1587C1202.92 36.7884 1212.31 27.3759 1221.71 17.968C1222.03 17.6446 1222.72 17.3962 1222.51 16.8852C1222.27 16.2805 1221.56 16.6227 1221.08 16.618C1212.11 16.5993 1203.15 16.5665 1194.19 16.6368C1192.69 16.6462 1192.31 16.1962 1192.33 14.7524C1192.42 10.3133 1192.4 5.87427 1192.33 1.4352C1192.31 0.0945702 1192.77 -0.313244 1194.1 -0.308556C1212.85 -0.275743 1231.6 -0.275742 1250.35 -0.308554C1251.62 -0.308554 1252 0.0523846 1251.99 1.33208C1251.94 10.7446 1251.96 20.1524 1251.96 29.565L1251.97 29.5603Z" fill="#F0F0F0"/>
        <path d="M59.6388 88.8689C59.6388 98.2298 59.6105 107.595 59.6717 116.956C59.6811 118.316 59.2623 118.686 57.9493 118.667C53.4928 118.602 49.0363 118.606 44.5798 118.667C43.2198 118.686 42.7116 118.306 42.721 116.863C42.7869 107.839 42.7633 98.8111 42.7492 89.7876C42.7492 89.3376 43.0316 88.6861 42.5233 88.4751C42.0151 88.2642 41.7515 88.9298 41.4315 89.2486C32.0526 98.6048 22.6831 107.975 13.3136 117.345C12.4289 118.23 11.5363 118.225 10.6359 117.331C7.48767 114.191 4.36764 111.017 1.16761 107.924C0.217012 107.005 0.202898 106.414 1.15349 105.467C10.5889 96.097 19.9819 86.6845 29.3797 77.2766C29.6997 76.9532 30.3914 76.7048 30.1844 76.1938C29.9397 75.5891 29.2338 75.9313 28.7491 75.9266C19.7843 75.9079 10.8242 75.8751 1.85939 75.9454C0.362899 75.9548 -0.0229881 75.5048 0.00524837 74.061C0.0946612 69.6219 0.0711324 65.1829 0.00524895 60.7438C-0.0135765 59.4032 0.442902 58.9953 1.76997 59C20.5184 59.0329 39.2715 59.0329 58.0199 59C59.2905 59 59.6717 59.361 59.6623 60.6407C59.6105 70.0532 59.6341 79.461 59.6341 88.8736L59.6388 88.8689Z" fill="#F0F0F0"/>
        <path d="M118.272 88.8689C118.272 98.2298 118.243 107.595 118.305 116.956C118.314 118.316 117.895 118.686 116.582 118.667C112.126 118.602 107.669 118.606 103.213 118.667C101.853 118.686 101.344 118.306 101.354 116.863C101.42 107.839 101.396 98.8111 101.382 89.7876C101.382 89.3376 101.664 88.6861 101.156 88.4751C100.648 88.2642 100.384 88.9298 100.064 89.2486C90.6854 98.6048 81.3159 107.975 71.9464 117.345C71.0617 118.23 70.1691 118.225 69.2688 117.331C66.1205 114.191 63.0005 111.017 59.8004 107.924C58.8498 107.005 58.8357 106.414 59.7863 105.467C69.2217 96.097 78.6147 86.6845 88.0125 77.2766C88.3325 76.9532 89.0242 76.7048 88.8172 76.1938C88.5725 75.5891 87.8666 75.9313 87.3819 75.9266C78.4171 75.9079 69.457 75.8751 60.4922 75.9454C58.9957 75.9548 58.6098 75.5048 58.6381 74.061C58.7275 69.6219 58.7039 65.1829 58.6381 60.7438C58.6192 59.4032 59.0757 58.9953 60.4028 59C79.1512 59.0329 97.9043 59.0329 116.653 59C117.923 59 118.305 59.361 118.295 60.6407C118.243 70.0532 118.267 79.461 118.267 88.8736L118.272 88.8689Z" fill="#F0F0F0"/>
        <path d="M177.943 88.8689C177.943 98.2298 177.915 107.595 177.976 116.956C177.986 118.316 177.567 118.686 176.254 118.667C171.798 118.602 167.341 118.606 162.884 118.667C161.524 118.686 161.016 118.306 161.026 116.863C161.092 107.839 161.068 98.8111 161.054 89.7876C161.054 89.3376 161.336 88.6861 160.828 88.4751C160.32 88.2642 160.056 88.9298 159.736 89.2486C150.357 98.6048 140.988 107.975 131.618 117.345C130.734 118.23 129.841 118.225 128.941 117.331C125.792 114.191 122.672 111.017 119.472 107.924C118.522 107.005 118.508 106.414 119.458 105.467C128.894 96.097 138.287 86.6845 147.684 77.2766C148.004 76.9532 148.696 76.7048 148.489 76.1938C148.244 75.5891 147.538 75.9313 147.054 75.9266C138.089 75.9079 129.129 75.8751 120.164 75.9454C118.668 75.9548 118.282 75.5048 118.31 74.061C118.399 69.6219 118.376 65.1829 118.31 60.7438C118.291 59.4032 118.748 58.9953 120.075 59C138.823 59.0329 157.576 59.0329 176.325 59C177.595 59 177.976 59.361 177.967 60.6407C177.915 70.0532 177.939 79.461 177.939 88.8736L177.943 88.8689Z" fill="#F0F0F0"/>
        <path d="M237.608 88.8689C237.608 98.2298 237.579 107.595 237.64 116.956C237.65 118.316 237.231 118.686 235.918 118.667C231.462 118.602 227.005 118.606 222.549 118.667C221.189 118.686 220.68 118.306 220.69 116.863C220.756 107.839 220.732 98.8111 220.718 89.7876C220.718 89.3376 221 88.6861 220.492 88.4751C219.984 88.2642 219.72 88.9298 219.4 89.2486C210.021 98.6048 200.652 107.975 191.282 117.345C190.398 118.23 189.505 118.225 188.605 117.331C185.456 114.191 182.336 111.017 179.136 107.924C178.186 107.005 178.172 106.414 179.122 105.467C188.558 96.097 197.951 86.6845 207.348 77.2766C207.668 76.9532 208.36 76.7048 208.153 76.1938C207.908 75.5891 207.203 75.9313 206.718 75.9266C197.753 75.9079 188.793 75.8751 179.828 75.9454C178.332 75.9548 177.946 75.5048 177.974 74.061C178.063 69.6219 178.04 65.1829 177.974 60.7438C177.955 59.4032 178.412 58.9953 179.739 59C198.487 59.0329 217.24 59.0329 235.989 59C237.259 59 237.64 59.361 237.631 60.6407C237.579 70.0532 237.603 79.461 237.603 88.8736L237.608 88.8689Z" fill="#F0F0F0"/>
        <path d="M297.279 88.8689C297.279 98.2298 297.251 107.595 297.312 116.956C297.322 118.316 296.903 118.686 295.59 118.667C291.133 118.602 286.677 118.606 282.22 118.667C280.86 118.686 280.352 118.306 280.362 116.863C280.427 107.839 280.404 98.8111 280.39 89.7876C280.39 89.3376 280.672 88.6861 280.164 88.4751C279.656 88.2642 279.392 88.9298 279.072 89.2486C269.693 98.6048 260.324 107.975 250.954 117.345C250.07 118.23 249.177 118.225 248.277 117.331C245.128 114.191 242.008 111.017 238.808 107.924C237.858 107.005 237.844 106.414 238.794 105.467C248.23 96.097 257.623 86.6845 267.02 77.2766C267.34 76.9532 268.032 76.7048 267.825 76.1938C267.58 75.5891 266.874 75.9313 266.39 75.9266C257.425 75.9079 248.465 75.8751 239.5 75.9454C238.004 75.9548 237.618 75.5048 237.646 74.061C237.735 69.6219 237.712 65.1829 237.646 60.7438C237.627 59.4032 238.084 58.9953 239.411 59C258.159 59.0329 276.912 59.0329 295.661 59C296.931 59 297.312 59.361 297.303 60.6407C297.251 70.0532 297.275 79.461 297.275 88.8736L297.279 88.8689Z" fill="#F0F0F0"/>
        <path d="M356.951 88.8689C356.951 98.2298 356.923 107.595 356.984 116.956C356.994 118.316 356.575 118.686 355.262 118.667C350.805 118.602 346.349 118.606 341.892 118.667C340.532 118.686 340.024 118.306 340.033 116.863C340.099 107.839 340.076 98.8111 340.062 89.7876C340.062 89.3376 340.344 88.6861 339.836 88.4751C339.328 88.2642 339.064 88.9298 338.744 89.2486C329.365 98.6048 319.996 107.975 310.626 117.345C309.741 118.23 308.849 118.225 307.948 117.331C304.8 114.191 301.68 111.017 298.48 107.924C297.53 107.005 297.515 106.414 298.466 105.467C307.901 96.097 317.294 86.6845 326.692 77.2766C327.012 76.9532 327.704 76.7048 327.497 76.1938C327.252 75.5891 326.546 75.9313 326.062 75.9266C317.097 75.9079 308.137 75.8751 299.172 75.9454C297.675 75.9548 297.29 75.5048 297.318 74.061C297.407 69.6219 297.384 65.1829 297.318 60.7438C297.299 59.4032 297.755 58.9953 299.082 59C317.831 59.0329 336.584 59.0329 355.332 59C356.603 59 356.984 59.361 356.975 60.6407C356.923 70.0532 356.947 79.461 356.947 88.8736L356.951 88.8689Z" fill="#F0F0F0"/>
        <path d="M416.615 88.8689C416.615 98.2298 416.587 107.595 416.648 116.956C416.658 118.316 416.239 118.686 414.926 118.667C410.469 118.602 406.013 118.606 401.556 118.667C400.196 118.686 399.688 118.306 399.698 116.863C399.763 107.839 399.74 98.8111 399.726 89.7876C399.726 89.3376 400.008 88.6861 399.5 88.4751C398.992 88.2642 398.728 88.9298 398.408 89.2486C389.029 98.6048 379.66 107.975 370.29 117.345C369.405 118.23 368.513 118.225 367.613 117.331C364.464 114.191 361.344 111.017 358.144 107.924C357.194 107.005 357.179 106.414 358.13 105.467C367.565 96.097 376.958 86.6845 386.356 77.2766C386.676 76.9532 387.368 76.7048 387.161 76.1938C386.916 75.5891 386.21 75.9313 385.726 75.9266C376.761 75.9079 367.801 75.8751 358.836 75.9454C357.339 75.9548 356.954 75.5048 356.982 74.061C357.071 69.6219 357.048 65.1829 356.982 60.7438C356.963 59.4032 357.419 58.9953 358.747 59C377.495 59.0329 396.248 59.0329 414.996 59C416.267 59 416.648 59.361 416.639 60.6407C416.587 70.0532 416.611 79.461 416.611 88.8736L416.615 88.8689Z" fill="#F0F0F0"/>
        <path d="M476.279 88.8689C476.279 98.2298 476.251 107.595 476.312 116.956C476.322 118.316 475.903 118.686 474.59 118.667C470.133 118.602 465.677 118.606 461.22 118.667C459.86 118.686 459.352 118.306 459.362 116.863C459.427 107.839 459.404 98.8111 459.39 89.7876C459.39 89.3376 459.672 88.6861 459.164 88.4751C458.656 88.2642 458.392 88.9298 458.072 89.2486C448.693 98.6048 439.324 107.975 429.954 117.345C429.07 118.23 428.177 118.225 427.277 117.331C424.128 114.191 421.008 111.017 417.808 107.924C416.858 107.005 416.844 106.414 417.794 105.467C427.23 96.097 436.623 86.6845 446.02 77.2766C446.34 76.9532 447.032 76.7048 446.825 76.1938C446.58 75.5891 445.874 75.9313 445.39 75.9266C436.425 75.9079 427.465 75.8751 418.5 75.9454C417.004 75.9548 416.618 75.5048 416.646 74.061C416.735 69.6219 416.712 65.1829 416.646 60.7438C416.627 59.4032 417.084 58.9953 418.411 59C437.159 59.0329 455.912 59.0329 474.661 59C475.931 59 476.312 59.361 476.303 60.6407C476.251 70.0532 476.275 79.461 476.275 88.8736L476.279 88.8689Z" fill="#F0F0F0"/>
        <path d="M535.951 88.8689C535.951 98.2298 535.923 107.595 535.984 116.956C535.994 118.316 535.575 118.686 534.262 118.667C529.805 118.602 525.349 118.606 520.892 118.667C519.532 118.686 519.024 118.306 519.033 116.863C519.099 107.839 519.076 98.8111 519.062 89.7876C519.062 89.3376 519.344 88.6861 518.836 88.4751C518.328 88.2642 518.064 88.9298 517.744 89.2486C508.365 98.6048 498.996 107.975 489.626 117.345C488.741 118.23 487.849 118.225 486.948 117.331C483.8 114.191 480.68 111.017 477.48 107.924C476.53 107.005 476.515 106.414 477.466 105.467C486.901 96.097 496.294 86.6845 505.692 77.2766C506.012 76.9532 506.704 76.7048 506.497 76.1938C506.252 75.5891 505.546 75.9313 505.062 75.9266C496.097 75.9079 487.137 75.8751 478.172 75.9454C476.675 75.9548 476.29 75.5048 476.318 74.061C476.407 69.6219 476.384 65.1829 476.318 60.7438C476.299 59.4032 476.755 58.9953 478.082 59C496.831 59.0329 515.584 59.0329 534.332 59C535.603 59 535.984 59.361 535.975 60.6407C535.923 70.0532 535.947 79.461 535.947 88.8736L535.951 88.8689Z" fill="#F0F0F0"/>
        <path d="M595.623 88.8689C595.623 98.2298 595.595 107.595 595.656 116.956C595.666 118.316 595.247 118.686 593.934 118.667C589.477 118.602 585.021 118.606 580.564 118.667C579.204 118.686 578.696 118.306 578.705 116.863C578.771 107.839 578.748 98.8111 578.734 89.7876C578.734 89.3376 579.016 88.6861 578.508 88.4751C577.999 88.2642 577.736 88.9298 577.416 89.2486C568.037 98.6048 558.667 107.975 549.298 117.345C548.413 118.23 547.521 118.225 546.62 117.331C543.472 114.191 540.352 111.017 537.152 107.924C536.201 107.005 536.187 106.414 537.138 105.467C546.573 96.097 555.966 86.6845 565.364 77.2766C565.684 76.9532 566.376 76.7048 566.169 76.1938C565.924 75.5891 565.218 75.9313 564.733 75.9266C555.769 75.9079 546.809 75.8751 537.844 75.9454C536.347 75.9548 535.961 75.5048 535.99 74.061C536.079 69.6219 536.056 65.1829 535.99 60.7438C535.971 59.4032 536.427 58.9953 537.754 59C556.503 59.0329 575.256 59.0329 594.004 59C595.275 59 595.656 59.361 595.647 60.6407C595.595 70.0532 595.618 79.461 595.618 88.8736L595.623 88.8689Z" fill="#F0F0F0"/>
        <path d="M655.287 88.8689C655.287 98.2298 655.259 107.595 655.32 116.956C655.33 118.316 654.911 118.686 653.598 118.667C649.141 118.602 644.685 118.606 640.228 118.667C638.868 118.686 638.36 118.306 638.369 116.863C638.435 107.839 638.412 98.8111 638.398 89.7876C638.398 89.3376 638.68 88.6861 638.172 88.4751C637.664 88.2642 637.4 88.9298 637.08 89.2486C627.701 98.6048 618.332 107.975 608.962 117.345C608.077 118.23 607.185 118.225 606.284 117.331C603.136 114.191 600.016 111.017 596.816 107.924C595.865 107.005 595.851 106.414 596.802 105.467C606.237 96.097 615.63 86.6845 625.028 77.2766C625.348 76.9532 626.04 76.7048 625.833 76.1938C625.588 75.5891 624.882 75.9313 624.398 75.9266C615.433 75.9079 606.473 75.8751 597.508 75.9454C596.011 75.9548 595.625 75.5048 595.654 74.061C595.743 69.6219 595.72 65.1829 595.654 60.7438C595.635 59.4032 596.091 58.9953 597.418 59C616.167 59.0329 634.92 59.0329 653.668 59C654.939 59 655.32 59.361 655.311 60.6407C655.259 70.0532 655.283 79.461 655.283 88.8736L655.287 88.8689Z" fill="#F0F0F0"/>
        <path d="M714.959 88.8689C714.959 98.2298 714.931 107.595 714.992 116.956C715.001 118.316 714.583 118.686 713.27 118.667C708.813 118.602 704.357 118.606 699.9 118.667C698.54 118.686 698.032 118.306 698.041 116.863C698.107 107.839 698.084 98.8111 698.07 89.7876C698.07 89.3376 698.352 88.6861 697.844 88.4751C697.335 88.2642 697.072 88.9298 696.752 89.2486C687.373 98.6048 678.003 107.975 668.634 117.345C667.749 118.23 666.857 118.225 665.956 117.331C662.808 114.191 659.688 111.017 656.488 107.924C655.537 107.005 655.523 106.414 656.474 105.467C665.909 96.097 675.302 86.6845 684.7 77.2766C685.02 76.9532 685.712 76.7048 685.505 76.1938C685.26 75.5891 684.554 75.9313 684.069 75.9266C675.105 75.9079 666.144 75.8751 657.18 75.9454C655.683 75.9548 655.297 75.5048 655.326 74.061C655.415 69.6219 655.391 65.1829 655.326 60.7438C655.307 59.4032 655.763 58.9953 657.09 59C675.839 59.0329 694.592 59.0329 713.34 59C714.611 59 714.992 59.361 714.983 60.6407C714.931 70.0532 714.954 79.461 714.954 88.8736L714.959 88.8689Z" fill="#F0F0F0"/>
        <path d="M774.623 88.8689C774.623 98.2298 774.595 107.595 774.656 116.956C774.666 118.316 774.247 118.686 772.934 118.667C768.477 118.602 764.021 118.606 759.564 118.667C758.204 118.686 757.696 118.306 757.705 116.863C757.771 107.839 757.748 98.8111 757.734 89.7876C757.734 89.3376 758.016 88.6861 757.508 88.4751C756.999 88.2642 756.736 88.9298 756.416 89.2486C747.037 98.6048 737.667 107.975 728.298 117.345C727.413 118.23 726.521 118.225 725.62 117.331C722.472 114.191 719.352 111.017 716.152 107.924C715.201 107.005 715.187 106.414 716.138 105.467C725.573 96.097 734.966 86.6845 744.364 77.2766C744.684 76.9532 745.376 76.7048 745.169 76.1938C744.924 75.5891 744.218 75.9313 743.733 75.9266C734.769 75.9079 725.809 75.8751 716.844 75.9454C715.347 75.9548 714.961 75.5048 714.99 74.061C715.079 69.6219 715.056 65.1829 714.99 60.7438C714.971 59.4032 715.427 58.9953 716.754 59C735.503 59.0329 754.256 59.0329 773.004 59C774.275 59 774.656 59.361 774.647 60.6407C774.595 70.0532 774.618 79.461 774.618 88.8736L774.623 88.8689Z" fill="#F0F0F0"/>
        <path d="M834.295 88.8689C834.295 98.2298 834.267 107.595 834.328 116.956C834.337 118.316 833.919 118.686 832.606 118.667C828.149 118.602 823.693 118.606 819.236 118.667C817.876 118.686 817.368 118.306 817.377 116.863C817.443 107.839 817.42 98.8111 817.405 89.7876C817.405 89.3376 817.688 88.6861 817.18 88.4751C816.671 88.2642 816.408 88.9298 816.088 89.2486C806.709 98.6048 797.339 107.975 787.97 117.345C787.085 118.23 786.193 118.225 785.292 117.331C782.144 114.191 779.024 111.017 775.824 107.924C774.873 107.005 774.859 106.414 775.81 105.467C785.245 96.097 794.638 86.6845 804.036 77.2766C804.356 76.9532 805.048 76.7048 804.841 76.1938C804.596 75.5891 803.89 75.9313 803.405 75.9266C794.441 75.9079 785.48 75.8751 776.516 75.9454C775.019 75.9548 774.633 75.5048 774.661 74.061C774.751 69.6219 774.727 65.1829 774.661 60.7438C774.643 59.4032 775.099 58.9953 776.426 59C795.175 59.0329 813.928 59.0329 832.676 59C833.947 59 834.328 59.361 834.319 60.6407C834.267 70.0532 834.29 79.461 834.29 88.8736L834.295 88.8689Z" fill="#F0F0F0"/>
        <path d="M893.959 88.8689C893.959 98.2298 893.931 107.595 893.992 116.956C894.001 118.316 893.583 118.686 892.27 118.667C887.813 118.602 883.357 118.606 878.9 118.667C877.54 118.686 877.032 118.306 877.041 116.863C877.107 107.839 877.084 98.8111 877.07 89.7876C877.07 89.3376 877.352 88.6861 876.844 88.4751C876.335 88.2642 876.072 88.9298 875.752 89.2486C866.373 98.6048 857.003 107.975 847.634 117.345C846.749 118.23 845.857 118.225 844.956 117.331C841.808 114.191 838.688 111.017 835.488 107.924C834.537 107.005 834.523 106.414 835.474 105.467C844.909 96.097 854.302 86.6845 863.7 77.2766C864.02 76.9532 864.712 76.7048 864.505 76.1938C864.26 75.5891 863.554 75.9313 863.069 75.9266C854.105 75.9079 845.144 75.8751 836.18 75.9454C834.683 75.9548 834.297 75.5048 834.326 74.061C834.415 69.6219 834.391 65.1829 834.326 60.7438C834.307 59.4032 834.763 58.9953 836.09 59C854.839 59.0329 873.592 59.0329 892.34 59C893.611 59 893.992 59.361 893.983 60.6407C893.931 70.0532 893.954 79.461 893.954 88.8736L893.959 88.8689Z" fill="#F0F0F0"/>
        <path d="M953.623 88.8689C953.623 98.2298 953.595 107.595 953.656 116.956C953.666 118.316 953.247 118.686 951.934 118.667C947.477 118.602 943.021 118.606 938.564 118.667C937.204 118.686 936.696 118.306 936.705 116.863C936.771 107.839 936.748 98.8111 936.734 89.7876C936.734 89.3376 937.016 88.6861 936.508 88.4751C935.999 88.2642 935.736 88.9298 935.416 89.2486C926.037 98.6048 916.667 107.975 907.298 117.345C906.413 118.23 905.521 118.225 904.62 117.331C901.472 114.191 898.352 111.017 895.152 107.924C894.201 107.005 894.187 106.414 895.138 105.467C904.573 96.097 913.966 86.6845 923.364 77.2766C923.684 76.9532 924.376 76.7048 924.169 76.1938C923.924 75.5891 923.218 75.9313 922.733 75.9266C913.769 75.9079 904.809 75.8751 895.844 75.9454C894.347 75.9548 893.961 75.5048 893.99 74.061C894.079 69.6219 894.056 65.1829 893.99 60.7438C893.971 59.4032 894.427 58.9953 895.754 59C914.503 59.0329 933.256 59.0329 952.004 59C953.275 59 953.656 59.361 953.647 60.6407C953.595 70.0532 953.618 79.461 953.618 88.8736L953.623 88.8689Z" fill="#F0F0F0"/>
        <path d="M1132.64 88.8689C1132.64 98.2298 1132.61 107.595 1132.67 116.956C1132.68 118.316 1132.26 118.686 1130.95 118.667C1126.49 118.602 1122.04 118.606 1117.58 118.667C1116.22 118.686 1115.71 118.306 1115.72 116.863C1115.79 107.839 1115.76 98.8111 1115.75 89.7876C1115.75 89.3376 1116.03 88.6861 1115.52 88.4751C1115.02 88.2642 1114.75 88.9298 1114.43 89.2486C1105.05 98.6048 1095.68 107.975 1086.31 117.345C1085.43 118.23 1084.54 118.225 1083.64 117.331C1080.49 114.191 1077.37 111.017 1074.17 107.924C1073.22 107.005 1073.2 106.414 1074.15 105.467C1083.59 96.097 1092.98 86.6845 1102.38 77.2766C1102.7 76.9532 1103.39 76.7048 1103.18 76.1938C1102.94 75.5891 1102.23 75.9313 1101.75 75.9266C1092.78 75.9079 1083.82 75.8751 1074.86 75.9454C1073.36 75.9548 1072.98 75.5048 1073.01 74.061C1073.09 69.6219 1073.07 65.1829 1073.01 60.7438C1072.99 59.4032 1073.44 58.9953 1074.77 59C1093.52 59.0329 1112.27 59.0329 1131.02 59C1132.29 59 1132.67 59.361 1132.66 60.6407C1132.61 70.0532 1132.63 79.461 1132.63 88.8736L1132.64 88.8689Z" fill="#F0F0F0"/>
        <path d="M1013.3 88.8689C1013.3 98.2298 1013.27 107.595 1013.33 116.956C1013.34 118.316 1012.92 118.686 1011.61 118.667C1007.15 118.602 1002.69 118.606 998.236 118.667C996.876 118.686 996.368 118.306 996.377 116.863C996.443 107.839 996.42 98.8111 996.405 89.7876C996.405 89.3376 996.688 88.6861 996.18 88.4751C995.671 88.2642 995.408 88.9298 995.088 89.2486C985.709 98.6048 976.339 107.975 966.97 117.345C966.085 118.23 965.193 118.225 964.292 117.331C961.144 114.191 958.024 111.017 954.824 107.924C953.873 107.005 953.859 106.414 954.81 105.467C964.245 96.097 973.638 86.6845 983.036 77.2766C983.356 76.9532 984.048 76.7048 983.841 76.1938C983.596 75.5891 982.89 75.9313 982.405 75.9266C973.441 75.9079 964.48 75.8751 955.516 75.9454C954.019 75.9548 953.633 75.5048 953.661 74.061C953.751 69.6219 953.727 65.1829 953.661 60.7438C953.643 59.4032 954.099 58.9953 955.426 59C974.175 59.0329 992.928 59.0329 1011.68 59C1012.95 59 1013.33 59.361 1013.32 60.6407C1013.27 70.0532 1013.29 79.461 1013.29 88.8736L1013.3 88.8689Z" fill="#F0F0F0"/>
        <path d="M1192.3 88.8689C1192.3 98.2298 1192.27 107.595 1192.34 116.956C1192.35 118.316 1191.93 118.686 1190.61 118.667C1186.16 118.602 1181.7 118.606 1177.24 118.667C1175.88 118.686 1175.38 118.306 1175.39 116.863C1175.45 107.839 1175.43 98.8111 1175.41 89.7876C1175.41 89.3376 1175.7 88.6861 1175.19 88.4751C1174.68 88.2642 1174.42 88.9298 1174.1 89.2486C1164.72 98.6048 1155.35 107.975 1145.98 117.345C1145.09 118.23 1144.2 118.225 1143.3 117.331C1140.15 114.191 1137.03 111.017 1133.83 107.924C1132.88 107.005 1132.87 106.414 1133.82 105.467C1143.25 96.097 1152.65 86.6845 1162.04 77.2766C1162.36 76.9532 1163.06 76.7048 1162.85 76.1938C1162.6 75.5891 1161.9 75.9313 1161.41 75.9266C1152.45 75.9079 1143.49 75.8751 1134.52 75.9454C1133.03 75.9548 1132.64 75.5048 1132.67 74.061C1132.76 69.6219 1132.74 65.1829 1132.67 60.7438C1132.65 59.4032 1133.11 58.9953 1134.43 59C1153.18 59.0329 1171.94 59.0329 1190.68 59C1191.95 59 1192.34 59.361 1192.33 60.6407C1192.27 70.0532 1192.3 79.461 1192.3 88.8736L1192.3 88.8689Z" fill="#F0F0F0"/>
        <path d="M1072.97 88.8689C1072.97 98.2298 1072.94 107.595 1073 116.956C1073.01 118.316 1072.59 118.686 1071.28 118.667C1066.82 118.602 1062.36 118.606 1057.91 118.667C1056.55 118.686 1056.04 118.306 1056.05 116.863C1056.11 107.839 1056.09 98.8111 1056.08 89.7876C1056.08 89.3376 1056.36 88.6861 1055.85 88.4751C1055.34 88.2642 1055.08 88.9298 1054.76 89.2486C1045.38 98.6048 1036.01 107.975 1026.64 117.345C1025.76 118.23 1024.86 118.225 1023.96 117.331C1020.82 114.191 1017.7 111.017 1014.5 107.924C1013.55 107.005 1013.53 106.414 1014.48 105.467C1023.92 96.097 1033.31 86.6845 1042.71 77.2766C1043.03 76.9532 1043.72 76.7048 1043.51 76.1938C1043.27 75.5891 1042.56 75.9313 1042.08 75.9266C1033.11 75.9079 1024.15 75.8751 1015.19 75.9454C1013.69 75.9548 1013.31 75.5048 1013.33 74.061C1013.42 69.6219 1013.4 65.1829 1013.33 60.7438C1013.31 59.4032 1013.77 58.9953 1015.1 59C1033.85 59.0329 1052.6 59.0329 1071.35 59C1072.62 59 1073 59.361 1072.99 60.6407C1072.94 70.0532 1072.96 79.461 1072.96 88.8736L1072.97 88.8689Z" fill="#F0F0F0"/>
        <path d="M1251.97 88.8689C1251.97 98.2298 1251.95 107.595 1252.01 116.956C1252.02 118.316 1251.6 118.686 1250.29 118.667C1245.83 118.602 1241.37 118.606 1236.92 118.667C1235.56 118.686 1235.05 118.306 1235.06 116.863C1235.12 107.839 1235.1 98.8111 1235.09 89.7876C1235.09 89.3376 1235.37 88.6861 1234.86 88.4751C1234.35 88.2642 1234.09 88.9298 1233.77 89.2486C1224.39 98.6048 1215.02 107.975 1205.65 117.345C1204.76 118.23 1203.87 118.225 1202.97 117.331C1199.82 114.191 1196.7 111.017 1193.5 107.924C1192.55 107.005 1192.54 106.414 1193.49 105.467C1202.92 96.097 1212.32 86.6845 1221.72 77.2766C1222.04 76.9532 1222.73 76.7048 1222.52 76.1938C1222.28 75.5891 1221.57 75.9313 1221.09 75.9266C1212.12 75.9079 1203.16 75.8751 1194.2 75.9454C1192.7 75.9548 1192.31 75.5048 1192.34 74.061C1192.43 69.6219 1192.41 65.1829 1192.34 60.7438C1192.32 59.4032 1192.78 58.9953 1194.11 59C1212.85 59.0329 1231.61 59.0329 1250.36 59C1251.63 59 1252.01 59.361 1252 60.6407C1251.95 70.0532 1251.97 79.461 1251.97 88.8736L1251.97 88.8689Z" fill="#F0F0F0"/>
        <path d="M59.6388 148.869C59.6388 158.23 59.6105 167.595 59.6717 176.956C59.6811 178.316 59.2623 178.686 57.9493 178.667C53.4928 178.602 49.0363 178.606 44.5798 178.667C43.2198 178.686 42.7116 178.306 42.721 176.863C42.7869 167.839 42.7633 158.811 42.7492 149.788C42.7492 149.338 43.0316 148.686 42.5233 148.475C42.0151 148.264 41.7515 148.93 41.4315 149.249C32.0526 158.605 22.6831 167.975 13.3136 177.345C12.4289 178.23 11.5363 178.225 10.6359 177.331C7.48767 174.191 4.36764 171.017 1.16761 167.924C0.217012 167.005 0.202898 166.414 1.15349 165.467C10.5889 156.097 19.9819 146.684 29.3797 137.277C29.6997 136.953 30.3914 136.705 30.1844 136.194C29.9397 135.589 29.2338 135.931 28.7491 135.927C19.7843 135.908 10.8242 135.875 1.85939 135.945C0.362899 135.955 -0.0229881 135.505 0.00524837 134.061C0.0946612 129.622 0.0711324 125.183 0.00524895 120.744C-0.0135765 119.403 0.442902 118.995 1.76997 119C20.5184 119.033 39.2715 119.033 58.0199 119C59.2905 119 59.6717 119.361 59.6623 120.641C59.6105 130.053 59.6341 139.461 59.6341 148.874L59.6388 148.869Z" fill="#F0F0F0"/>
        <path d="M118.272 148.869C118.272 158.23 118.243 167.595 118.305 176.956C118.314 178.316 117.895 178.686 116.582 178.667C112.126 178.602 107.669 178.606 103.213 178.667C101.853 178.686 101.344 178.306 101.354 176.863C101.42 167.839 101.396 158.811 101.382 149.788C101.382 149.338 101.664 148.686 101.156 148.475C100.648 148.264 100.384 148.93 100.064 149.249C90.6854 158.605 81.3159 167.975 71.9464 177.345C71.0617 178.23 70.1691 178.225 69.2688 177.331C66.1205 174.191 63.0005 171.017 59.8004 167.924C58.8498 167.005 58.8357 166.414 59.7863 165.467C69.2217 156.097 78.6147 146.684 88.0125 137.277C88.3325 136.953 89.0242 136.705 88.8172 136.194C88.5725 135.589 87.8666 135.931 87.3819 135.927C78.4171 135.908 69.457 135.875 60.4922 135.945C58.9957 135.955 58.6098 135.505 58.6381 134.061C58.7275 129.622 58.7039 125.183 58.6381 120.744C58.6192 119.403 59.0757 118.995 60.4028 119C79.1512 119.033 97.9043 119.033 116.653 119C117.923 119 118.305 119.361 118.295 120.641C118.243 130.053 118.267 139.461 118.267 148.874L118.272 148.869Z" fill="#F0F0F0"/>
        <path d="M177.943 148.869C177.943 158.23 177.915 167.595 177.976 176.956C177.986 178.316 177.567 178.686 176.254 178.667C171.798 178.602 167.341 178.606 162.884 178.667C161.524 178.686 161.016 178.306 161.026 176.863C161.092 167.839 161.068 158.811 161.054 149.788C161.054 149.338 161.336 148.686 160.828 148.475C160.32 148.264 160.056 148.93 159.736 149.249C150.357 158.605 140.988 167.975 131.618 177.345C130.734 178.23 129.841 178.225 128.941 177.331C125.792 174.191 122.672 171.017 119.472 167.924C118.522 167.005 118.508 166.414 119.458 165.467C128.894 156.097 138.287 146.684 147.684 137.277C148.004 136.953 148.696 136.705 148.489 136.194C148.244 135.589 147.538 135.931 147.054 135.927C138.089 135.908 129.129 135.875 120.164 135.945C118.668 135.955 118.282 135.505 118.31 134.061C118.399 129.622 118.376 125.183 118.31 120.744C118.291 119.403 118.748 118.995 120.075 119C138.823 119.033 157.576 119.033 176.325 119C177.595 119 177.976 119.361 177.967 120.641C177.915 130.053 177.939 139.461 177.939 148.874L177.943 148.869Z" fill="#F0F0F0"/>
        <path d="M237.608 148.869C237.608 158.23 237.579 167.595 237.64 176.956C237.65 178.316 237.231 178.686 235.918 178.667C231.462 178.602 227.005 178.606 222.549 178.667C221.189 178.686 220.68 178.306 220.69 176.863C220.756 167.839 220.732 158.811 220.718 149.788C220.718 149.338 221 148.686 220.492 148.475C219.984 148.264 219.72 148.93 219.4 149.249C210.021 158.605 200.652 167.975 191.282 177.345C190.398 178.23 189.505 178.225 188.605 177.331C185.456 174.191 182.336 171.017 179.136 167.924C178.186 167.005 178.172 166.414 179.122 165.467C188.558 156.097 197.951 146.684 207.348 137.277C207.668 136.953 208.36 136.705 208.153 136.194C207.908 135.589 207.203 135.931 206.718 135.927C197.753 135.908 188.793 135.875 179.828 135.945C178.332 135.955 177.946 135.505 177.974 134.061C178.063 129.622 178.04 125.183 177.974 120.744C177.955 119.403 178.412 118.995 179.739 119C198.487 119.033 217.24 119.033 235.989 119C237.259 119 237.64 119.361 237.631 120.641C237.579 130.053 237.603 139.461 237.603 148.874L237.608 148.869Z" fill="#F0F0F0"/>
        <path d="M297.279 148.869C297.279 158.23 297.251 167.595 297.312 176.956C297.322 178.316 296.903 178.686 295.59 178.667C291.133 178.602 286.677 178.606 282.22 178.667C280.86 178.686 280.352 178.306 280.362 176.863C280.427 167.839 280.404 158.811 280.39 149.788C280.39 149.338 280.672 148.686 280.164 148.475C279.656 148.264 279.392 148.93 279.072 149.249C269.693 158.605 260.324 167.975 250.954 177.345C250.07 178.23 249.177 178.225 248.277 177.331C245.128 174.191 242.008 171.017 238.808 167.924C237.858 167.005 237.844 166.414 238.794 165.467C248.23 156.097 257.623 146.684 267.02 137.277C267.34 136.953 268.032 136.705 267.825 136.194C267.58 135.589 266.874 135.931 266.39 135.927C257.425 135.908 248.465 135.875 239.5 135.945C238.004 135.955 237.618 135.505 237.646 134.061C237.735 129.622 237.712 125.183 237.646 120.744C237.627 119.403 238.084 118.995 239.411 119C258.159 119.033 276.912 119.033 295.661 119C296.931 119 297.312 119.361 297.303 120.641C297.251 130.053 297.275 139.461 297.275 148.874L297.279 148.869Z" fill="#F0F0F0"/>
        <path d="M356.951 148.869C356.951 158.23 356.923 167.595 356.984 176.956C356.994 178.316 356.575 178.686 355.262 178.667C350.805 178.602 346.349 178.606 341.892 178.667C340.532 178.686 340.024 178.306 340.033 176.863C340.099 167.839 340.076 158.811 340.062 149.788C340.062 149.338 340.344 148.686 339.836 148.475C339.328 148.264 339.064 148.93 338.744 149.249C329.365 158.605 319.996 167.975 310.626 177.345C309.741 178.23 308.849 178.225 307.948 177.331C304.8 174.191 301.68 171.017 298.48 167.924C297.53 167.005 297.515 166.414 298.466 165.467C307.901 156.097 317.294 146.684 326.692 137.277C327.012 136.953 327.704 136.705 327.497 136.194C327.252 135.589 326.546 135.931 326.062 135.927C317.097 135.908 308.137 135.875 299.172 135.945C297.675 135.955 297.29 135.505 297.318 134.061C297.407 129.622 297.384 125.183 297.318 120.744C297.299 119.403 297.755 118.995 299.082 119C317.831 119.033 336.584 119.033 355.332 119C356.603 119 356.984 119.361 356.975 120.641C356.923 130.053 356.947 139.461 356.947 148.874L356.951 148.869Z" fill="#F0F0F0"/>
        <path d="M416.615 148.869C416.615 158.23 416.587 167.595 416.648 176.956C416.658 178.316 416.239 178.686 414.926 178.667C410.469 178.602 406.013 178.606 401.556 178.667C400.196 178.686 399.688 178.306 399.698 176.863C399.763 167.839 399.74 158.811 399.726 149.788C399.726 149.338 400.008 148.686 399.5 148.475C398.992 148.264 398.728 148.93 398.408 149.249C389.029 158.605 379.66 167.975 370.29 177.345C369.405 178.23 368.513 178.225 367.613 177.331C364.464 174.191 361.344 171.017 358.144 167.924C357.194 167.005 357.179 166.414 358.13 165.467C367.565 156.097 376.958 146.684 386.356 137.277C386.676 136.953 387.368 136.705 387.161 136.194C386.916 135.589 386.21 135.931 385.726 135.927C376.761 135.908 367.801 135.875 358.836 135.945C357.339 135.955 356.954 135.505 356.982 134.061C357.071 129.622 357.048 125.183 356.982 120.744C356.963 119.403 357.419 118.995 358.747 119C377.495 119.033 396.248 119.033 414.996 119C416.267 119 416.648 119.361 416.639 120.641C416.587 130.053 416.611 139.461 416.611 148.874L416.615 148.869Z" fill="#F0F0F0"/>
        <path d="M476.279 148.869C476.279 158.23 476.251 167.595 476.312 176.956C476.322 178.316 475.903 178.686 474.59 178.667C470.133 178.602 465.677 178.606 461.22 178.667C459.86 178.686 459.352 178.306 459.362 176.863C459.427 167.839 459.404 158.811 459.39 149.788C459.39 149.338 459.672 148.686 459.164 148.475C458.656 148.264 458.392 148.93 458.072 149.249C448.693 158.605 439.324 167.975 429.954 177.345C429.07 178.23 428.177 178.225 427.277 177.331C424.128 174.191 421.008 171.017 417.808 167.924C416.858 167.005 416.844 166.414 417.794 165.467C427.23 156.097 436.623 146.684 446.02 137.277C446.34 136.953 447.032 136.705 446.825 136.194C446.58 135.589 445.874 135.931 445.39 135.927C436.425 135.908 427.465 135.875 418.5 135.945C417.004 135.955 416.618 135.505 416.646 134.061C416.735 129.622 416.712 125.183 416.646 120.744C416.627 119.403 417.084 118.995 418.411 119C437.159 119.033 455.912 119.033 474.661 119C475.931 119 476.312 119.361 476.303 120.641C476.251 130.053 476.275 139.461 476.275 148.874L476.279 148.869Z" fill="#F0F0F0"/>
        <path d="M535.951 148.869C535.951 158.23 535.923 167.595 535.984 176.956C535.994 178.316 535.575 178.686 534.262 178.667C529.805 178.602 525.349 178.606 520.892 178.667C519.532 178.686 519.024 178.306 519.033 176.863C519.099 167.839 519.076 158.811 519.062 149.788C519.062 149.338 519.344 148.686 518.836 148.475C518.328 148.264 518.064 148.93 517.744 149.249C508.365 158.605 498.996 167.975 489.626 177.345C488.741 178.23 487.849 178.225 486.948 177.331C483.8 174.191 480.68 171.017 477.48 167.924C476.53 167.005 476.515 166.414 477.466 165.467C486.901 156.097 496.294 146.684 505.692 137.277C506.012 136.953 506.704 136.705 506.497 136.194C506.252 135.589 505.546 135.931 505.062 135.927C496.097 135.908 487.137 135.875 478.172 135.945C476.675 135.955 476.29 135.505 476.318 134.061C476.407 129.622 476.384 125.183 476.318 120.744C476.299 119.403 476.755 118.995 478.082 119C496.831 119.033 515.584 119.033 534.332 119C535.603 119 535.984 119.361 535.975 120.641C535.923 130.053 535.947 139.461 535.947 148.874L535.951 148.869Z" fill="#F0F0F0"/>
        <path d="M595.623 148.869C595.623 158.23 595.595 167.595 595.656 176.956C595.666 178.316 595.247 178.686 593.934 178.667C589.477 178.602 585.021 178.606 580.564 178.667C579.204 178.686 578.696 178.306 578.705 176.863C578.771 167.839 578.748 158.811 578.734 149.788C578.734 149.338 579.016 148.686 578.508 148.475C577.999 148.264 577.736 148.93 577.416 149.249C568.037 158.605 558.667 167.975 549.298 177.345C548.413 178.23 547.521 178.225 546.62 177.331C543.472 174.191 540.352 171.017 537.152 167.924C536.201 167.005 536.187 166.414 537.138 165.467C546.573 156.097 555.966 146.684 565.364 137.277C565.684 136.953 566.376 136.705 566.169 136.194C565.924 135.589 565.218 135.931 564.733 135.927C555.769 135.908 546.809 135.875 537.844 135.945C536.347 135.955 535.961 135.505 535.99 134.061C536.079 129.622 536.056 125.183 535.99 120.744C535.971 119.403 536.427 118.995 537.754 119C556.503 119.033 575.256 119.033 594.004 119C595.275 119 595.656 119.361 595.647 120.641C595.595 130.053 595.618 139.461 595.618 148.874L595.623 148.869Z" fill="#F0F0F0"/>
        <path d="M655.287 148.869C655.287 158.23 655.259 167.595 655.32 176.956C655.33 178.316 654.911 178.686 653.598 178.667C649.141 178.602 644.685 178.606 640.228 178.667C638.868 178.686 638.36 178.306 638.369 176.863C638.435 167.839 638.412 158.811 638.398 149.788C638.398 149.338 638.68 148.686 638.172 148.475C637.664 148.264 637.4 148.93 637.08 149.249C627.701 158.605 618.332 167.975 608.962 177.345C608.077 178.23 607.185 178.225 606.284 177.331C603.136 174.191 600.016 171.017 596.816 167.924C595.865 167.005 595.851 166.414 596.802 165.467C606.237 156.097 615.63 146.684 625.028 137.277C625.348 136.953 626.04 136.705 625.833 136.194C625.588 135.589 624.882 135.931 624.398 135.927C615.433 135.908 606.473 135.875 597.508 135.945C596.011 135.955 595.625 135.505 595.654 134.061C595.743 129.622 595.72 125.183 595.654 120.744C595.635 119.403 596.091 118.995 597.418 119C616.167 119.033 634.92 119.033 653.668 119C654.939 119 655.32 119.361 655.311 120.641C655.259 130.053 655.283 139.461 655.283 148.874L655.287 148.869Z" fill="#F0F0F0"/>
        <path d="M714.959 148.869C714.959 158.23 714.931 167.595 714.992 176.956C715.001 178.316 714.583 178.686 713.27 178.667C708.813 178.602 704.357 178.606 699.9 178.667C698.54 178.686 698.032 178.306 698.041 176.863C698.107 167.839 698.084 158.811 698.07 149.788C698.07 149.338 698.352 148.686 697.844 148.475C697.335 148.264 697.072 148.93 696.752 149.249C687.373 158.605 678.003 167.975 668.634 177.345C667.749 178.23 666.857 178.225 665.956 177.331C662.808 174.191 659.688 171.017 656.488 167.924C655.537 167.005 655.523 166.414 656.474 165.467C665.909 156.097 675.302 146.684 684.7 137.277C685.02 136.953 685.712 136.705 685.505 136.194C685.26 135.589 684.554 135.931 684.069 135.927C675.105 135.908 666.144 135.875 657.18 135.945C655.683 135.955 655.297 135.505 655.326 134.061C655.415 129.622 655.391 125.183 655.326 120.744C655.307 119.403 655.763 118.995 657.09 119C675.839 119.033 694.592 119.033 713.34 119C714.611 119 714.992 119.361 714.983 120.641C714.931 130.053 714.954 139.461 714.954 148.874L714.959 148.869Z" fill="#F0F0F0"/>
        <path d="M774.623 148.869C774.623 158.23 774.595 167.595 774.656 176.956C774.666 178.316 774.247 178.686 772.934 178.667C768.477 178.602 764.021 178.606 759.564 178.667C758.204 178.686 757.696 178.306 757.705 176.863C757.771 167.839 757.748 158.811 757.734 149.788C757.734 149.338 758.016 148.686 757.508 148.475C756.999 148.264 756.736 148.93 756.416 149.249C747.037 158.605 737.667 167.975 728.298 177.345C727.413 178.23 726.521 178.225 725.62 177.331C722.472 174.191 719.352 171.017 716.152 167.924C715.201 167.005 715.187 166.414 716.138 165.467C725.573 156.097 734.966 146.684 744.364 137.277C744.684 136.953 745.376 136.705 745.169 136.194C744.924 135.589 744.218 135.931 743.733 135.927C734.769 135.908 725.809 135.875 716.844 135.945C715.347 135.955 714.961 135.505 714.99 134.061C715.079 129.622 715.056 125.183 714.99 120.744C714.971 119.403 715.427 118.995 716.754 119C735.503 119.033 754.256 119.033 773.004 119C774.275 119 774.656 119.361 774.647 120.641C774.595 130.053 774.618 139.461 774.618 148.874L774.623 148.869Z" fill="#F0F0F0"/>
        <path d="M834.295 148.869C834.295 158.23 834.267 167.595 834.328 176.956C834.337 178.316 833.919 178.686 832.606 178.667C828.149 178.602 823.693 178.606 819.236 178.667C817.876 178.686 817.368 178.306 817.377 176.863C817.443 167.839 817.42 158.811 817.405 149.788C817.405 149.338 817.688 148.686 817.18 148.475C816.671 148.264 816.408 148.93 816.088 149.249C806.709 158.605 797.339 167.975 787.97 177.345C787.085 178.23 786.193 178.225 785.292 177.331C782.144 174.191 779.024 171.017 775.824 167.924C774.873 167.005 774.859 166.414 775.81 165.467C785.245 156.097 794.638 146.684 804.036 137.277C804.356 136.953 805.048 136.705 804.841 136.194C804.596 135.589 803.89 135.931 803.405 135.927C794.441 135.908 785.48 135.875 776.516 135.945C775.019 135.955 774.633 135.505 774.661 134.061C774.751 129.622 774.727 125.183 774.661 120.744C774.643 119.403 775.099 118.995 776.426 119C795.175 119.033 813.928 119.033 832.676 119C833.947 119 834.328 119.361 834.319 120.641C834.267 130.053 834.29 139.461 834.29 148.874L834.295 148.869Z" fill="#F0F0F0"/>
        <path d="M893.959 148.869C893.959 158.23 893.931 167.595 893.992 176.956C894.001 178.316 893.583 178.686 892.27 178.667C887.813 178.602 883.357 178.606 878.9 178.667C877.54 178.686 877.032 178.306 877.041 176.863C877.107 167.839 877.084 158.811 877.07 149.788C877.07 149.338 877.352 148.686 876.844 148.475C876.335 148.264 876.072 148.93 875.752 149.249C866.373 158.605 857.003 167.975 847.634 177.345C846.749 178.23 845.857 178.225 844.956 177.331C841.808 174.191 838.688 171.017 835.488 167.924C834.537 167.005 834.523 166.414 835.474 165.467C844.909 156.097 854.302 146.684 863.7 137.277C864.02 136.953 864.712 136.705 864.505 136.194C864.26 135.589 863.554 135.931 863.069 135.927C854.105 135.908 845.144 135.875 836.18 135.945C834.683 135.955 834.297 135.505 834.326 134.061C834.415 129.622 834.391 125.183 834.326 120.744C834.307 119.403 834.763 118.995 836.09 119C854.839 119.033 873.592 119.033 892.34 119C893.611 119 893.992 119.361 893.983 120.641C893.931 130.053 893.954 139.461 893.954 148.874L893.959 148.869Z" fill="#F0F0F0"/>
        <path d="M953.623 148.869C953.623 158.23 953.595 167.595 953.656 176.956C953.666 178.316 953.247 178.686 951.934 178.667C947.477 178.602 943.021 178.606 938.564 178.667C937.204 178.686 936.696 178.306 936.705 176.863C936.771 167.839 936.748 158.811 936.734 149.788C936.734 149.338 937.016 148.686 936.508 148.475C935.999 148.264 935.736 148.93 935.416 149.249C926.037 158.605 916.667 167.975 907.298 177.345C906.413 178.23 905.521 178.225 904.62 177.331C901.472 174.191 898.352 171.017 895.152 167.924C894.201 167.005 894.187 166.414 895.138 165.467C904.573 156.097 913.966 146.684 923.364 137.277C923.684 136.953 924.376 136.705 924.169 136.194C923.924 135.589 923.218 135.931 922.733 135.927C913.769 135.908 904.809 135.875 895.844 135.945C894.347 135.955 893.961 135.505 893.99 134.061C894.079 129.622 894.056 125.183 893.99 120.744C893.971 119.403 894.427 118.995 895.754 119C914.503 119.033 933.256 119.033 952.004 119C953.275 119 953.656 119.361 953.647 120.641C953.595 130.053 953.618 139.461 953.618 148.874L953.623 148.869Z" fill="#F0F0F0"/>
        <path d="M1132.64 148.869C1132.64 158.23 1132.61 167.595 1132.67 176.956C1132.68 178.316 1132.26 178.686 1130.95 178.667C1126.49 178.602 1122.04 178.606 1117.58 178.667C1116.22 178.686 1115.71 178.306 1115.72 176.863C1115.79 167.839 1115.76 158.811 1115.75 149.788C1115.75 149.338 1116.03 148.686 1115.52 148.475C1115.02 148.264 1114.75 148.93 1114.43 149.249C1105.05 158.605 1095.68 167.975 1086.31 177.345C1085.43 178.23 1084.54 178.225 1083.64 177.331C1080.49 174.191 1077.37 171.017 1074.17 167.924C1073.22 167.005 1073.2 166.414 1074.15 165.467C1083.59 156.097 1092.98 146.684 1102.38 137.277C1102.7 136.953 1103.39 136.705 1103.18 136.194C1102.94 135.589 1102.23 135.931 1101.75 135.927C1092.78 135.908 1083.82 135.875 1074.86 135.945C1073.36 135.955 1072.98 135.505 1073.01 134.061C1073.09 129.622 1073.07 125.183 1073.01 120.744C1072.99 119.403 1073.44 118.995 1074.77 119C1093.52 119.033 1112.27 119.033 1131.02 119C1132.29 119 1132.67 119.361 1132.66 120.641C1132.61 130.053 1132.63 139.461 1132.63 148.874L1132.64 148.869Z" fill="#F0F0F0"/>
        <path d="M1013.3 148.869C1013.3 158.23 1013.27 167.595 1013.33 176.956C1013.34 178.316 1012.92 178.686 1011.61 178.667C1007.15 178.602 1002.69 178.606 998.236 178.667C996.876 178.686 996.368 178.306 996.377 176.863C996.443 167.839 996.42 158.811 996.405 149.788C996.405 149.338 996.688 148.686 996.18 148.475C995.671 148.264 995.408 148.93 995.088 149.249C985.709 158.605 976.339 167.975 966.97 177.345C966.085 178.23 965.193 178.225 964.292 177.331C961.144 174.191 958.024 171.017 954.824 167.924C953.873 167.005 953.859 166.414 954.81 165.467C964.245 156.097 973.638 146.684 983.036 137.277C983.356 136.953 984.048 136.705 983.841 136.194C983.596 135.589 982.89 135.931 982.405 135.927C973.441 135.908 964.48 135.875 955.516 135.945C954.019 135.955 953.633 135.505 953.661 134.061C953.751 129.622 953.727 125.183 953.661 120.744C953.643 119.403 954.099 118.995 955.426 119C974.175 119.033 992.928 119.033 1011.68 119C1012.95 119 1013.33 119.361 1013.32 120.641C1013.27 130.053 1013.29 139.461 1013.29 148.874L1013.3 148.869Z" fill="#F0F0F0"/>
        <path d="M1192.3 148.869C1192.3 158.23 1192.27 167.595 1192.34 176.956C1192.35 178.316 1191.93 178.686 1190.61 178.667C1186.16 178.602 1181.7 178.606 1177.24 178.667C1175.88 178.686 1175.38 178.306 1175.39 176.863C1175.45 167.839 1175.43 158.811 1175.41 149.788C1175.41 149.338 1175.7 148.686 1175.19 148.475C1174.68 148.264 1174.42 148.93 1174.1 149.249C1164.72 158.605 1155.35 167.975 1145.98 177.345C1145.09 178.23 1144.2 178.225 1143.3 177.331C1140.15 174.191 1137.03 171.017 1133.83 167.924C1132.88 167.005 1132.87 166.414 1133.82 165.467C1143.25 156.097 1152.65 146.684 1162.04 137.277C1162.36 136.953 1163.06 136.705 1162.85 136.194C1162.6 135.589 1161.9 135.931 1161.41 135.927C1152.45 135.908 1143.49 135.875 1134.52 135.945C1133.03 135.955 1132.64 135.505 1132.67 134.061C1132.76 129.622 1132.74 125.183 1132.67 120.744C1132.65 119.403 1133.11 118.995 1134.43 119C1153.18 119.033 1171.94 119.033 1190.68 119C1191.95 119 1192.34 119.361 1192.33 120.641C1192.27 130.053 1192.3 139.461 1192.3 148.874L1192.3 148.869Z" fill="#F0F0F0"/>
        <path d="M1072.97 148.869C1072.97 158.23 1072.94 167.595 1073 176.956C1073.01 178.316 1072.59 178.686 1071.28 178.667C1066.82 178.602 1062.36 178.606 1057.91 178.667C1056.55 178.686 1056.04 178.306 1056.05 176.863C1056.11 167.839 1056.09 158.811 1056.08 149.788C1056.08 149.338 1056.36 148.686 1055.85 148.475C1055.34 148.264 1055.08 148.93 1054.76 149.249C1045.38 158.605 1036.01 167.975 1026.64 177.345C1025.76 178.23 1024.86 178.225 1023.96 177.331C1020.82 174.191 1017.7 171.017 1014.5 167.924C1013.55 167.005 1013.53 166.414 1014.48 165.467C1023.92 156.097 1033.31 146.684 1042.71 137.277C1043.03 136.953 1043.72 136.705 1043.51 136.194C1043.27 135.589 1042.56 135.931 1042.08 135.927C1033.11 135.908 1024.15 135.875 1015.19 135.945C1013.69 135.955 1013.31 135.505 1013.33 134.061C1013.42 129.622 1013.4 125.183 1013.33 120.744C1013.31 119.403 1013.77 118.995 1015.1 119C1033.85 119.033 1052.6 119.033 1071.35 119C1072.62 119 1073 119.361 1072.99 120.641C1072.94 130.053 1072.96 139.461 1072.96 148.874L1072.97 148.869Z" fill="#F0F0F0"/>
        <path d="M1251.97 148.869C1251.97 158.23 1251.95 167.595 1252.01 176.956C1252.02 178.316 1251.6 178.686 1250.29 178.667C1245.83 178.602 1241.37 178.606 1236.92 178.667C1235.56 178.686 1235.05 178.306 1235.06 176.863C1235.12 167.839 1235.1 158.811 1235.09 149.788C1235.09 149.338 1235.37 148.686 1234.86 148.475C1234.35 148.264 1234.09 148.93 1233.77 149.249C1224.39 158.605 1215.02 167.975 1205.65 177.345C1204.76 178.23 1203.87 178.225 1202.97 177.331C1199.82 174.191 1196.7 171.017 1193.5 167.924C1192.55 167.005 1192.54 166.414 1193.49 165.467C1202.92 156.097 1212.32 146.684 1221.72 137.277C1222.04 136.953 1222.73 136.705 1222.52 136.194C1222.28 135.589 1221.57 135.931 1221.09 135.927C1212.12 135.908 1203.16 135.875 1194.2 135.945C1192.7 135.955 1192.31 135.505 1192.34 134.061C1192.43 129.622 1192.41 125.183 1192.34 120.744C1192.32 119.403 1192.78 118.995 1194.11 119C1212.85 119.033 1231.61 119.033 1250.36 119C1251.63 119 1252.01 119.361 1252 120.641C1251.95 130.053 1251.97 139.461 1251.97 148.874L1251.97 148.869Z" fill="#F0F0F0"/>
        <path d="M59.6388 207.869C59.6388 217.23 59.6105 226.595 59.6717 235.956C59.6811 237.316 59.2623 237.686 57.9493 237.667C53.4928 237.602 49.0363 237.606 44.5798 237.667C43.2198 237.686 42.7116 237.306 42.721 235.863C42.7869 226.839 42.7633 217.811 42.7492 208.788C42.7492 208.338 43.0316 207.686 42.5233 207.475C42.0151 207.264 41.7515 207.93 41.4315 208.249C32.0526 217.605 22.6831 226.975 13.3136 236.345C12.4289 237.23 11.5363 237.225 10.6359 236.331C7.48767 233.191 4.36764 230.017 1.16761 226.924C0.217012 226.005 0.202898 225.414 1.15349 224.467C10.5889 215.097 19.9819 205.684 29.3797 196.277C29.6997 195.953 30.3914 195.705 30.1844 195.194C29.9397 194.589 29.2338 194.931 28.7491 194.927C19.7843 194.908 10.8242 194.875 1.85939 194.945C0.362899 194.955 -0.0229881 194.505 0.00524837 193.061C0.0946612 188.622 0.0711324 184.183 0.00524895 179.744C-0.0135765 178.403 0.442902 177.995 1.76997 178C20.5184 178.033 39.2715 178.033 58.0199 178C59.2905 178 59.6717 178.361 59.6623 179.641C59.6105 189.053 59.6341 198.461 59.6341 207.874L59.6388 207.869Z" fill="#F0F0F0"/>
        <path d="M118.272 207.869C118.272 217.23 118.243 226.595 118.305 235.956C118.314 237.316 117.895 237.686 116.582 237.667C112.126 237.602 107.669 237.606 103.213 237.667C101.853 237.686 101.344 237.306 101.354 235.863C101.42 226.839 101.396 217.811 101.382 208.788C101.382 208.338 101.664 207.686 101.156 207.475C100.648 207.264 100.384 207.93 100.064 208.249C90.6854 217.605 81.3159 226.975 71.9464 236.345C71.0617 237.23 70.1691 237.225 69.2688 236.331C66.1205 233.191 63.0005 230.017 59.8004 226.924C58.8498 226.005 58.8357 225.414 59.7863 224.467C69.2217 215.097 78.6147 205.684 88.0125 196.277C88.3325 195.953 89.0242 195.705 88.8172 195.194C88.5725 194.589 87.8666 194.931 87.3819 194.927C78.4171 194.908 69.457 194.875 60.4922 194.945C58.9957 194.955 58.6098 194.505 58.6381 193.061C58.7275 188.622 58.7039 184.183 58.6381 179.744C58.6192 178.403 59.0757 177.995 60.4028 178C79.1512 178.033 97.9043 178.033 116.653 178C117.923 178 118.305 178.361 118.295 179.641C118.243 189.053 118.267 198.461 118.267 207.874L118.272 207.869Z" fill="#F0F0F0"/>
        <path d="M177.943 207.869C177.943 217.23 177.915 226.595 177.976 235.956C177.986 237.316 177.567 237.686 176.254 237.667C171.798 237.602 167.341 237.606 162.884 237.667C161.524 237.686 161.016 237.306 161.026 235.863C161.092 226.839 161.068 217.811 161.054 208.788C161.054 208.338 161.336 207.686 160.828 207.475C160.32 207.264 160.056 207.93 159.736 208.249C150.357 217.605 140.988 226.975 131.618 236.345C130.734 237.23 129.841 237.225 128.941 236.331C125.792 233.191 122.672 230.017 119.472 226.924C118.522 226.005 118.508 225.414 119.458 224.467C128.894 215.097 138.287 205.684 147.684 196.277C148.004 195.953 148.696 195.705 148.489 195.194C148.244 194.589 147.538 194.931 147.054 194.927C138.089 194.908 129.129 194.875 120.164 194.945C118.668 194.955 118.282 194.505 118.31 193.061C118.399 188.622 118.376 184.183 118.31 179.744C118.291 178.403 118.748 177.995 120.075 178C138.823 178.033 157.576 178.033 176.325 178C177.595 178 177.976 178.361 177.967 179.641C177.915 189.053 177.939 198.461 177.939 207.874L177.943 207.869Z" fill="#F0F0F0"/>
        <path d="M237.608 207.869C237.608 217.23 237.579 226.595 237.64 235.956C237.65 237.316 237.231 237.686 235.918 237.667C231.462 237.602 227.005 237.606 222.549 237.667C221.189 237.686 220.68 237.306 220.69 235.863C220.756 226.839 220.732 217.811 220.718 208.788C220.718 208.338 221 207.686 220.492 207.475C219.984 207.264 219.72 207.93 219.4 208.249C210.021 217.605 200.652 226.975 191.282 236.345C190.398 237.23 189.505 237.225 188.605 236.331C185.456 233.191 182.336 230.017 179.136 226.924C178.186 226.005 178.172 225.414 179.122 224.467C188.558 215.097 197.951 205.684 207.348 196.277C207.668 195.953 208.36 195.705 208.153 195.194C207.908 194.589 207.203 194.931 206.718 194.927C197.753 194.908 188.793 194.875 179.828 194.945C178.332 194.955 177.946 194.505 177.974 193.061C178.063 188.622 178.04 184.183 177.974 179.744C177.955 178.403 178.412 177.995 179.739 178C198.487 178.033 217.24 178.033 235.989 178C237.259 178 237.64 178.361 237.631 179.641C237.579 189.053 237.603 198.461 237.603 207.874L237.608 207.869Z" fill="#F0F0F0"/>
        <path d="M297.279 207.869C297.279 217.23 297.251 226.595 297.312 235.956C297.322 237.316 296.903 237.686 295.59 237.667C291.133 237.602 286.677 237.606 282.22 237.667C280.86 237.686 280.352 237.306 280.362 235.863C280.427 226.839 280.404 217.811 280.39 208.788C280.39 208.338 280.672 207.686 280.164 207.475C279.656 207.264 279.392 207.93 279.072 208.249C269.693 217.605 260.324 226.975 250.954 236.345C250.07 237.23 249.177 237.225 248.277 236.331C245.128 233.191 242.008 230.017 238.808 226.924C237.858 226.005 237.844 225.414 238.794 224.467C248.23 215.097 257.623 205.684 267.02 196.277C267.34 195.953 268.032 195.705 267.825 195.194C267.58 194.589 266.874 194.931 266.39 194.927C257.425 194.908 248.465 194.875 239.5 194.945C238.004 194.955 237.618 194.505 237.646 193.061C237.735 188.622 237.712 184.183 237.646 179.744C237.627 178.403 238.084 177.995 239.411 178C258.159 178.033 276.912 178.033 295.661 178C296.931 178 297.312 178.361 297.303 179.641C297.251 189.053 297.275 198.461 297.275 207.874L297.279 207.869Z" fill="#F0F0F0"/>
        <path d="M356.951 207.869C356.951 217.23 356.923 226.595 356.984 235.956C356.994 237.316 356.575 237.686 355.262 237.667C350.805 237.602 346.349 237.606 341.892 237.667C340.532 237.686 340.024 237.306 340.033 235.863C340.099 226.839 340.076 217.811 340.062 208.788C340.062 208.338 340.344 207.686 339.836 207.475C339.328 207.264 339.064 207.93 338.744 208.249C329.365 217.605 319.996 226.975 310.626 236.345C309.741 237.23 308.849 237.225 307.948 236.331C304.8 233.191 301.68 230.017 298.48 226.924C297.53 226.005 297.515 225.414 298.466 224.467C307.901 215.097 317.294 205.684 326.692 196.277C327.012 195.953 327.704 195.705 327.497 195.194C327.252 194.589 326.546 194.931 326.062 194.927C317.097 194.908 308.137 194.875 299.172 194.945C297.675 194.955 297.29 194.505 297.318 193.061C297.407 188.622 297.384 184.183 297.318 179.744C297.299 178.403 297.755 177.995 299.082 178C317.831 178.033 336.584 178.033 355.332 178C356.603 178 356.984 178.361 356.975 179.641C356.923 189.053 356.947 198.461 356.947 207.874L356.951 207.869Z" fill="#F0F0F0"/>
        <path d="M416.615 207.869C416.615 217.23 416.587 226.595 416.648 235.956C416.658 237.316 416.239 237.686 414.926 237.667C410.469 237.602 406.013 237.606 401.556 237.667C400.196 237.686 399.688 237.306 399.698 235.863C399.763 226.839 399.74 217.811 399.726 208.788C399.726 208.338 400.008 207.686 399.5 207.475C398.992 207.264 398.728 207.93 398.408 208.249C389.029 217.605 379.66 226.975 370.29 236.345C369.405 237.23 368.513 237.225 367.613 236.331C364.464 233.191 361.344 230.017 358.144 226.924C357.194 226.005 357.179 225.414 358.13 224.467C367.565 215.097 376.958 205.684 386.356 196.277C386.676 195.953 387.368 195.705 387.161 195.194C386.916 194.589 386.21 194.931 385.726 194.927C376.761 194.908 367.801 194.875 358.836 194.945C357.339 194.955 356.954 194.505 356.982 193.061C357.071 188.622 357.048 184.183 356.982 179.744C356.963 178.403 357.419 177.995 358.747 178C377.495 178.033 396.248 178.033 414.996 178C416.267 178 416.648 178.361 416.639 179.641C416.587 189.053 416.611 198.461 416.611 207.874L416.615 207.869Z" fill="#F0F0F0"/>
        <path d="M476.279 207.869C476.279 217.23 476.251 226.595 476.312 235.956C476.322 237.316 475.903 237.686 474.59 237.667C470.133 237.602 465.677 237.606 461.22 237.667C459.86 237.686 459.352 237.306 459.362 235.863C459.427 226.839 459.404 217.811 459.39 208.788C459.39 208.338 459.672 207.686 459.164 207.475C458.656 207.264 458.392 207.93 458.072 208.249C448.693 217.605 439.324 226.975 429.954 236.345C429.07 237.23 428.177 237.225 427.277 236.331C424.128 233.191 421.008 230.017 417.808 226.924C416.858 226.005 416.844 225.414 417.794 224.467C427.23 215.097 436.623 205.684 446.02 196.277C446.34 195.953 447.032 195.705 446.825 195.194C446.58 194.589 445.874 194.931 445.39 194.927C436.425 194.908 427.465 194.875 418.5 194.945C417.004 194.955 416.618 194.505 416.646 193.061C416.735 188.622 416.712 184.183 416.646 179.744C416.627 178.403 417.084 177.995 418.411 178C437.159 178.033 455.912 178.033 474.661 178C475.931 178 476.312 178.361 476.303 179.641C476.251 189.053 476.275 198.461 476.275 207.874L476.279 207.869Z" fill="#F0F0F0"/>
        <path d="M535.951 207.869C535.951 217.23 535.923 226.595 535.984 235.956C535.994 237.316 535.575 237.686 534.262 237.667C529.805 237.602 525.349 237.606 520.892 237.667C519.532 237.686 519.024 237.306 519.033 235.863C519.099 226.839 519.076 217.811 519.062 208.788C519.062 208.338 519.344 207.686 518.836 207.475C518.328 207.264 518.064 207.93 517.744 208.249C508.365 217.605 498.996 226.975 489.626 236.345C488.741 237.23 487.849 237.225 486.948 236.331C483.8 233.191 480.68 230.017 477.48 226.924C476.53 226.005 476.515 225.414 477.466 224.467C486.901 215.097 496.294 205.684 505.692 196.277C506.012 195.953 506.704 195.705 506.497 195.194C506.252 194.589 505.546 194.931 505.062 194.927C496.097 194.908 487.137 194.875 478.172 194.945C476.675 194.955 476.29 194.505 476.318 193.061C476.407 188.622 476.384 184.183 476.318 179.744C476.299 178.403 476.755 177.995 478.082 178C496.831 178.033 515.584 178.033 534.332 178C535.603 178 535.984 178.361 535.975 179.641C535.923 189.053 535.947 198.461 535.947 207.874L535.951 207.869Z" fill="#F0F0F0"/>
        <path d="M595.623 207.869C595.623 217.23 595.595 226.595 595.656 235.956C595.666 237.316 595.247 237.686 593.934 237.667C589.477 237.602 585.021 237.606 580.564 237.667C579.204 237.686 578.696 237.306 578.705 235.863C578.771 226.839 578.748 217.811 578.734 208.788C578.734 208.338 579.016 207.686 578.508 207.475C577.999 207.264 577.736 207.93 577.416 208.249C568.037 217.605 558.667 226.975 549.298 236.345C548.413 237.23 547.521 237.225 546.62 236.331C543.472 233.191 540.352 230.017 537.152 226.924C536.201 226.005 536.187 225.414 537.138 224.467C546.573 215.097 555.966 205.684 565.364 196.277C565.684 195.953 566.376 195.705 566.169 195.194C565.924 194.589 565.218 194.931 564.733 194.927C555.769 194.908 546.809 194.875 537.844 194.945C536.347 194.955 535.961 194.505 535.99 193.061C536.079 188.622 536.056 184.183 535.99 179.744C535.971 178.403 536.427 177.995 537.754 178C556.503 178.033 575.256 178.033 594.004 178C595.275 178 595.656 178.361 595.647 179.641C595.595 189.053 595.618 198.461 595.618 207.874L595.623 207.869Z" fill="#F0F0F0"/>
        <path d="M655.287 207.869C655.287 217.23 655.259 226.595 655.32 235.956C655.33 237.316 654.911 237.686 653.598 237.667C649.141 237.602 644.685 237.606 640.228 237.667C638.868 237.686 638.36 237.306 638.369 235.863C638.435 226.839 638.412 217.811 638.398 208.788C638.398 208.338 638.68 207.686 638.172 207.475C637.664 207.264 637.4 207.93 637.08 208.249C627.701 217.605 618.332 226.975 608.962 236.345C608.077 237.23 607.185 237.225 606.284 236.331C603.136 233.191 600.016 230.017 596.816 226.924C595.865 226.005 595.851 225.414 596.802 224.467C606.237 215.097 615.63 205.684 625.028 196.277C625.348 195.953 626.04 195.705 625.833 195.194C625.588 194.589 624.882 194.931 624.398 194.927C615.433 194.908 606.473 194.875 597.508 194.945C596.011 194.955 595.625 194.505 595.654 193.061C595.743 188.622 595.72 184.183 595.654 179.744C595.635 178.403 596.091 177.995 597.418 178C616.167 178.033 634.92 178.033 653.668 178C654.939 178 655.32 178.361 655.311 179.641C655.259 189.053 655.283 198.461 655.283 207.874L655.287 207.869Z" fill="#F0F0F0"/>
        <path d="M714.959 207.869C714.959 217.23 714.931 226.595 714.992 235.956C715.001 237.316 714.583 237.686 713.27 237.667C708.813 237.602 704.357 237.606 699.9 237.667C698.54 237.686 698.032 237.306 698.041 235.863C698.107 226.839 698.084 217.811 698.07 208.788C698.07 208.338 698.352 207.686 697.844 207.475C697.335 207.264 697.072 207.93 696.752 208.249C687.373 217.605 678.003 226.975 668.634 236.345C667.749 237.23 666.857 237.225 665.956 236.331C662.808 233.191 659.688 230.017 656.488 226.924C655.537 226.005 655.523 225.414 656.474 224.467C665.909 215.097 675.302 205.684 684.7 196.277C685.02 195.953 685.712 195.705 685.505 195.194C685.26 194.589 684.554 194.931 684.069 194.927C675.105 194.908 666.144 194.875 657.18 194.945C655.683 194.955 655.297 194.505 655.326 193.061C655.415 188.622 655.391 184.183 655.326 179.744C655.307 178.403 655.763 177.995 657.09 178C675.839 178.033 694.592 178.033 713.34 178C714.611 178 714.992 178.361 714.983 179.641C714.931 189.053 714.954 198.461 714.954 207.874L714.959 207.869Z" fill="#F0F0F0"/>
        <path d="M774.623 207.869C774.623 217.23 774.595 226.595 774.656 235.956C774.666 237.316 774.247 237.686 772.934 237.667C768.477 237.602 764.021 237.606 759.564 237.667C758.204 237.686 757.696 237.306 757.705 235.863C757.771 226.839 757.748 217.811 757.734 208.788C757.734 208.338 758.016 207.686 757.508 207.475C756.999 207.264 756.736 207.93 756.416 208.249C747.037 217.605 737.667 226.975 728.298 236.345C727.413 237.23 726.521 237.225 725.62 236.331C722.472 233.191 719.352 230.017 716.152 226.924C715.201 226.005 715.187 225.414 716.138 224.467C725.573 215.097 734.966 205.684 744.364 196.277C744.684 195.953 745.376 195.705 745.169 195.194C744.924 194.589 744.218 194.931 743.733 194.927C734.769 194.908 725.809 194.875 716.844 194.945C715.347 194.955 714.961 194.505 714.99 193.061C715.079 188.622 715.056 184.183 714.99 179.744C714.971 178.403 715.427 177.995 716.754 178C735.503 178.033 754.256 178.033 773.004 178C774.275 178 774.656 178.361 774.647 179.641C774.595 189.053 774.618 198.461 774.618 207.874L774.623 207.869Z" fill="#F0F0F0"/>
        <path d="M834.295 207.869C834.295 217.23 834.267 226.595 834.328 235.956C834.337 237.316 833.919 237.686 832.606 237.667C828.149 237.602 823.693 237.606 819.236 237.667C817.876 237.686 817.368 237.306 817.377 235.863C817.443 226.839 817.42 217.811 817.405 208.788C817.405 208.338 817.688 207.686 817.18 207.475C816.671 207.264 816.408 207.93 816.088 208.249C806.709 217.605 797.339 226.975 787.97 236.345C787.085 237.23 786.193 237.225 785.292 236.331C782.144 233.191 779.024 230.017 775.824 226.924C774.873 226.005 774.859 225.414 775.81 224.467C785.245 215.097 794.638 205.684 804.036 196.277C804.356 195.953 805.048 195.705 804.841 195.194C804.596 194.589 803.89 194.931 803.405 194.927C794.441 194.908 785.48 194.875 776.516 194.945C775.019 194.955 774.633 194.505 774.661 193.061C774.751 188.622 774.727 184.183 774.661 179.744C774.643 178.403 775.099 177.995 776.426 178C795.175 178.033 813.928 178.033 832.676 178C833.947 178 834.328 178.361 834.319 179.641C834.267 189.053 834.29 198.461 834.29 207.874L834.295 207.869Z" fill="#F0F0F0"/>
        <path d="M893.959 207.869C893.959 217.23 893.931 226.595 893.992 235.956C894.001 237.316 893.583 237.686 892.27 237.667C887.813 237.602 883.357 237.606 878.9 237.667C877.54 237.686 877.032 237.306 877.041 235.863C877.107 226.839 877.084 217.811 877.07 208.788C877.07 208.338 877.352 207.686 876.844 207.475C876.335 207.264 876.072 207.93 875.752 208.249C866.373 217.605 857.003 226.975 847.634 236.345C846.749 237.23 845.857 237.225 844.956 236.331C841.808 233.191 838.688 230.017 835.488 226.924C834.537 226.005 834.523 225.414 835.474 224.467C844.909 215.097 854.302 205.684 863.7 196.277C864.02 195.953 864.712 195.705 864.505 195.194C864.26 194.589 863.554 194.931 863.069 194.927C854.105 194.908 845.144 194.875 836.18 194.945C834.683 194.955 834.297 194.505 834.326 193.061C834.415 188.622 834.391 184.183 834.326 179.744C834.307 178.403 834.763 177.995 836.09 178C854.839 178.033 873.592 178.033 892.34 178C893.611 178 893.992 178.361 893.983 179.641C893.931 189.053 893.954 198.461 893.954 207.874L893.959 207.869Z" fill="#F0F0F0"/>
        <path d="M953.631 207.869C953.631 217.23 953.603 226.595 953.664 235.956C953.673 237.316 953.254 237.686 951.942 237.667C947.485 237.602 943.029 237.606 938.572 237.667C937.212 237.686 936.704 237.306 936.713 235.863C936.779 226.839 936.756 217.811 936.741 208.788C936.741 208.338 937.024 207.686 936.516 207.475C936.007 207.264 935.744 207.93 935.424 208.249C926.045 217.605 916.675 226.975 907.306 236.345C906.421 237.23 905.529 237.225 904.628 236.331C901.48 233.191 898.36 230.017 895.16 226.924C894.209 226.005 894.195 225.414 895.146 224.467C904.581 215.097 913.974 205.684 923.372 196.277C923.692 195.953 924.384 195.705 924.177 195.194C923.932 194.589 923.226 194.931 922.741 194.927C913.776 194.908 904.816 194.875 895.852 194.945C894.355 194.955 893.969 194.505 893.997 193.061C894.087 188.622 894.063 184.183 893.997 179.744C893.979 178.403 894.435 177.995 895.762 178C914.511 178.033 933.264 178.033 952.012 178C953.283 178 953.664 178.361 953.655 179.641C953.603 189.053 953.626 198.461 953.626 207.874L953.631 207.869Z" fill="#F0F0F0"/>
        <path d="M1013.3 207.869C1013.3 217.23 1013.27 226.595 1013.33 235.956C1013.34 237.316 1012.92 237.686 1011.61 237.667C1007.15 237.602 1002.69 237.606 998.236 237.667C996.876 237.686 996.368 237.306 996.377 235.863C996.443 226.839 996.42 217.811 996.405 208.788C996.405 208.338 996.688 207.686 996.18 207.475C995.671 207.264 995.408 207.93 995.088 208.249C985.709 217.605 976.339 226.975 966.97 236.345C966.085 237.23 965.193 237.225 964.292 236.331C961.144 233.191 958.024 230.017 954.824 226.924C953.873 226.005 953.859 225.414 954.81 224.467C964.245 215.097 973.638 205.684 983.036 196.277C983.356 195.953 984.048 195.705 983.841 195.194C983.596 194.589 982.89 194.931 982.405 194.927C973.441 194.908 964.48 194.875 955.516 194.945C954.019 194.955 953.633 194.505 953.661 193.061C953.751 188.622 953.727 184.183 953.661 179.744C953.643 178.403 954.099 177.995 955.426 178C974.175 178.033 992.928 178.033 1011.68 178C1012.95 178 1013.33 178.361 1013.32 179.641C1013.27 189.053 1013.29 198.461 1013.29 207.874L1013.3 207.869Z" fill="#F0F0F0"/>
        <path d="M1072.97 207.869C1072.97 217.23 1072.94 226.595 1073 235.956C1073.01 237.316 1072.59 237.686 1071.28 237.667C1066.82 237.602 1062.36 237.606 1057.91 237.667C1056.55 237.686 1056.04 237.306 1056.05 235.863C1056.11 226.839 1056.09 217.811 1056.08 208.788C1056.08 208.338 1056.36 207.686 1055.85 207.475C1055.34 207.264 1055.08 207.93 1054.76 208.249C1045.38 217.605 1036.01 226.975 1026.64 236.345C1025.76 237.23 1024.86 237.225 1023.96 236.331C1020.82 233.191 1017.7 230.017 1014.5 226.924C1013.55 226.005 1013.53 225.414 1014.48 224.467C1023.92 215.097 1033.31 205.684 1042.71 196.277C1043.03 195.953 1043.72 195.705 1043.51 195.194C1043.27 194.589 1042.56 194.931 1042.08 194.927C1033.11 194.908 1024.15 194.875 1015.19 194.945C1013.69 194.955 1013.31 194.505 1013.33 193.061C1013.42 188.622 1013.4 184.183 1013.33 179.744C1013.31 178.403 1013.77 177.995 1015.1 178C1033.85 178.033 1052.6 178.033 1071.35 178C1072.62 178 1073 178.361 1072.99 179.641C1072.94 189.053 1072.96 198.461 1072.96 207.874L1072.97 207.869Z" fill="#F0F0F0"/>
        <path d="M1251.97 207.869C1251.97 217.23 1251.94 226.595 1252 235.956C1252.01 237.316 1251.59 237.686 1250.28 237.667C1245.82 237.602 1241.36 237.606 1236.91 237.667C1235.55 237.686 1235.04 237.306 1235.05 235.863C1235.11 226.839 1235.09 217.811 1235.08 208.788C1235.08 208.338 1235.36 207.686 1234.85 207.475C1234.34 207.264 1234.08 207.93 1233.76 208.249C1224.38 217.605 1215.01 226.975 1205.64 236.345C1204.76 237.23 1203.86 237.225 1202.96 236.331C1199.82 233.191 1196.7 230.017 1193.5 226.924C1192.55 226.005 1192.53 225.414 1193.48 224.467C1202.92 215.097 1212.31 205.684 1221.71 196.277C1222.03 195.953 1222.72 195.705 1222.51 195.194C1222.27 194.589 1221.56 194.931 1221.08 194.927C1212.11 194.908 1203.15 194.875 1194.19 194.945C1192.69 194.955 1192.31 194.505 1192.33 193.061C1192.42 188.622 1192.4 184.183 1192.33 179.744C1192.31 178.403 1192.77 177.995 1194.1 178C1212.85 178.033 1231.6 178.033 1250.35 178C1251.62 178 1252 178.361 1251.99 179.641C1251.94 189.053 1251.96 198.461 1251.96 207.874L1251.97 207.869Z" fill="#F0F0F0"/>
        <path d="M1192.64 207.869C1192.64 217.23 1192.61 226.595 1192.67 235.956C1192.68 237.316 1192.26 237.686 1190.95 237.667C1186.49 237.602 1182.04 237.606 1177.58 237.667C1176.22 237.686 1175.71 237.306 1175.72 235.863C1175.79 226.839 1175.76 217.811 1175.75 208.788C1175.75 208.338 1176.03 207.686 1175.52 207.475C1175.02 207.264 1174.75 207.93 1174.43 208.249C1165.05 217.605 1155.68 226.975 1146.31 236.345C1145.43 237.23 1144.54 237.225 1143.64 236.331C1140.49 233.191 1137.37 230.017 1134.17 226.924C1133.22 226.005 1133.2 225.414 1134.15 224.467C1143.59 215.097 1152.98 205.684 1162.38 196.277C1162.7 195.953 1163.39 195.705 1163.18 195.194C1162.94 194.589 1162.23 194.931 1161.75 194.927C1152.78 194.908 1143.82 194.875 1134.86 194.945C1133.36 194.955 1132.98 194.505 1133.01 193.061C1133.09 188.622 1133.07 184.183 1133.01 179.744C1132.99 178.403 1133.44 177.995 1134.77 178C1153.52 178.033 1172.27 178.033 1191.02 178C1192.29 178 1192.67 178.361 1192.66 179.641C1192.61 189.053 1192.63 198.461 1192.63 207.874L1192.64 207.869Z" fill="#F0F0F0"/>
        <path d="M1132.64 207.869C1132.64 217.23 1132.61 226.595 1132.67 235.956C1132.68 237.316 1132.26 237.686 1130.95 237.667C1126.49 237.602 1122.04 237.606 1117.58 237.667C1116.22 237.686 1115.71 237.306 1115.72 235.863C1115.79 226.839 1115.76 217.811 1115.75 208.788C1115.75 208.338 1116.03 207.686 1115.52 207.475C1115.02 207.264 1114.75 207.93 1114.43 208.249C1105.05 217.605 1095.68 226.975 1086.31 236.345C1085.43 237.23 1084.54 237.225 1083.64 236.331C1080.49 233.191 1077.37 230.017 1074.17 226.924C1073.22 226.005 1073.2 225.414 1074.15 224.467C1083.59 215.097 1092.98 205.684 1102.38 196.277C1102.7 195.953 1103.39 195.705 1103.18 195.194C1102.94 194.589 1102.23 194.931 1101.75 194.927C1092.78 194.908 1083.82 194.875 1074.86 194.945C1073.36 194.955 1072.98 194.505 1073.01 193.061C1073.09 188.622 1073.07 184.183 1073.01 179.744C1072.99 178.403 1073.44 177.995 1074.77 178C1093.52 178.033 1112.27 178.033 1131.02 178C1132.29 178 1132.67 178.361 1132.66 179.641C1132.61 189.053 1132.63 198.461 1132.63 207.874L1132.64 207.869Z" fill="#F0F0F0"/>
    </g>
</svg>
