

<svg width="262" height="128" viewBox="0 0 262 128" fill="none" xmlns="http://www.w3.org/2000/svg">
<path d="M199.215 0.0603259C219.095 0.0603259 238.975 0.120328 258.845 0.000328367C261.745 -0.0196716 262.495 0.870332 262.455 3.66033C262.305 14.0603 262.325 24.4603 262.455 34.8603C262.485 37.5903 261.545 38.3804 258.865 38.3704C219.115 38.3004 179.355 38.3203 139.605 38.3003C135.455 38.3003 135.065 37.8803 135.055 33.6703C135.055 23.8903 135.055 14.1003 135.055 4.32034C135.055 0.420336 135.415 0.0603259 139.275 0.0603259C159.255 0.0603259 179.235 0.0603259 199.215 0.0603259Z" fill="#FF593A"/>
<path d="M198.822 126.759C178.842 126.759 158.862 126.709 138.882 126.819C135.942 126.839 134.952 126.049 135.002 123.019C135.172 113.029 135.052 103.039 135.072 93.0491C135.072 89.2691 135.302 89.0591 139.132 89.0591C178.892 89.0491 218.642 89.0391 258.402 89.0391C262.372 89.0391 262.402 89.0591 262.402 92.9791C262.402 103.069 262.292 113.169 262.472 123.259C262.522 126.199 261.532 126.829 258.772 126.819C238.792 126.709 218.812 126.759 198.832 126.759H198.822Z" fill="#FF593A"/>
<path d="M198.662 81.0922C178.792 81.0922 158.932 81.0922 139.062 81.0922C135.112 81.0922 135.052 81.0323 135.052 77.1523C135.052 67.9923 135.152 58.8322 135.002 49.6722C134.962 46.8022 135.692 45.7323 138.782 45.7423C178.722 45.8323 218.662 45.8323 258.602 45.7423C261.612 45.7423 262.502 46.7023 262.452 49.6423C262.302 58.9023 262.272 68.1723 262.462 77.4323C262.532 80.5223 261.432 81.1822 258.562 81.1722C238.592 81.0622 218.622 81.1123 198.652 81.1123L198.662 81.0922Z" fill="#FF593A"/>
<path d="M126.76 64.2108C126.76 84.0908 126.7 103.971 126.82 123.841C126.84 126.741 125.95 127.491 123.16 127.451C112.76 127.301 102.36 127.321 91.96 127.451C89.23 127.481 88.44 126.541 88.45 123.861C88.52 84.1108 88.5 44.3508 88.52 4.60077C88.52 0.450767 88.94 0.0607796 93.15 0.0507798C102.93 0.0507802 112.72 0.0507806 122.5 0.0507811C126.4 0.0507812 126.76 0.410783 126.76 4.27078C126.76 24.2508 126.76 44.2308 126.76 64.2108Z" fill="#FF593A"/>
<path d="M0.061246 63.8218C0.0612469 43.8418 0.11125 23.8618 0.00125105 3.88176C-0.0187488 0.941763 0.771239 -0.0482111 3.80124 0.001789C13.7912 0.171789 23.7812 0.0517667 33.7712 0.0717671C37.5512 0.0717673 37.7613 0.301765 37.7613 4.13176C37.7713 43.8918 37.7812 83.6418 37.7812 123.402C37.7812 127.372 37.7612 127.402 33.8412 127.402C23.7512 127.402 13.6512 127.292 3.56124 127.472C0.621243 127.522 -0.00875431 126.532 0.00124581 123.772C0.111247 103.792 0.0612451 83.8118 0.061246 63.8318L0.061246 63.8218Z" fill="#FF593A"/>
<path d="M45.7281 63.6615C45.7281 43.7915 45.7281 23.9315 45.7281 4.06153C45.7281 0.111528 45.7881 0.0515179 49.6681 0.0515181C58.8281 0.0515185 67.9881 0.151531 77.1481 0.00153147C80.0181 -0.0384684 81.0881 0.69153 81.0781 3.78153C80.9881 43.7215 80.9881 83.6615 81.0781 123.602C81.0781 126.612 80.1181 127.502 77.1781 127.452C67.9181 127.302 58.648 127.272 49.388 127.462C46.298 127.532 45.6381 126.431 45.6481 123.561C45.7581 103.591 45.7081 83.6215 45.7081 63.6515L45.7281 63.6615Z" fill="#FF593A"/>
</svg>
