<svg width="163" height="190" viewBox="0 0 163 130" fill="none" xmlns="http://www.w3.org/2000/svg">
    <path d="M102.937 90.0666C102.937 107.951 102.883 125.845 103 143.73C103.018 146.327 102.217 147.035 99.709 146.999C91.1945 146.873 82.68 146.882 74.1655 146.999C71.5671 147.035 70.5961 146.309 70.6141 143.551C70.74 126.311 70.695 109.062 70.668 91.8219C70.668 90.9621 71.2075 89.7173 70.2365 89.3143C69.2654 88.9113 68.7619 90.183 68.1505 90.792C50.2315 108.668 32.3304 126.57 14.4293 144.473C12.739 146.163 11.0337 146.154 9.31339 144.446C3.29841 138.446 -2.66262 132.383 -8.77651 126.472C-10.5927 124.717 -10.6197 123.588 -8.80348 121.779C9.22349 103.876 27.1696 85.8931 45.1246 67.9188C45.736 67.3009 47.0577 66.8262 46.662 65.85C46.1945 64.6947 44.8459 65.3485 43.9198 65.3395C26.7919 65.3037 9.67304 65.241 -7.45483 65.3754C-10.314 65.3933 -11.0512 64.5335 -10.9973 61.7751C-10.8265 53.294 -10.8714 44.8128 -10.9973 36.3316C-11.0332 33.7703 -10.1611 32.9911 -7.62566 33.0001C28.1945 33.0628 64.0237 33.0628 99.8439 33.0001C102.271 33.0001 103 33.6897 102.982 36.1346C102.883 54.1179 102.928 72.0922 102.928 90.0755L102.937 90.0666Z" fill="#313131"/>
    <path d="M102.034 3.46438C102.034 -6.10554 102.063 -15.6802 102 -25.2502C101.991 -26.6399 102.419 -27.0185 103.761 -26.9993C108.317 -26.9322 112.873 -26.937 117.429 -26.9993C118.819 -27.0185 119.339 -26.6303 119.329 -25.1543C119.262 -15.9294 119.286 -6.69976 119.3 2.52512C119.3 2.98517 119.012 3.65127 119.531 3.86692C120.051 4.08257 120.32 3.40208 120.648 3.07622C130.236 -6.48891 139.814 -16.0684 149.393 -25.6479C150.298 -26.552 151.21 -26.5473 152.131 -25.6336C155.349 -22.4228 158.539 -19.1785 161.81 -16.0157C162.782 -15.0764 162.796 -14.4726 161.825 -13.5046C152.179 -3.92512 142.576 5.69753 132.968 15.3154C132.641 15.646 131.934 15.9 132.146 16.4224C132.396 17.0405 133.118 16.6907 133.613 16.6955C142.778 16.7147 151.938 16.7482 161.103 16.6763C162.633 16.6668 163.027 17.1268 162.999 18.6028C162.907 23.1409 162.931 27.6791 162.999 32.2173C163.018 33.5878 162.551 34.0048 161.194 34C142.027 33.9664 122.856 33.9664 103.689 34C102.39 34 102 33.631 102.01 32.3227C102.063 22.7001 102.039 13.0822 102.039 3.45959L102.034 3.46438Z" fill="#313131"/>
</svg>