<svg width="293" height="148" viewBox="0 0 293 148" fill="none" xmlns="http://www.w3.org/2000/svg">
    <path d="M74.4013 79.6315C72.8893 81.927 73.0405 84.4206 72.645 86.6812C66.6785 120.532 39.4628 145.328 5.37339 147.88C0.337319 148.253 0.0697811 148.043 0.0697808 142.951C0.0697788 96.749 0.0930409 50.5469 -6.27936e-06 4.34488C-6.41434e-06 1.25697 0.744369 0.243184 4.01258 0.313099C36.5551 0.907373 66.7367 27.1371 72.5171 60.032C73.0056 62.8286 73.4592 65.6486 74.2036 68.4568C75.4946 59.6941 77.274 51.1062 81.1354 43.1359C92.8823 18.9104 112.108 4.68281 138.684 0.639396C147.942 -0.770554 147.965 -0.537533 147.977 8.62131C147.977 53.6232 147.988 98.625 148 143.627C148 147.88 147.639 148.218 143.511 147.903C109.328 145.293 82.7055 121.918 75.8202 88.4524C75.2386 85.6442 74.913 82.7777 74.4246 79.6548L74.4013 79.6315Z" fill="#FF593A"/>
    <path d="M221.401 79.6315C219.889 81.927 220.04 84.4206 219.645 86.6812C213.679 120.532 186.463 145.328 152.373 147.88C147.337 148.253 147.07 148.043 147.07 142.951C147.07 96.749 147.093 50.5469 147 4.34488C147 1.25697 147.744 0.243184 151.013 0.313099C183.555 0.907373 213.737 27.1371 219.517 60.032C220.006 62.8286 220.459 65.6486 221.204 68.4568C222.495 59.6941 224.274 51.1062 228.135 43.1359C239.882 18.9104 259.108 4.68281 285.684 0.639396C294.942 -0.770554 294.965 -0.537533 294.977 8.62131C294.977 53.6232 294.988 98.625 295 143.627C295 147.88 294.639 148.218 290.511 147.903C256.328 145.293 229.706 121.918 222.82 88.4524C222.239 85.6442 221.913 82.7777 221.425 79.6548L221.401 79.6315Z" fill="#FF593A"/>
</svg>
