<svg xmlns="http://www.w3.org/2000/svg" width="153" height="200" viewBox="0 0 153 129" fill="none">
    <path d="M84.2753 91.0718C85.2032 96.4295 86.0869 101.787 87.059 107.134C89.4672 120.33 91.8422 133.526 94.4049 146.7C95.0456 149.985 94.0735 150.999 90.8148 150.977C75.6701 150.878 60.5253 150.845 45.3806 150.999C41.3707 151.043 41.0503 149.39 41.7131 146.06C45.1707 128.466 48.4736 110.838 51.7986 93.2215C51.9974 92.1852 51.9643 91.1159 52.1189 88.9331C50.1085 90.3331 48.8271 91.0166 47.7887 91.9647C36.3887 102.327 24.9666 112.668 13.7103 123.174C10.8713 125.831 9.24747 125.655 7.19283 122.347C-0.263562 110.364 -7.8746 98.458 -15.5519 86.607C-17.4519 83.6635 -17.2641 82.3075 -13.5856 81.3484C0.366088 77.6994 14.2515 73.8079 28.1701 69.9825C29.087 69.729 29.9818 69.3431 31.8376 68.6817C30.1143 67.4249 29.1201 66.3446 27.8829 65.8375C14.1742 60.16 0.410274 54.5928 -13.2984 48.9264C-17.7944 47.0743 -17.8496 46.6113 -15.3089 42.5324C-7.77518 30.4168 -0.252519 18.3012 7.2591 6.17466C9.67829 2.26108 10.1864 2.11777 13.5335 5.21556C24.9556 15.7657 36.3335 26.3599 47.7666 36.899C48.8271 37.8802 50.0864 38.6298 52.3288 40.2834C51.9864 37.6597 51.887 36.3478 51.6439 35.058C48.341 17.8603 45.0602 0.662588 41.6469 -16.5131C40.9399 -20.0518 42.2765 -21.0109 45.5794 -20.9999C60.7242 -20.9117 75.8689 -20.9227 91.0137 -20.9999C94.0183 -21.0109 95.0567 -20.0739 94.4823 -16.9651C91.2567 0.38698 88.1637 17.7611 85.0486 35.1352C84.7724 36.7006 84.6509 38.2991 85.4131 40.4157C86.573 39.5559 87.8433 38.7952 88.8817 37.803C100.105 27.0434 111.284 16.2397 122.474 5.44709C125.887 2.15087 126.263 2.15086 128.704 6.06444C136.415 18.4005 144.037 30.7916 151.847 43.0615C153.714 45.994 153.448 47.3279 150.057 48.5626C136.514 53.4904 123.037 58.6276 109.55 63.7208C107.738 64.4043 105.982 65.2642 104.203 66.0359C104.137 66.4438 104.071 66.8627 103.993 67.2706C106.081 68.0423 108.147 68.9463 110.279 69.5857C123.413 73.5213 136.547 77.49 149.737 81.2382C153.415 82.2745 153.46 83.8068 151.648 86.618C143.926 98.6123 136.216 110.618 128.671 122.711C126.605 126.018 124.993 125.621 122.43 123.273C111.383 113.153 100.204 103.176 89.0474 93.1774C87.9427 92.1852 86.6945 91.3474 85.5125 90.4324L84.2863 91.1159L84.2753 91.0718Z" fill="#FF593A"/>
</svg>