<svg width="612" height="371" viewBox="0 0 612 371" fill="none" xmlns="http://www.w3.org/2000/svg">
    <mask id="mask0_1679_40964" style="mask-type:alpha" maskUnits="userSpaceOnUse" x="0" y="0" width="612" height="371">
        <rect width="612" height="371" rx="12" fill="#282828"/>
    </mask>
    <g mask="url(#mask0_1679_40964)">
        <path d="M611.87 117.637C611.87 154.505 611.758 191.391 611.999 228.259C612.036 233.613 610.387 235.071 605.216 234.997C587.664 234.739 570.112 234.757 552.561 234.997C547.204 235.071 545.203 233.576 545.24 227.89C545.499 192.351 545.406 156.794 545.351 121.256C545.351 119.483 546.463 116.917 544.461 116.086C542.459 115.256 541.422 117.877 540.161 119.133C503.223 155.982 466.321 192.887 429.42 229.791C425.936 233.274 422.42 233.256 418.874 229.736C406.475 217.367 394.187 204.868 381.584 192.683C377.84 189.065 377.784 186.739 381.528 183.01C418.689 146.105 455.683 109.034 492.695 71.9818C493.956 70.7079 496.68 69.7295 495.865 67.7171C494.901 65.3356 492.121 66.6833 490.212 66.6648C454.904 66.591 419.615 66.4618 384.308 66.7387C378.414 66.7756 376.894 65.0033 377.006 59.3171C377.358 41.8341 377.265 24.3509 377.006 6.86785C376.931 1.58784 378.729 -0.0183148 383.956 0.000147001C457.796 0.129381 531.654 0.129384 605.494 0.000156684C610.498 0.000156903 611.999 1.4217 611.962 6.4617C611.758 43.5325 611.851 80.5849 611.851 117.656L611.87 117.637Z" fill="#FF593A"/>
    </g>
</svg>
